<?xml version="1.0" encoding="utf-8"?>
<!-- Generator: Adobe Illustrator 25.4.1, SVG Export Plug-In . SVG Version: 6.00 Build 0)  -->
<svg version="1.0" id="레이어_1" xmlns="http://www.w3.org/2000/svg" xmlns:xlink="http://www.w3.org/1999/xlink" x="0px"
	 y="0px" width="30px" height="30px" viewBox="0 0 30 30" style="enable-background:new 0 0 30 30;" xml:space="preserve">
<style type="text/css">
	.st0{fill:#A3E387;}
	.st1{fill:#DE8200;}
</style>
<g>
	<g>
		<g>
			<g>
				<path class="st0" d="M30,20c0,5.5-4.5,10-10,10H10C4.5,30,0,25.5,0,20V10C0,4.5,4.5,0,10,0h10c5.5,0,10,4.5,10,10V20z"/>
			</g>
		</g>
	</g>
	<g>
		<path class="st1" d="M15,22.8c-0.4,0-0.8-0.3-0.8-0.8V8c0-0.4,0.3-0.7,0.8-0.7s0.8,0.3,0.8,0.7v14C15.7,22.4,15.4,22.8,15,22.8z"
			/>
		<path class="st1" d="M22,15.8H8c-0.4,0-0.8-0.3-0.8-0.8s0.3-0.8,0.8-0.8h14c0.4,0,0.8,0.3,0.8,0.8S22.4,15.8,22,15.8z"/>
	</g>
</g>
</svg>
