<?xml version="1.0" encoding="utf-8"?>
<!-- Generator: Adobe Illustrator 25.4.1, SVG Export Plug-In . SVG Version: 6.00 Build 0)  -->
<svg version="1.0" id="레이어_1" xmlns="http://www.w3.org/2000/svg" xmlns:xlink="http://www.w3.org/1999/xlink" x="0px"
	 y="0px" width="30px" height="30px" viewBox="0 0 30 30" style="enable-background:new 0 0 30 30;" xml:space="preserve">
<style type="text/css">
	.st0{fill:#4D4D4D;}
</style>
<g>
	<g>
		<path class="st0" d="M29.1,30c-0.2,0-0.5-0.1-0.7-0.3L0.3,1.6c-0.4-0.4-0.4-1,0-1.3s1-0.4,1.3,0l28.1,28.1c0.4,0.4,0.4,1,0,1.3
			C29.5,29.9,29.3,30,29.1,30z"/>
		<path class="st0" d="M0.9,30c-0.2,0-0.5-0.1-0.7-0.3c-0.4-0.4-0.4-1,0-1.3L28.4,0.3c0.4-0.4,1-0.4,1.3,0s0.4,1,0,1.3L1.6,29.7
			C1.4,29.9,1.2,30,0.9,30z"/>
	</g>
</g>
</svg>
