<?xml version="1.0" encoding="utf-8"?>
<svg id="e95um13obrlj1" xmlns="http://www.w3.org/2000/svg" xmlns:xlink="http://www.w3.org/1999/xlink"  width="100px" height="100px"
    viewBox="0 0 432.900000 447" shape-rendering="geometricPrecision" text-rendering="geometricPrecision">
    <style>
        <!-- <![CDATA[ -->
        #e95um13obrlj2_tr {
            animation: e95um13obrlj2_tr__tr 3500ms linear infinite normal forwards
        }

        @keyframes e95um13obrlj2_tr__tr {
            0% {
                transform: translate(216.500000px, 385.603677px) rotate(0deg)
            }

            18.857143% {
                transform: translate(216.500000px, 385.603677px) rotate(0deg);
                animation-timing-function: cubic-bezier(0.420000, 0, 0.580000, 1)
            }

            28.571429% {
                transform: translate(216.500000px, 385.603677px) rotate(-3.338555deg);
                animation-timing-function: cubic-bezier(0.420000, 0, 0.580000, 1)
            }

            46% {
                transform: translate(216.500000px, 385.603677px) rotate(-0.769049deg)
            }

            61.142857% {
                transform: translate(216.500000px, 385.603677px) rotate(-4.253771deg)
            }

            70.571429% {
                transform: translate(216.500000px, 385.603677px) rotate(0deg)
            }

            100% {
                transform: translate(216.500000px, 385.603677px) rotate(0deg)
            }
        }

        #e95um13obrlj5_to {
            animation: e95um13obrlj5_to__to 3500ms linear infinite normal forwards
        }

        @keyframes e95um13obrlj5_to__to {
            0% {
                transform: translate(263.500000px, 313.500000px)
            }

            14% {
                transform: translate(263.500000px, 313.500000px)
            }

            18.857143% {
                transform: translate(263.500000px, 316.500000px)
            }

            28.571429% {
                transform: translate(258.804465px, 308.148643px)
            }

            46% {
                transform: translate(259.393510px, 309.631174px)
            }

            61.142857% {
                transform: translate(258.804465px, 308.148643px)
            }

            70.571429% {
                transform: translate(263.500000px, 316.500000px)
            }

            75.714286% {
                transform: translate(263.500000px, 313.500000px)
            }

            100% {
                transform: translate(263.500000px, 313.500000px)
            }
        }

        #e95um13obrlj10_tr {
            animation: e95um13obrlj10_tr__tr 3500ms linear infinite normal forwards
        }

        @keyframes e95um13obrlj10_tr__tr {
            0% {
                transform: translate(143.073072px, 309.375995px) rotate(0deg)
            }

            14% {
                transform: translate(143.073072px, 309.375995px) rotate(0deg);
                animation-timing-function: cubic-bezier(0.420000, 0, 0.580000, 1)
            }

            18.857143% {
                transform: translate(143.073072px, 309.375995px) rotate(-7.362250deg);
                animation-timing-function: cubic-bezier(0.420000, 0, 0.580000, 1)
            }

            28.571429% {
                transform: translate(143.073072px, 309.375995px) rotate(40.448706deg);
                animation-timing-function: cubic-bezier(0.420000, 0, 0.580000, 1)
            }

            46% {
                transform: translate(143.073072px, 309.375995px) rotate(28.346710deg);
                animation-timing-function: cubic-bezier(0.420000, 0, 0.580000, 1)
            }

            61.142857% {
                transform: translate(143.073072px, 309.375995px) rotate(40.448706deg);
                animation-timing-function: cubic-bezier(0.420000, 0, 0.580000, 1)
            }

            70.571429% {
                transform: translate(143.073072px, 309.375995px) rotate(-7.362250deg);
                animation-timing-function: cubic-bezier(0.420000, 0, 0.580000, 1)
            }

            75.714286% {
                transform: translate(143.073072px, 309.375995px) rotate(0deg)
            }

            100% {
                transform: translate(143.073072px, 309.375995px) rotate(0deg)
            }
        }

        #e95um13obrlj17_tr {
            animation: e95um13obrlj17_tr__tr 3500ms linear infinite normal forwards
        }

        @keyframes e95um13obrlj17_tr__tr {
            0% {
                transform: translate(216.400000px, 289.700000px) rotate(0deg)
            }

            14% {
                transform: translate(216.400000px, 289.700000px) rotate(0deg);
                animation-timing-function: cubic-bezier(0.420000, 0, 0.580000, 1)
            }

            18.857143% {
                transform: translate(216.400000px, 289.700000px) rotate(3.315136deg);
                animation-timing-function: cubic-bezier(0.420000, 0, 0.580000, 1)
            }

            28.571429% {
                transform: translate(216.400000px, 289.700000px) rotate(-5.875948deg);
                animation-timing-function: cubic-bezier(0.420000, 0, 0.580000, 1)
            }

            46% {
                transform: translate(216.400000px, 289.700000px) rotate(-3.878066deg);
                animation-timing-function: cubic-bezier(0.420000, 0, 0.580000, 1)
            }

            61.142857% {
                transform: translate(216.400000px, 289.700000px) rotate(-5.875948deg);
                animation-timing-function: cubic-bezier(0.420000, 0, 0.580000, 1)
            }

            70.571429% {
                transform: translate(216.400000px, 289.700000px) rotate(3.315136deg);
                animation-timing-function: cubic-bezier(0.420000, 0, 0.580000, 1)
            }

            75.714286% {
                transform: translate(216.400000px, 289.700000px) rotate(0deg)
            }

            100% {
                transform: translate(216.400000px, 289.700000px) rotate(0deg)
            }
        }

        #e95um13obrlj35_ts {
            animation: e95um13obrlj35_ts__ts 3500ms linear infinite normal forwards
        }

        @keyframes e95um13obrlj35_ts__ts {
            0% {
                transform: translate(265.200000px, 204.982659px) scale(1, 1)
            }

            4.285714% {
                transform: translate(265.200000px, 204.982659px) scale(1, 1);
                animation-timing-function: cubic-bezier(0.420000, 0, 0.580000, 1)
            }

            5.714286% {
                transform: translate(265.200000px, 204.982659px) scale(1, 0.200000);
                animation-timing-function: cubic-bezier(0.420000, 0, 0.580000, 1)
            }

            7.428571% {
                transform: translate(265.200000px, 204.982659px) scale(1, 1);
                animation-timing-function: cubic-bezier(0.420000, 0, 0.580000, 1)
            }

            40.571429% {
                transform: translate(265.200000px, 204.982659px) scale(1, 1);
                animation-timing-function: cubic-bezier(0.420000, 0, 0.580000, 1)
            }

            42% {
                transform: translate(265.200000px, 204.982659px) scale(1, 0.200000);
                animation-timing-function: cubic-bezier(0.420000, 0, 0.580000, 1)
            }

            43.714286% {
                transform: translate(265.200000px, 204.982659px) scale(1, 1);
                animation-timing-function: cubic-bezier(0.420000, 0, 0.580000, 1)
            }

            45.142857% {
                transform: translate(265.200000px, 204.982659px) scale(1, 0.200000);
                animation-timing-function: cubic-bezier(0.420000, 0, 0.580000, 1)
            }

            46.857143% {
                transform: translate(265.200000px, 204.982659px) scale(1, 1);
                animation-timing-function: cubic-bezier(0.420000, 0, 0.580000, 1)
            }

            73.428571% {
                transform: translate(265.200000px, 204.982659px) scale(1, 1);
                animation-timing-function: cubic-bezier(0.420000, 0, 0.580000, 1)
            }

            74.857143% {
                transform: translate(265.200000px, 204.982659px) scale(1, 0.200000);
                animation-timing-function: cubic-bezier(0.420000, 0, 0.580000, 1)
            }

            76.571429% {
                transform: translate(265.200000px, 204.982659px) scale(1, 1)
            }

            100% {
                transform: translate(265.200000px, 204.982659px) scale(1, 1)
            }
        }

        #e95um13obrlj40_ts {
            animation: e95um13obrlj40_ts__ts 3500ms linear infinite normal forwards
        }

        @keyframes e95um13obrlj40_ts__ts {
            0% {
                transform: translate(176.700380px, 204.982659px) scale(1, 1)
            }

            4.285714% {
                transform: translate(176.700380px, 204.982659px) scale(1, 1);
                animation-timing-function: cubic-bezier(0.420000, 0, 0.580000, 1)
            }

            5.714286% {
                transform: translate(176.700380px, 204.982659px) scale(1, 0.200000);
                animation-timing-function: cubic-bezier(0.420000, 0, 0.580000, 1)
            }

            7.428571% {
                transform: translate(176.700380px, 204.982659px) scale(1, 1);
                animation-timing-function: cubic-bezier(0.420000, 0, 0.580000, 1)
            }

            40.571429% {
                transform: translate(176.700380px, 204.982659px) scale(1, 1);
                animation-timing-function: cubic-bezier(0.420000, 0, 0.580000, 1)
            }

            42% {
                transform: translate(176.700380px, 204.982659px) scale(1, 0.200000);
                animation-timing-function: cubic-bezier(0.420000, 0, 0.580000, 1)
            }

            43.714286% {
                transform: translate(176.700380px, 204.982659px) scale(1, 1);
                animation-timing-function: cubic-bezier(0.420000, 0, 0.580000, 1)
            }

            45.142857% {
                transform: translate(176.700380px, 204.982659px) scale(1, 0.200000);
                animation-timing-function: cubic-bezier(0.420000, 0, 0.580000, 1)
            }

            46.857143% {
                transform: translate(176.700380px, 204.982659px) scale(1, 1);
                animation-timing-function: cubic-bezier(0.420000, 0, 0.580000, 1)
            }

            73.428571% {
                transform: translate(176.700380px, 204.982659px) scale(1, 1);
                animation-timing-function: cubic-bezier(0.420000, 0, 0.580000, 1)
            }

            74.857143% {
                transform: translate(176.700380px, 204.982659px) scale(1, 0.200000);
                animation-timing-function: cubic-bezier(0.420000, 0, 0.580000, 1)
            }

            76.571429% {
                transform: translate(176.700380px, 204.982659px) scale(1, 1)
            }

            100% {
                transform: translate(176.700380px, 204.982659px) scale(1, 1)
            }
        }

        #e95um13obrlj46_to {
            animation: e95um13obrlj46_to__to 3500ms linear infinite normal forwards
        }

        @keyframes e95um13obrlj46_to__to {
            0% {
                transform: translate(289.826928px, 310.200000px)
            }

            18.857143% {
                transform: translate(289.826928px, 310.200000px);
                animation-timing-function: cubic-bezier(0.420000, 0, 0.580000, 1)
            }

            28.571429% {
                transform: translate(289.472541px, 293.572226px);
                animation-timing-function: cubic-bezier(0.420000, 0, 0.580000, 1)
            }

            46% {
                transform: translate(289.662280px, 299.747153px);
                animation-timing-function: cubic-bezier(0.420000, 0, 0.580000, 1)
            }

            61.142857% {
                transform: translate(289.472541px, 293.572226px);
                animation-timing-function: cubic-bezier(0.420000, 0, 0.580000, 1)
            }

            70.571429% {
                transform: translate(289.826928px, 310.200000px)
            }

            100% {
                transform: translate(289.826928px, 310.200000px)
            }
        }

        #e95um13obrlj46_tr {
            animation: e95um13obrlj46_tr__tr 3500ms linear infinite normal forwards
        }

        @keyframes e95um13obrlj46_tr__tr {
            0% {
                transform: rotate(0deg)
            }

            14% {
                transform: rotate(0deg);
                animation-timing-function: cubic-bezier(0.420000, 0, 0.580000, 1)
            }

            18.857143% {
                transform: rotate(6.323508deg);
                animation-timing-function: cubic-bezier(0.420000, 0, 0.580000, 1)
            }

            28.571429% {
                transform: rotate(-92.997228deg);
                animation-timing-function: cubic-bezier(0.420000, 0, 0.580000, 1)
            }

            46% {
                transform: rotate(-63.824743deg);
                animation-timing-function: cubic-bezier(0.420000, 0, 0.580000, 1)
            }

            61.142857% {
                transform: rotate(-92.997228deg);
                animation-timing-function: cubic-bezier(0.420000, 0, 0.580000, 1)
            }

            70.571429% {
                transform: rotate(6.323508deg);
                animation-timing-function: cubic-bezier(0.420000, 0, 0.580000, 1)
            }

            75.714286% {
                transform: rotate(0deg)
            }

            100% {
                transform: rotate(0deg)
            }
        }

        #e95um13obrlj47 {
            animation: e95um13obrlj47_c_o 3500ms linear infinite normal forwards
        }

        @keyframes e95um13obrlj47_c_o {
            0% {
                opacity: 1
            }

            24.285714% {
                opacity: 1
            }

            24.571429% {
                opacity: 0
            }

            63.714286% {
                opacity: 0
            }

            64% {
                opacity: 1
            }

            100% {
                opacity: 1
            }
        }

        #e95um13obrlj54 {
            animation: e95um13obrlj54_c_o 3500ms linear infinite normal forwards
        }

        @keyframes e95um13obrlj54_c_o {
            0% {
                opacity: 0
            }

            24.285714% {
                opacity: 0
            }

            24.571429% {
                opacity: 1
            }

            63.714286% {
                opacity: 1
            }

            64% {
                opacity: 0
            }

            100% {
                opacity: 0
            }
        }
        <!-- ]]> -->
    </style>
    <g id="e95um13obrlj2_tr" transform="translate(216.500000,385.603677) rotate(0)">
        <g id="e95um13obrlj2" transform="translate(-216.500000,-385.603677)">
            <g id="e95um13obrlj3">
                <circle id="e95um13obrlj4" r="22.600000"
                    transform="matrix(1 0 0 1 169.40000000000001 313.50000000000000)" fill="rgb(57,84,132)"
                    stroke="none" stroke-width="1" />
                <g id="e95um13obrlj5_to" transform="translate(263.500000,313.500000)">
                    <circle id="e95um13obrlj5" r="22.600000" transform="translate(0,0)" fill="rgb(57,84,132)"
                        stroke="none" stroke-width="1" />
                </g>
                <g id="e95um13obrlj6">
                    <path id="e95um13obrlj7"
                        d="M275.200000,331.300000C275.200000,299.500000,248.900000,283.600000,216.400000,283.600000C183.900000,283.600000,157.600000,299.500000,157.600000,331.300000C157.600000,363.100000,183.900000,392.400000,216.400000,392.400000C248.900000,392.400000,275.200000,363.200000,275.200000,331.300000Z"
                        fill="rgb(193,222,229)" stroke="none" stroke-width="1" />
                    <path id="e95um13obrlj8"
                        d="M216.400000,343.300000C240.800000,343.300000,262.200000,334.400000,274.100000,321.100000C269,296.100000,245.100000,283.700000,216.400000,283.700000C187.700000,283.700000,163.700000,296.100000,158.700000,321.100000C170.700000,334.400000,192,343.300000,216.400000,343.300000Z"
                        fill="rgb(232,246,247)" stroke="none" stroke-width="1" />
                    <ellipse id="e95um13obrlj9" rx="31.500000" ry="6.800000"
                        transform="matrix(1 0 0 1 216.50000000000000 290.39999999999998)" fill="rgb(27,46,68)"
                        stroke="none" stroke-width="1" />
                </g>
            </g>
            <g id="e95um13obrlj10_tr" transform="translate(143.073072,309.375995) rotate(0)">
                <g id="e95um13obrlj10" transform="translate(-143.073072,-309.375995)">
                    <path id="e95um13obrlj11"
                        d="M55.500000,346.400000C65.700000,350.700000,71.300000,357.600000,71.100000,361.100000C70.900000,365.200000,63.300000,368.500000,52.700000,367.200000C42.600000,366,36.900000,364.400000,37.800000,353.800000C38.800000,342.700000,46.500000,342.600000,55.500000,346.400000Z"
                        fill="rgb(57,84,132)" stroke="none" stroke-width="1" />
                    <path id="e95um13obrlj12"
                        d="M45.400000,361.700000C56.900000,362.400000,64.800000,367.300000,65.800000,370.700000C67,374.700000,60.700000,380.700000,49.800000,383.100000C39.400000,385.400000,33.300000,385.800000,30.600000,375.100000C27.700000,363.900000,35.300000,361.100000,45.400000,361.700000Z"
                        fill="rgb(31,45,61)" stroke="none" stroke-width="1" />
                    <path id="e95um13obrlj13"
                        d="M98.900000,407.700000C100.100000,395.700000,98.100000,387.200000,94.200000,385.900000C89.700000,384.300000,81.600000,389.200000,76.600000,400.100000C72.100000,409.800000,71.100000,420.600000,83.700000,422.900000C95.100000,424.800000,97.800000,418.400000,98.900000,407.700000Z"
                        fill="rgb(31,45,61)" stroke="none" stroke-width="1" />
                    <path id="e95um13obrlj14"
                        d="M47.200000,383.200000C57.600000,378.300000,66.900000,378.800000,69.400000,381.300000C72.400000,384.300000,69.700000,392.500000,61.300000,399.800000C53.300000,406.800000,48.100000,410.100000,40.600000,402C32.800000,393.600000,38.100000,387.500000,47.200000,383.200000Z"
                        fill="rgb(57,84,132)" stroke="none" stroke-width="1" />
                    <path id="e95um13obrlj15"
                        d="M61.300000,342.300000C49.200000,351.800000,45.800000,370.100000,63.200000,390.500000C74.200000,403.400000,91.200000,410.700000,104.900000,396.700000C137.200000,363.500000,148.500000,318.400000,140.700000,311.400000C131.400000,303.200000,88.200000,321.200000,61.300000,342.300000Z"
                        fill="rgb(232,246,247)" stroke="none" stroke-width="1" />
                    <path id="e95um13obrlj16"
                        d="M82.700000,342.100000C82.400000,341.900000,82.100000,341.700000,81.800000,341.500000C94,329.900000,109.100000,318,126.100000,310.200000C108.600000,313.500000,80.700000,327.100000,61.300000,342.300000C52.600000,349.100000,48.400000,360.500000,53.200000,374C54.800000,371.800000,57.300000,368.500000,60.600000,364.400000C61.100000,365.400000,61.700000,366.300000,62.600000,367C67.100000,370.600000,75.300000,368,80.800000,361.200000C86.400000,354.200000,87.200000,345.700000,82.700000,342.100000Z"
                        fill="rgb(255,255,255)" stroke="none" stroke-width="1" />
                </g>
            </g>
            <g id="e95um13obrlj17_tr" transform="translate(216.400000,289.700000) rotate(0)">
                <g id="e95um13obrlj17" transform="translate(-216.400000,-289.700000)">
                    <g id="e95um13obrlj18">
                        <ellipse id="e95um13obrlj19" rx="16.500000" ry="30"
                            transform="matrix(0.73400000000000 -0.67910000000000 0.67910000000000 0.73400000000000 126.10779999999998 49.97808999999999)"
                            fill="rgb(232,246,247)" stroke="none" stroke-width="1" />
                        <path id="e95um13obrlj20"
                            d="M146.700000,71.500000C151.600000,66.400000,150.200000,56.200000,143.900000,46.300000C133.900000,51,124.400000,56.600000,115.600000,63C127,74,140.600000,77.800000,146.700000,71.500000Z"
                            fill="rgb(39,59,94)" stroke="none" stroke-width="1" />
                    </g>
                    <g id="e95um13obrlj21">
                        <ellipse id="e95um13obrlj22" rx="30" ry="16.500000"
                            transform="matrix(0.67910000000000 -0.73400000000000 0.73400000000000 0.67910000000000 308.23111999999998 50.12211000000002)"
                            fill="rgb(232,246,247)" stroke="none" stroke-width="1" />
                        <path id="e95um13obrlj23"
                            d="M287.600000,71.600000C293.600000,77.900000,307,74.200000,318.100000,63.600000C309.400000,57.200000,300,51.600000,290.100000,46.800000C284.100000,56.500000,282.800000,66.500000,287.600000,71.600000Z"
                            fill="rgb(39,59,94)" stroke="none" stroke-width="1" />
                    </g>
                    <g id="e95um13obrlj24">
                        <path id="e95um13obrlj25"
                            d="M369.800000,188.100000C369.800000,281.400000,286.700000,289.700000,216.500000,289.700000C168.500000,289.700000,63.200000,284.500000,63.200000,188.100000C63.200000,127.800000,104.400000,38.100000,216.500000,38.100000C328.200000,38.100000,369.800000,129,369.800000,188.100000Z"
                            fill="rgb(232,246,247)" stroke="none" stroke-width="1" />
                        <path id="e95um13obrlj26"
                            d="M220.500000,47.100000C246.800000,46.100000,270.300000,49,290.500000,54.800000C270.300000,44.500000,245.800000,38.200000,216.400000,38.200000C104.300000,38.200000,63.100000,127.900000,63.100000,188.200000C63.100000,200.300000,64.800000,211,67.800000,220.400000C66.800000,214.600000,66.300000,208.300000,66.300000,201.700000C66.300000,141.200000,108.500000,51.300000,220.500000,47.100000Z"
                            fill="rgb(255,255,255)" stroke="none" stroke-width="1" />
                        <path id="e95um13obrlj27"
                            d="M216.400000,277C177.600000,277,101.500000,266,73.600000,234.200000C101.500000,286.300000,177.600000,289.800000,216.400000,289.800000C272.700000,289.800000,337.200000,284.500000,360.600000,234.200000C337.300000,264.800000,272.700000,277,216.400000,277Z"
                            fill="rgb(193,222,229)" stroke="none" stroke-width="1" />
                        <ellipse id="e95um13obrlj28" rx="25" ry="15.300000"
                            transform="matrix(0.86600000000000 -0.50000000000000 0.50000000000000 0.86600000000000 140.49979999999999 78.60289999999999)"
                            fill="rgb(255,255,255)" stroke="none" stroke-width="1" />
                    </g>
                    <g id="e95um13obrlj29">
                        <g id="e95um13obrlj30">
                            <path id="e95um13obrlj31"
                                d="M217.400000,94.400000C147.600000,94.400000,109.900000,146.900000,109.900000,198.200000C109.900000,249.400000,158,273.400000,217.400000,273.400000C276.800000,273.400000,324.900000,249.500000,324.900000,198.200000C324.900000,147,287.200000,94.400000,217.400000,94.400000Z"
                                fill="rgb(39,59,94)" stroke="none" stroke-width="1" />
                            <g id="e95um13obrlj32">
                                <path id="e95um13obrlj33"
                                    d="M227.600000,103.400000C255.400000,103.400000,278.100000,111.700000,295.300000,125C277.200000,106.600000,251,94.500000,217.400000,94.500000C147.600000,94.500000,109.900000,147,109.900000,198.300000C109.900000,221.900000,120.200000,239.800000,137,252.100000C126.300000,240.600000,120,225.700000,120,207.300000C120,156,157.800000,103.400000,227.600000,103.400000Z"
                                    fill="rgb(57,84,132)" stroke="none" stroke-width="1" />
                            </g>
                            <ellipse id="e95um13obrlj34" rx="20.300000" ry="14.400000"
                                transform="matrix(0.92410000000000 -0.38210000000000 0.38210000000000 0.92410000000000 171.19814000000000 124.19900000000001)"
                                fill="rgb(57,84,132)" stroke="none" stroke-width="1" />
                        </g>
                        <g id="e95um13obrlj35_ts" transform="translate(265.200000,204.982659) scale(1,1)">
                            <g id="e95um13obrlj35" transform="translate(-265.200000,-204.982659)">
                                <ellipse id="e95um13obrlj36" rx="25.600000" ry="29"
                                    transform="matrix(1 0 0 1 265.19999999999999 189.09999999999999)"
                                    fill="rgb(232,246,247)" stroke="none" stroke-width="1" />
                                <g id="e95um13obrlj37">
                                    <ellipse id="e95um13obrlj38" rx="18.600000" ry="21.700000"
                                        transform="matrix(1 0 0 1 260.50000000000000 191.19999999999999)"
                                        fill="rgb(27,46,68)" stroke="none" stroke-width="1" />
                                    <path id="e95um13obrlj39"
                                        d="M265.900000,189.600000L264.200000,189.600000C261,189.600000,258.300000,187,258.300000,183.700000L258.300000,182.200000C258.300000,179,260.900000,176.300000,264.200000,176.300000L265.900000,176.300000C269.100000,176.300000,271.800000,178.900000,271.800000,182.200000L271.800000,183.700000C271.700000,186.900000,269.100000,189.600000,265.900000,189.600000Z"
                                        fill="rgb(232,246,247)" stroke="none" stroke-width="1" />
                                </g>
                            </g>
                        </g>
                        <g id="e95um13obrlj40_ts" transform="translate(176.700380,204.982659) scale(1,1)">
                            <g id="e95um13obrlj40" transform="translate(-176.700380,-204.982659)">
                                <path id="e95um13obrlj41"
                                    d="M199.800000,189.100000C199.800000,205.100000,194.900000,217.900000,174.200000,218.100000C157,218.300000,148.600000,205.100000,148.600000,189.100000C148.600000,173.100000,160.100000,160.100000,174.200000,160.100000C188.300000,160.100000,199.800000,173.100000,199.800000,189.100000Z"
                                    fill="rgb(232,246,247)" stroke="none" stroke-width="1" />
                                <g id="e95um13obrlj42">
                                    <ellipse id="e95um13obrlj43" rx="18.600000" ry="21.700000"
                                        transform="matrix(1 0 0 1 178.90000000000001 191.19999999999999)"
                                        fill="rgb(27,46,68)" stroke="none" stroke-width="1" />
                                    <path id="e95um13obrlj44"
                                        d="M185.600000,189.600000L184,189.600000C180.800000,189.600000,178.100000,187,178.100000,183.700000L178.100000,182.200000C178.100000,179,180.700000,176.300000,184,176.300000L185.700000,176.300000C188.900000,176.300000,191.600000,178.900000,191.600000,182.200000L191.600000,183.700000C191.500000,186.900000,188.900000,189.600000,185.600000,189.600000Z"
                                        fill="rgb(232,246,247)" stroke="none" stroke-width="1" />
                                </g>
                            </g>
                        </g>
                        <path id="e95um13obrlj45"
                            d="M218.700000,245.400000C199.500000,245.400000,191.500000,233.800000,191.200000,233.300000C190.300000,231.900000,190.600000,230.100000,192,229.100000C193.400000,228.200000,195.200000,228.500000,196.200000,229.900000C196.500000,230.300000,202.900000,239.400000,218.800000,239.400000C234.700000,239.400000,241.900000,228.800000,242.200000,228.400000C243.100000,227,245,226.700000,246.400000,227.600000C247.800000,228.500000,248.200000,230.400000,247.300000,231.700000C246.800000,232.200000,237.900000,245.400000,218.700000,245.400000Z"
                            fill="rgb(94,204,229)" stroke="none" stroke-width="1" />
                    </g>
                </g>
            </g>
            <g id="e95um13obrlj46_to" transform="translate(289.826928,310.200000)">
                <g id="e95um13obrlj46_tr" transform="rotate(0)">
                    <g id="e95um13obrlj46" transform="translate(-289.826928,-310.200000)">
                        <g id="e95um13obrlj47">
                            <path id="e95um13obrlj48"
                                d="M377.400000,346.400000C367.200000,350.700000,361.600000,357.600000,361.800000,361.100000C362,365.200000,369.600000,368.500000,380.200000,367.200000C390.300000,366,396,364.400000,395.100000,353.800000C394.100000,342.700000,386.400000,342.600000,377.400000,346.400000Z"
                                fill="rgb(57,84,132)" stroke="none" stroke-width="1" />
                            <path id="e95um13obrlj49"
                                d="M387.500000,361.700000C376,362.400000,368.100000,367.300000,367.100000,370.700000C365.900000,374.700000,372.200000,380.700000,383.100000,383.100000C393.500000,385.400000,399.600000,385.800000,402.300000,375.100000C405.200000,363.900000,397.600000,361.100000,387.500000,361.700000Z"
                                fill="rgb(31,45,61)" stroke="none" stroke-width="1" />
                            <path id="e95um13obrlj50"
                                d="M334,407.700000C332.800000,395.700000,334.800000,387.200000,338.700000,385.900000C343.200000,384.300000,351.300000,389.200000,356.300000,400.100000C360.800000,409.800000,361.800000,420.600000,349.200000,422.900000C337.800000,424.800000,335.100000,418.400000,334,407.700000Z"
                                fill="rgb(31,45,61)" stroke="none" stroke-width="1" />
                            <path id="e95um13obrlj51"
                                d="M385.700000,383.200000C375.300000,378.300000,366,378.800000,363.500000,381.300000C360.500000,384.300000,363.200000,392.500000,371.600000,399.800000C379.600000,406.800000,384.800000,410.100000,392.300000,402C400.100000,393.600000,394.800000,387.500000,385.700000,383.200000Z"
                                fill="rgb(57,84,132)" stroke="none" stroke-width="1" />
                            <path id="e95um13obrlj52"
                                d="M371.600000,342.300000C383.700000,351.800000,387.100000,370.100000,369.700000,390.500000C358.700000,403.400000,341.700000,410.700000,328,396.700000C295.700000,363.500000,284.400000,318.400000,292.200000,311.400000C301.500000,303.200000,344.700000,321.200000,371.600000,342.300000Z"
                                fill="rgb(232,246,247)" stroke="none" stroke-width="1" />
                            <path id="e95um13obrlj53"
                                d="M350.200000,342.100000C350.500000,341.900000,350.800000,341.700000,351.100000,341.500000C338.900000,329.900000,323.800000,318,306.800000,310.200000C324.300000,313.500000,352.200000,327.100000,371.600000,342.300000C380.300000,349.100000,384.500000,360.500000,379.700000,374C378.100000,371.800000,375.600000,368.500000,372.300000,364.400000C371.800000,365.400000,371.200000,366.300000,370.300000,367C365.800000,370.600000,357.600000,368,352.100000,361.200000C346.500000,354.200000,345.700000,345.700000,350.200000,342.100000Z"
                                fill="rgb(255,255,255)" stroke="none" stroke-width="1" />
                        </g>
                        <g id="e95um13obrlj54"
                            transform="matrix(0.99925127253058 -0.03868971886708 0.03868971886708 0.99925127253058 -14.44746835442714 9.00076708279710)"
                            opacity="0">
                            <path id="e95um13obrlj55"
                                d="M337.300000,413.300000C335.200000,402.400000,337.700000,393.900000,340.700000,392.200000C344.200000,390.200000,351.300000,394.400000,356.100000,404.100000C360.700000,413.200000,362.700000,418.800000,353.300000,424C343.600000,429.200000,339.200000,422.800000,337.300000,413.300000Z"
                                fill="rgb(57,84,132)" stroke="none" stroke-width="1" />
                            <path id="e95um13obrlj56"
                                d="M361,408.300000C354.500000,398.800000,353.500000,389.600000,355.600000,386.600000C358.100000,383.200000,366.600000,384.600000,375.100000,391.700000C383.200000,398.500000,387.300000,403.100000,380.500000,411.800000C373.500000,421,366.700000,416.600000,361,408.300000Z"
                                fill="rgb(31,45,61)" stroke="none" stroke-width="1" />
                            <path id="e95um13obrlj57"
                                d="M372.400000,341.300000C361.900000,347.100000,356,353.600000,357,357.500000C358.300000,362.100000,366.900000,366,378.600000,363.900000C389.100000,362,398.700000,356.800000,393.300000,345.200000C388.600000,334.800000,381.700000,336.100000,372.400000,341.300000Z"
                                fill="rgb(31,45,61)" stroke="none" stroke-width="1" />
                            <path id="e95um13obrlj58"
                                d="M377.400000,391.100000C367.400000,385.300000,362.600000,377.400000,363.300000,373.900000C364.100000,369.800000,372.400000,367.300000,383.100000,370C393.300000,372.600000,399,375,396.600000,385.800000C394.100000,397.200000,386.100000,396.200000,377.400000,391.100000Z"
                                fill="rgb(57,84,132)" stroke="none" stroke-width="1" />
                            <path id="e95um13obrlj59"
                                d="M372.600000,348.400000C384.100000,358.600000,386.300000,377.100000,367.800000,396.400000C356.100000,408.600000,338.600000,414.900000,325.800000,400.100000C295.600000,365.100000,287,319.300000,295.200000,312.800000C305,305.200000,346.900000,325.700000,372.600000,348.400000Z"
                                fill="rgb(232,246,247)" stroke="none" stroke-width="1" />
                            <path id="e95um13obrlj60"
                                d="M351.300000,346.900000C351.600000,346.700000,351.900000,346.500000,352.200000,346.300000C340.800000,333.900000,326.300000,321.200000,309.800000,312.400000C327,316.700000,354.100000,332,372.600000,348.300000C380.800000,355.600000,384.300000,367.200000,378.800000,380.400000C377.300000,378.200000,375.100000,374.600000,372,370.400000C371.500000,371.300000,370.700000,372.200000,369.900000,372.900000C365.200000,376.200000,357.200000,373.200000,352.100000,366C346.800000,358.800000,346.600000,350.200000,351.300000,346.900000Z"
                                fill="rgb(255,255,255)" stroke="none" stroke-width="1" />
                        </g>
                    </g>
                </g>
            </g>
        </g>
    </g>
</svg>