<svg xmlns="http://www.w3.org/2000/svg" width="64.999" height="50" viewBox="0 0 64.999 50">
    <defs>
        <style>
            .cls-1{fill:#f35d5c}
        </style>
    </defs>
    <g id="그룹_401" transform="translate(-58.008 -80.051)">
        <path id="패스_407" d="M111.176 85.648a.9.9 0 0 0-.06-.127.407.407 0 0 0 .06.127z" class="cls-1"/>
        <path id="패스_408" d="M104.9 90.207l.028-.117a.112.112 0 0 0-.028.117z" class="cls-1"/>
        <path id="패스_409" d="M114.935 82.955a.209.209 0 0 0 .008.034l.268-.182z" class="cls-1"/>
        <path id="패스_410" d="M92.5 101.5l.069-.082c-.031.033-.061.045-.069.082z" class="cls-1"/>
        <path id="패스_411" d="M99.807 94.739a.27.27 0 0 1-.038.171.119.119 0 0 0 .038-.171z" class="cls-1"/>
        <path id="패스_412" d="M118.344 83.992l-.2-.093a.176.176 0 0 0 .2.093z" class="cls-1"/>
        <path id="패스_413" d="M121.624 80.51a.233.233 0 0 0-.031-.034.039.039 0 0 0 .031.034z" class="cls-1"/>
        <path id="패스_414" d="M119.782 80.87a1.006 1.006 0 0 0-.062.153c.041-.038.098-.079.062-.153z" class="cls-1"/>
        <path id="패스_415" d="M119.694 81.1l.026-.081c-.025.03-.043.054-.026.081z" class="cls-1"/>
        <path id="패스_416" d="M82.32 113.062l-.033-.083a.1.1 0 0 0 .033.083z" class="cls-1"/>
        <path id="패스_418" d="M85.088 120.883l-.051.078a.22.22 0 0 0 .051-.078z" class="cls-1"/>
        <path id="패스_419" d="M75.759 120.554l.02-.04z" class="cls-1"/>
        <path id="패스_420" d="M75.874 120.09l.04-.057c.009-.033-.014.005-.04.057z" class="cls-1"/>
        <path id="패스_421" d="M72.7 113.8a.425.425 0 0 0 .058.068.119.119 0 0 0-.058-.068z" class="cls-1"/>
        <path id="패스_422" d="M100.329 94.378a.372.372 0 0 0 .077-.018c-.021-.041-.043-.06-.077.018z" class="cls-1"/>
        <path id="패스_424" d="M99.182 102.49c-.1.041-.112.258-.078.429.071-.077.112-.18.078-.429z" class="cls-1"/>
        <path id="패스_425" d="M98.56 103.359l.041-.009a.057.057 0 0 0-.041.009z" class="cls-1"/>
        <path id="패스_426" d="M103.384 98.9l-.012-.017.008.017z" class="cls-1"/>
        <path id="패스_427" d="M102.485 99.852a.2.2 0 0 0-.114 0 .155.155 0 0 0 .114 0z" class="cls-1"/>
        <path id="패스_428" d="M96.666 106.178v-.008.007z" class="cls-1"/>
        <path id="패스_429" d="M89.387 116.589c.313-1.684 1.53-2.556 2.407-3.412a1.678 1.678 0 0 1 .374-1.17s2.866-3.762 2.64-4.011c.239-.027.159-.311.262-.464.38-.01.547-.488.921-.387.011-.219-.153-.682.05-.934.373.1.173.3.465.169l-.129-.239c.2-.159.215-.073.285.029.191-.193-.068-.443.269-.565l.027.336c.111-.262.209-.3.463-.543.088.122-.015.217-.113.259.37.159.12-.368.217-.412-.09-.066-.289.073-.366-.214.148-.09.036-.546.311-.4l.025.334c.124-.423-.068-.4.28-.623 0 .032.045.074.072.123-.025-.453.4-.471.681-.738l-.008.109c.054-.184-.03-.429.04-.478-.245.047-.25-.057-.418-.238.466.12 0-.72.489-.875.086.122.117.349-.07.323.157.465.373.773.3 1.149.062-.214.171-.419.254-.24l-.212-.363a2.1 2.1 0 0 1 .2-.195c-.126-.238-.413-.168-.341-.489.116-.317.362.216.28.039.173-.419-.158-.469.19-.639-.006.054-.014.163-.061.157.292-.067.424-.543.781-.211.039.116.124.238.026.279l-.043-.062c.009.5.116-.257.321.16-.176-.193.129-.422.279-.508l-.222-.2c-.147-1.128.341.494.668-.007.128-.421-.147.032-.121-.3.2-.134.429.013.6-.348a.785.785 0 0 1 .6.262c.069-.265.55-.353.438-.7-.43.041-.044.547-.612.51l-.114-.35c.22-.2.389-.611.605-.665a.238.238 0 0 1-.156-.15c.225-.406.11-.764.466-.977.22.2.014.331-.093.482.332 0 .209-.185.563-.4.173.2-.209.184-.088.425l.277-.391.032.043c-.216-.4.272-.216.393-.52.476-.467.2-1.016.25-1.563a.307.307 0 0 1 .265.215c-.233-.042-.121.062-.093.195.133-.2.606 0 .622.234.179-.355-.229-.1-.155-.362l.366-.321c-.175-.143-.327-.061-.248-.379.116-.2.216-.238.424-.424.036.119.264.217.107.354a.3.3 0 0 0 .231-.4c-.338.049.244-.511-.124-.636l.34-.046c-.053.045.028.171-.071.207.262.217.124-.251.182-.352.117-.02.337-.187.431-.1a.231.231 0 0 1 .364-.133c.065-.154-.122-.19-.156-.309l.371-.313c.129.138.464.541.452.65.032-.271-.277-.5-.064-.681.1.41.793-1.452 1.252-1.69l-.146.023a1.063 1.063 0 0 0 .127-.645.739.739 0 0 0 1.181.153c-.073-.185-.421-.1-.524-.4l.23-.281c.036.007.042.084.035.154.161-.32.708.009.531-.413l.543.239-.225-.109c-.07-.182.161-.465.176-.573.154-.412.34-.367.618-.3-.131-.087-.442-.273-.263-.511.333.506.567-.211.734.056.08-.083.335-.061.207-.28l.193.328c-.27-.458.055-.717.241-1.01.337.649.23-.285.693.174-.218-.446.326-.526.145-.91.175-.178.4.219.531.309l-.011-.226c.216.112.584-.156.876-.2l-.036-.527.176.105c-.027-.119.1-.31-.085-.361l.118-.067c-.241-.406.078-.235.183-.583a.2.2 0 0 1 .122.221c.107-.085.19.158.329.242-.138-.038-.057-1.091-.057-1.091s.514.372.852.07c-.152.2-.118.477-.165.631.08-.046.074-.091.311-.363.183.337.145.071.055-.041.052-.045.071-.652.235-.493-.58-.287.548-.845.646-.588.029-.161-.323-.1-.282-.313.123-.13.342-.008.479.035l-.02.106.295-.02c-.061-.19-.366-.115-.223-.353.091.028.235-.21.305-.075.041.3.684.216.33.048l.169-.118c-.183-.057-.279-.314-.279-.314s.49-.528.56-.391c.235-.211.119-.362.1-.483.123-.132.214-.1.262.141.212-.1.514-.407.741-.333.166-.348-.091-.029-.071-.369.548.415 1.867-1.333 1.579-.922 0 0-.06.264.38.48.239-.2.1-.879.5-.9.1.435.162-.286.3.167.009.176-.094.195-.162.285l.09.033c.6-.294.5-.909.608-.752.089.033.227-.146.264-.306-.086.372-.5.046-.523-.253.365.31.513-.329.52-.561-.709-.09-.342.221-1.042.079.008.177-.258.387-.338.363.166.176-.277-.238-.6-.123 0 0-.355.048-.087-.26-.6-.157-.445.648-.632 1.039.012-.053-.021-.122-.01-.176.01.176-.106.25-.175.341-.252.026.026-.335-.1-.436l-.3.239a.1.1 0 0 1-.028-.03c-.043.127-.1.228-.192.126 0-.227-.053-.419-.063-.6l-.132.584c-.056-.19-.427-.087-.262-.376l-.442.422-.229-.3c-.079.149-.045.217.113.151-.205.051-.38 1.147-.67.425-.213.564-1.376 1.008-1.094.579-.3.025-.134.418-.269.605-.24-.015-.361-.394-.261-.65l-.112.309-.035-.068-.065.324c-.289-.03-.234-.3-.453-.192l.132.323-.231-.067c.128.1-.11.308-.11.308s-.327.248-.376-.02a1.43 1.43 0 0 0-.382.366s-.028-.122-.307.088l.155.212c-.621-.052-.524.772-.96.77.131-.192-.072-.419-.036-.351-.195.291-.635.572-.719 1.06-.3-.247-.381-.326-.737-.248a.38.38 0 0 0-.129.477c-.265.031-.492.511-.652.285.077.222-.191.1-.191.347l-.083-.077.16.209c-.653-.223-.361.763-.969.619l.017-.11-.079.209c-.085-.077-.069-.186-.145-.318l-.66.529.234.054c-.119.142-.067.436-.309.438.035-.558-.218.176-.429-.041l.079-.209c-.173.188-.173.188-.01.4-.189.293-.446-.271-.509.166l.165-.132a.337.337 0 0 1 .03.458c-.048-.012-.188-.042-.126-.142-.133.254-.494.4-.518.56-.149.024-.221-.162-.205-.27-.275.558-.212.123-.489.68l-.078-.13-.038.274-.374-.077.179.094c-.115.145-.137.309-.338.382l-.064-.24c-.3.45-.639.1-.812.686-.047-.011-.033-.12-.025-.176-.126.594-.473-.091-.556.567-.023-.08-.112-.122-.135-.186l-.067.259-.161-.256.133.476-.27-.165.026.172c-.491-.318-.466.248-.933.1l.257.273c-.1 1.151-1.505.844-1.944 1.785l-.164-.252-.061.55c-.284-.047-.064-.292-.2-.371-.191.418.141.475-.143.875-.29.007-.071-.236-.053-.4-.226.429-.591 1.019-.912 1.105.019.037.037.094.059.1-.13.314-.485.479-.7.723a.225.225 0 0 1 .008-.269c-.095.067-.263.1-.248.289l-.07-.294c-.2.138-.4.671-.619.469.091.07.217.258.058.4-.358-.278-.292.574-.68.627-.037-.116.125-.317.072-.27-.194.029-.173.31-.193.532l-.079-.179-.407.779c-.361-.274-.488.6-.652.3-.21.194.29-.015.069.288-.183-.081-.172.31-.343.064l.006-.055-.163.2-.066-.344a.792.792 0 0 0 .081.735c-.244.021-.362.344-.59.2l.009-.112c-.327.517-1.156.077-1.163.8a.068.068 0 0 1-.041-.118l-.258.25-.077-.235-.2.7-.087-.121a7.9 7.9 0 0 0-1 1.159l.008-.11c-.235.583-.454.281-.624.71a.137.137 0 0 1-.011-.081l-.241.276-.037-.172c.02.449-.782.252-.5.338a1.766 1.766 0 0 0 0 .725c-.258.308-.186-.075-.431.011-.2.2-.076.437-.422.625l-.089-.121a5.316 5.316 0 0 1-.272.529l.006-.111c-.08.548-.626.048-.432.789-.194.036-.354.355-.533.116a12.014 12.014 0 0 1-.691 1.386c-.367-.31-.053.107-.437.129l.182.182c-.456.574-1.426.71-1.886 1.4l-.184-.181.081.34a22.646 22.646 0 0 0-1.889 1.866c-.057.276-.075.772-.37.976v-.057a4.587 4.587 0 0 1-1.19 1.6c-.046-.115-.14-.12-.138-.231.087.339-.247.319-.346.426l.239.013c.04.334-.3.371-.486.306l-.011.444a.2.2 0 0 1-.108-.037l.057.144-.333-.129c0 .111-.205.488-.066.83-.094-.061-.335.1-.236-.123l-.778.8.192-.047a.394.394 0 0 1-.1.607c0-.333-.235-.287-.426-.351 0 .222.238.065.283.233 0 .278-.2.659-.343.652v-.166c-.1.273-.48.035-.627.251-.005.333-.243.324.088.614-.149.326-.286-.122-.383-.07.046.28-.338.546-.528.427.329.622-.721.536-.391.991l-.382-.011c.1.114.286.4.188.616-.239.048-.383-.177-.526-.237l.286.507a4.775 4.775 0 0 0-1.507 1.327c-.318.382-.254.276-.333.311-.055.007-.12-.014-.193-.115.024.147.027.584-.082.555v-.1a.777.777 0 0 1-.087-.173 2.321 2.321 0 0 0 .078.333c-.012.1-.026.264-.052.265-.173-.293-.157-.714-.356-.444-.384.682.266-.722-.01-.246l.125-.218a1.18 1.18 0 0 1-.43.335.489.489 0 0 1-.122.035c.455-.45-.063-.12.183-.341l-.195.16c.1-.155.1-.283.247-.379a2.787 2.787 0 0 1-.281.1l.2-.152a.275.275 0 0 0-.048-.085 2.6 2.6 0 0 1-.157-.33.744.744 0 0 1 .034-.76 10.351 10.351 0 0 1-1.67-3.255c-.245-.04-.411-.346-.548-.58l.123-.428c-.2-.2-.638-.255-.591-.6a.092.092 0 0 1 .077-.016c-.177-.217-.172-.543-.52-.62-.129-.282-.136-.639.136-.715-.422.259-.244-.623-.244-.623a1.191 1.191 0 0 1-.543-.487 43.272 43.272 0 0 0-3.446-6.954c-2.376-3.739-5.687-7.352-7.887-7.69-.244.1-3.577 1-1.522 4.661l.472.539c-.011.111-.234-.025-.147.041-.022.22.229.078.271.139-.066.161.335.423.067.673.127.563.326.089.288.415 0 0 .275.505.2.328a5.3 5.3 0 0 0 1.565 2.428c-.1.314-.2.025-.389.051.74.438.542 1.354.959 1.914l.169-.134c.046 1.261.97 2.01 1.343 3.14l.049-.211c.239 0 .383.2.553.3-.07.092-.426.176-.191.4.026-.106.018-.275.121-.306.066 1.172 1.179 2.851 1.71 4.41 1.135 1.808 1.834 4.128 2.8 6-.146-.287.356-.434.353-.147-.488 1.067.6.986.357 1.916a16.338 16.338 0 0 1 1.168 2.981 12.04 12.04 0 0 0 .8 1.331 5.3 5.3 0 0 0 .457.563 1.019 1.019 0 0 0 .52.366l-.093.287c.128.3.276.151.489.3l-.034.071c.484.509 1.3.559 1.623.789l.08-.3c.365.082.152.3.557.2l-.031.154c.163-.07.324-.159.479-.242-.046.269.224.31.535.267s.654-.162.8-.07a5.961 5.961 0 0 0 .884-.495c.165-.1.318-.212.479-.331a4.017 4.017 0 0 1 .463-.442c.182.174.922-.58 1.461-.936l.741-.82c.267-.292.519-.716.809-1.082l.567-.746c.154-.192.313-.377.475-.549l-.239-.228.138-.214c.048.056.095.058.1.113.377.122.275-.538.561-.525-.285-.12-.141.1-.235.208-.236.046-.335-.341-.05-.439l.047.058v-.275c.191.172.38.126.57.3.469-.688.513-1.454 1.124-2.03.14.28.334-.527.567-.024.193-.536-.328-.236-.423-.679.1-.1.1-.323.239-.205.039.141.28.136.238.26l.188-.293c.047 0 .047.114.046.167.24-.753 1-.71 1.19-1.41-.093-.171-.19.153-.284-.017.146-.762.567-.187.765-.83l.091.281c0-.274-.087-.5.246-.586.233.181-.006.384-.009.6.144-.154.436-.624.152-.7.1-.269.333-.143.475-.188-.045-.058-.284.035-.28-.183a3.654 3.654 0 0 0 .959-.863c.046.057.139.118.139.174-.049-.555.367-.03.61-.451z" class="cls-1"/>
        <path id="패스_430" d="M103.532 98.815l-.148.082a.307.307 0 0 1 .069.234z" class="cls-1"/>
        <path id="패스_431" d="M97.847 104.466a.475.475 0 0 0 .009.109.113.113 0 0 0-.009-.109z" class="cls-1"/>
        <path id="패스_432" d="M96.84 106.31c.054-.154-.08-.124-.174-.132a.339.339 0 0 0 .174.132z" class="cls-1"/>
        <path id="패스_433" d="M106.292 94.984a.18.18 0 0 0 .046.137.2.2 0 0 0-.046-.137z" class="cls-1"/>
        <path id="패스_434" d="M104.187 97.207a.233.233 0 0 0-.038.17.193.193 0 0 0 .038-.17z" class="cls-1"/>
        <path id="패스_435" d="M109.414 91.513c0 .008-.007.011-.01.018-.027.199.005.096.01-.018z" class="cls-1"/>
        <path id="패스_436" d="M111.612 90.153a.8.8 0 0 0-.084-.252c-.041.041-.04.109.084.252z" class="cls-1"/>
    </g>
</svg>
