<svg xmlns="http://www.w3.org/2000/svg" width="60" height="32" viewBox="0 0 60 32">
    <defs>
        <style>
            .cls-5{fill:#ff9d20}
        </style>
    </defs>
    <g id="그룹_413" transform="translate(-213.846 -55.513)">
        <path id="사각형_195" fill="none" d="M0 0H60V32H0z" transform="translate(213.846 55.513)"/>
        <g id="그룹_412">
            <path id="사각형_196" fill="#a3e387" d="M10 0h40a10 10 0 0 1 10 10v10a10 10 0 0 1-10 10H10A10 10 0 0 1 0 20V10A10 10 0 0 1 10 0z" transform="translate(213.846 57.013)"/>
            <path id="사각형_197" fill="#fff" d="M10 0h40a10 10 0 0 1 10 10v10a10 10 0 0 1-10 10H10A10 10 0 0 1 0 20V10A10 10 0 0 1 10 0z" transform="translate(213.846 55.513)"/>
            <path id="패스_449" fill="#ffce00" d="M220.5 68.925s2.034-3.758 5.185-3.678 5.5 2.228 5.511 5.122-2.591 4.746-2.812 4.881-1.294 1.912-2.536 1.957-2.86-2.172-2.86-2.172-3.216-.789-2.488-6.11z"/>
            <g id="그룹_409">
                <path id="패스_450" d="M225.684 78.925a3.483 3.483 0 0 1-2.7-1.28v.2a2.7 2.7 0 0 0 5.4 0v-.2a3.484 3.484 0 0 1-2.7 1.28z" class="cls-5"/>
                <path id="패스_451" d="M225.684 77.893a3.117 3.117 0 0 1-2.939-2.017 6.074 6.074 0 0 1-3.256-5.333 6.195 6.195 0 0 1 12.387 0 6.073 6.073 0 0 1-3.257 5.333 3.106 3.106 0 0 1-2.935 2.017zm0-11.915a4.637 4.637 0 0 0-4.7 4.565 4.577 4.577 0 0 0 2.69 4.123.75.75 0 0 1 .416.5 1.641 1.641 0 0 0 3.172 0 .75.75 0 0 1 .416-.508 4.577 4.577 0 0 0 2.693-4.123 4.635 4.635 0 0 0-4.687-4.557z" class="cls-5"/>
                <g id="그룹_408">
                    <path id="패스_452" d="M222.643 63.833a.75.75 0 0 1-.53-.22l-1.4-1.4a.75.75 0 1 1 1.06-1.06l1.4 1.4a.751.751 0 0 1-.531 1.281z" class="cls-5"/>
                    <path id="패스_453" d="M228.721 63.833a.751.751 0 0 1-.53-1.281l1.4-1.4a.75.75 0 1 1 1.06 1.06l-1.4 1.4a.751.751 0 0 1-.53.221z" class="cls-5"/>
                    <path id="패스_454" d="M225.682 63.394a.75.75 0 0 1-.75-.75v-1.809a.75.75 0 1 1 1.5 0v1.809a.75.75 0 0 1-.75.75z" class="cls-5"/>
                </g>
            </g>
            <g id="그룹_411">
                <g id="그룹_410">
                    <path id="패스_455" d="M244.588 66.533c0 .26-.091.351-.364.351l-6.318.116.052 4.043 6.084-.117c.273 0 .364.091.364.352v.806c0 .259-.091.35-.364.35l-2.769.053v1.287l3.068-.053c.247 0 .325.066.325.338v.807c0 .3-.091.364-.312.364l-7.8.13c-.22 0-.311-.066-.311-.364v-.806c0-.273.078-.339.325-.339l3.068-.052v-1.286l-2.925.053c-.274 0-.365-.092-.365-.352l-.09-6.357c0-.26.09-.351.364-.351l7.6-.13c.273 0 .364.091.364.351z" class="cls-5"/>
                    <path id="패스_456" d="M247.486 77.207c-.272 0-.351-.091-.363-.351l-.117-3.081c-.013-.261.09-.352.364-.352l2.729-.051V72.6l-3.211.053c-.22 0-.311-.066-.311-.364v-.806c0-.274.077-.339.324-.339l8.035-.13c.247 0 .324.066.324.338v.807c0 .3-.09.364-.311.364l-3.211.052v.766l2.743-.052c.273 0 .377.091.363.351l-.116 3.082c-.013.26-.092.351-.364.351zm-.182-9.738c0-1.833 1.444-2.9 3.615-2.9s3.614 1.066 3.614 2.9-1.43 2.9-3.614 2.9-3.619-1.069-3.619-2.9zm1.417 8.333l4.408-.078.039-1.026-4.486.078zm4.057-8.333c0-.884-.624-1.456-1.859-1.456s-1.86.572-1.86 1.456.624 1.456 1.86 1.456 1.859-.572 1.859-1.456z" class="cls-5"/>
                    <path id="패스_457" d="M257.38 71.6c-.274.014-.365-.091-.365-.351l-.09-5.525c0-.26.09-.351.364-.351l5.668-.129c.272 0 .377.09.364.35l-.183 5.526c-.012.259-.09.337-.364.35zm1.248-1.533l2.912-.078.1-3.2-3.067.065zm1.936 5.3l.014.481 5.005-.1c.247 0 .325.065.325.337v.651c0 .272-.078.338-.325.338l-6.28.13c-.247 0-.311-.065-.325-.338l-.078-2.246c-.013-.274.078-.326.325-.338l5.291-.282.027-.5-5.577.1c-.247 0-.326-.064-.326-.338v-.649c0-.274.079-.338.326-.338l6.928-.13c.247 0 .339.064.325.338l-.117 2.288c-.012.272-.077.324-.324.338zm5.785-6.228v1.938c0 .259-.09.35-.363.35h-.91c-.274 0-.364-.091-.364-.35v-5.35c0-.26.09-.351.364-.351h.91c.273 0 .363.091.363.351v1.911l.976-.039c.247-.013.325.066.325.338v.832c0 .274-.078.325-.325.338z" class="cls-5"/>
                </g>
            </g>
        </g>
    </g>
</svg>
