<svg xmlns="http://www.w3.org/2000/svg" width="30" height="30" viewBox="0 0 30 30">
    <defs>
        <style>
            .innerSpeaker_cls-2{fill:#fff}
        </style>
    </defs>
    <g id="그룹_344" transform="translate(-152.828 -346.483)">
        <g id="그룹_343">
            <rect id="사각형_176" width="30" height="30" fill="#ff8b23" rx="10" transform="translate(152.828 346.483)"/>
            <g id="그룹_342">
                <path id="패스_348" d="M163.169 366.2l5.338 4.024a.46.46 0 0 0 .28.1.494.494 0 0 0 .207-.048.468.468 0 0 0 .255-.416v-16.75a.464.464 0 0 0-.742-.371l-5.414 4.084z" class="innerSpeaker_cls-2"/>
                <path id="사각형_177" d="M1.6 0h.248a1.6 1.6 0 0 1 1.6 1.6v5.728a1.594 1.594 0 0 1-1.602 1.594h-.252A1.594 1.594 0 0 1 0 7.328V1.6A1.6 1.6 0 0 1 1.6 0z" class="innerSpeaker_cls-2" transform="translate(158.39 357.022)"/>
                <path id="패스_349" d="M171.5 366.979a.749.749 0 0 1-.578-1.227c3.843-4.652.222-8.134.066-8.279a.75.75 0 0 1 1.025-1.1c.048.046 4.8 4.6.066 10.33a.747.747 0 0 1-.579.276z" class="innerSpeaker_cls-2"/>
                <path id="패스_350" d="M174.29 369.4a.738.738 0 0 1-.466-.163.751.751 0 0 1-.121-1.054c5.622-7.079.293-12.462.063-12.688a.75.75 0 0 1 1.047-1.073c.067.064 6.544 6.536.065 14.7a.747.747 0 0 1-.588.278z" class="innerSpeaker_cls-2"/>
            </g>
        </g>
    </g>
</svg>
