<?xml version="1.0" encoding="utf-8"?>
<!-- Generator: Adobe Illustrator 23.0.6, SVG Export Plug-In . SVG Version: 6.00 Build 0)  -->
<svg version="1.0" id="레이어_1" xmlns="http://www.w3.org/2000/svg" xmlns:xlink="http://www.w3.org/1999/xlink" x="0px"
	 y="0px" width="800px" height="400px" viewBox="0 0 800 400" style="enable-background:new 0 0 800 400;" xml:space="preserve">
<style type="text/css">
	.st0{fill:#D5A7CD;stroke:#1D1D1B;stroke-linecap:round;stroke-linejoin:round;stroke-miterlimit:10;}
	.st1{fill:#BEBCBB;stroke:#1D1D1B;stroke-linecap:round;stroke-linejoin:round;stroke-miterlimit:10;}
	.st2{fill:#A0ACD7;stroke:#1D1D1B;stroke-linecap:round;stroke-linejoin:round;stroke-miterlimit:10;}
	.st3{fill:#A5A09E;stroke:#1D1D1B;stroke-linecap:round;stroke-linejoin:round;stroke-miterlimit:10;}
	.st4{fill:#FFFFFF;stroke:#1D1D1B;stroke-linecap:round;stroke-linejoin:round;stroke-miterlimit:10;}
	.st5{fill:#DCDBDB;stroke:#1D1D1B;stroke-linecap:round;stroke-linejoin:round;stroke-miterlimit:10;}
	.st6{fill:none;stroke:#1D1D1B;stroke-linecap:round;stroke-linejoin:round;stroke-miterlimit:10;}
	.st7{fill:#CBE9FB;stroke:#1D1D1B;stroke-linecap:round;stroke-linejoin:round;stroke-miterlimit:10;}
	.st8{fill:#EBE9E9;stroke:#1D1D1B;stroke-linecap:round;stroke-linejoin:round;stroke-miterlimit:10;}
	.st9{fill:#E3E0DE;stroke:#1D1D1B;stroke-linecap:round;stroke-linejoin:round;stroke-miterlimit:10;}
	.st10{fill:#C6D56F;stroke:#1D1D1B;stroke-linecap:round;stroke-linejoin:round;stroke-miterlimit:10;}
	.st11{fill:#DC1415;stroke:#1D1D1B;stroke-linecap:round;stroke-linejoin:round;stroke-miterlimit:10;}
	.st12{fill:#E66379;stroke:#1D1D1B;stroke-linecap:round;stroke-linejoin:round;stroke-miterlimit:10;}
	.st13{fill:#F29CA3;stroke:#1D1D1B;stroke-linecap:round;stroke-linejoin:round;stroke-miterlimit:10;}
	.st14{fill:#F8FBF2;stroke:#1D1D1B;stroke-linecap:round;stroke-linejoin:round;stroke-miterlimit:10;}
	.st15{fill:#EDEDED;stroke:#1D1D1B;stroke-linecap:round;stroke-linejoin:round;stroke-miterlimit:10;}
	.st16{fill:#D7D4D4;stroke:#1D1D1B;stroke-linecap:round;stroke-linejoin:round;stroke-miterlimit:10;}
	.st17{fill:#F8B87E;stroke:#1D1D1B;stroke-linecap:round;stroke-linejoin:round;stroke-miterlimit:10;}
	.st18{fill:#EF967A;stroke:#1D1D1B;stroke-linecap:round;stroke-linejoin:round;stroke-miterlimit:10;}
	.st19{fill:#1D1D1B;stroke:#1D1D1B;stroke-linecap:round;stroke-linejoin:round;stroke-miterlimit:10;}
	.st20{fill:#F9F5BD;stroke:#1D1D1B;stroke-width:2;stroke-linecap:round;stroke-linejoin:round;stroke-miterlimit:10;}
	.hiddenPath{fill:none;stroke:none;}
	.st24{fill:#F4A386;stroke:#1D1D1B;stroke-linecap:round;stroke-linejoin:round;stroke-miterlimit:10;}
	.st25{fill:#FFE4B8;stroke:#1D1D1B;stroke-linecap:round;stroke-linejoin:round;stroke-miterlimit:10;}
	.st26{fill:#6D8F5C;stroke:#1D1D1B;stroke-linecap:round;stroke-linejoin:round;stroke-miterlimit:10;}
	.st27{fill:#F4B49C;stroke:#1D1D1B;stroke-linecap:round;stroke-linejoin:round;stroke-miterlimit:10;}
	.st28{fill:#E6F1DF;stroke:#1D1D1B;stroke-linecap:round;stroke-linejoin:round;stroke-miterlimit:10;}
	.st29{fill:#AFD39A;stroke:#1D1D1B;stroke-linecap:round;stroke-linejoin:round;stroke-miterlimit:10;}
	.st30{fill:#9185BE;stroke:#1D1D1B;stroke-linecap:round;stroke-linejoin:round;stroke-miterlimit:10;}
	.st31{fill:#FCFDF8;stroke:#1D1D1B;stroke-linecap:round;stroke-linejoin:round;stroke-miterlimit:10;}
	.st32{fill:#F1987B;stroke:#1D1D1B;stroke-linecap:round;stroke-linejoin:round;stroke-miterlimit:10;}
	.st33{fill:#CEBFA9;stroke:#1D1D1B;stroke-linecap:round;stroke-linejoin:round;stroke-miterlimit:10;}
	.st34{fill:#F7B79E;stroke:#1D1D1B;stroke-linecap:round;stroke-linejoin:round;stroke-miterlimit:10;}
	.st35{fill:#D2CBE6;stroke:#1D1D1B;stroke-linecap:round;stroke-linejoin:round;stroke-miterlimit:10;}
	.st36{fill:#6B3A2E;stroke:#1D1D1B;stroke-linecap:round;stroke-linejoin:round;stroke-miterlimit:10;}
	.st37{fill:#F19FC5;stroke:#1D1D1B;stroke-linecap:round;stroke-linejoin:round;stroke-miterlimit:10;}
	.st38{fill:#FDD795;stroke:#1D1D1B;stroke-linecap:round;stroke-linejoin:round;stroke-miterlimit:10;}
	.st39{fill:#DFDFE0;stroke:#1D1D1B;stroke-linecap:round;stroke-linejoin:round;stroke-miterlimit:10;}
	.st40{fill:#FFF15E;stroke:#1D1D1B;stroke-linecap:round;stroke-linejoin:round;stroke-miterlimit:10;}
	.st41{fill:#85ADDD;stroke:#1D1D1B;stroke-linecap:round;stroke-linejoin:round;stroke-miterlimit:10;}
	.st42{fill:#D5C471;stroke:#1D1D1B;stroke-linecap:round;stroke-linejoin:round;stroke-miterlimit:10;}
	.st43{fill:#E0E1E3;stroke:#1D1D1B;stroke-linecap:round;stroke-linejoin:round;stroke-miterlimit:10;}
	.st44{fill:#FCFDF9;stroke:#1D1D1B;stroke-linecap:round;stroke-linejoin:round;stroke-miterlimit:10;}
	.st45{fill:#E96441;stroke:#1D1D1B;stroke-linecap:round;stroke-linejoin:round;stroke-miterlimit:10;}
	.st46{fill:#B5D166;stroke:#1D1D1B;stroke-linecap:round;stroke-linejoin:round;stroke-miterlimit:10;}
	.st47{fill:#B67BA4;stroke:#1D1D1B;stroke-linecap:round;stroke-linejoin:round;stroke-miterlimit:10;}
	.st48{fill:#D3A2C8;stroke:#1D1D1B;stroke-linecap:round;stroke-linejoin:round;stroke-miterlimit:10;}
	.st49{fill:#90D5F6;stroke:#1D1D1B;stroke-linecap:round;stroke-linejoin:round;stroke-miterlimit:10;}
	.st50{fill:#7187B4;stroke:#1D1D1B;stroke-linecap:round;stroke-linejoin:round;stroke-miterlimit:10;}
	.st51{fill:#A6B5DB;stroke:#1D1D1B;stroke-linecap:round;stroke-linejoin:round;stroke-miterlimit:10;}
	.st52{fill:#B77BA4;stroke:#1D1D1B;stroke-linecap:round;stroke-linejoin:round;stroke-miterlimit:10;}
	.st53{fill:#E5B2D3;stroke:#1D1D1B;stroke-linecap:round;stroke-linejoin:round;stroke-miterlimit:10;}
	.st54{fill:#EDE7D3;stroke:#1D1D1B;stroke-linecap:round;stroke-linejoin:round;stroke-miterlimit:10;}
	.st55{fill:#8CAED8;stroke:#1D1D1B;stroke-linecap:round;stroke-linejoin:round;stroke-miterlimit:10;}
	.st56{fill:#85C169;stroke:#1D1D1B;stroke-linecap:round;stroke-linejoin:round;stroke-miterlimit:10;}
	.st57{fill:#96C11E;stroke:#1D1D1B;stroke-linecap:round;stroke-linejoin:round;stroke-miterlimit:10;}
</style>
<g>
	<g>
		<path class="st0" d="M751.8,198.6c0,0,14.4-0.6,14.4,2c0,2.7-14.4,5.5-14.4,5.5V198.6z"/>
		<path class="st0" d="M722.5,197.8c0,0-10,0.7-12.8,4.6C706.8,206.2,725.2,213.6,722.5,197.8z"/>
		<path class="st1" d="M674.8,204.4c-0.8,0.3-1.7,0.7-2.5,1.2c-3.5,2-7.4,5.4-7.5,8.9c0,2,1.2,4.2,4.5,6.1c1.4,0.9,3.3,1.5,5.5,2
			C676.8,218.7,679.4,211.1,674.8,204.4z"/>
		<path class="st2" d="M683.7,165.6l28,11.6l0.2,17.5c0,0-42.7,3.5-48.6-1.2c-5.9-4.6-7.2-19-7.2-19l4.9-1.3c0,0,4,5.7,7.9,4.7
			C672.6,177.1,677.5,166.7,683.7,165.6z"/>
		<path class="st3" d="M664.8,242c0,0,6.4,9.8,27.5,9c21.2-0.8,27.4-6.6,27.4-6.6s-4.8-1.9-6.7-11.2h-42.8
			C670.2,233.2,668.9,241.3,664.8,242z"/>
		<ellipse class="st1" cx="691.6" cy="233.2" rx="21.4" ry="6"/>
		<path class="st4" d="M672.5,239.5c1.1,0,2,0.9,2,2s-0.9,2-2,2s-2-0.9-2-2C670.6,240.3,671.4,239.5,672.5,239.5z"/>
		<circle class="st4" cx="682.5" cy="244.1" r="2"/>
		<path class="st4" d="M693.6,242.4c1.1,0,2,0.9,2,2s-0.9,2-2,2s-2-0.9-2-2C691.6,243.3,692.5,242.4,693.6,242.4z"/>
		<circle class="st4" cx="705.7" cy="243.4" r="2"/>
		<path class="st4" d="M714.9,239.5c0.6,1.2,1.6,1.9,0.4,2.4c-1.2,0.6-2.6,0.2-3.2-1c-0.6-1.2-0.2-2.6,1-3.2
			C714.2,237.1,714.2,238.3,714.9,239.5z"/>
		<path class="st5" d="M683.5,221.9v8.4c0,0,5.4,5,14.4,0v-7.7L683.5,221.9z"/>
		<path class="st0" d="M751.8,192.2c-12.8,11.5-25.7,5.7-30.9,2.4c-0.8,2-1.3,4.1-1.3,6.4c0,3.4,1,6.6,2.8,9.3
			c3.4-4.1,8.6-9,14.6-9.3c7-0.4,12.2,4.9,14.8,8.3c1.6-2.6,2.5-5.5,2.5-8.3C754.4,197.8,753.4,194.8,751.8,192.2z"/>
		<path class="st6" d="M722.7,207.4"/>
		<path class="st1" d="M737,201.1c-6,0.3-11.2,5.2-14.6,9.3c3.1,4.8,8.4,8,14.6,8c6.3,0,11.8-4,14.8-9
			C749.2,205.9,744.1,200.7,737,201.1z"/>
		<path class="st4" d="M735,205.1c0,0-4,2.8-3.7,8.1c0,0,2,1.1,3.7,0.7c0,0,0.1-5.7,2.1-6.1L735,205.1z"/>
		<line class="st6" x1="732.2" y1="209" x2="735.1" y2="210.3"/>
		<path class="st6" d="M723.4,226.6c1.4-0.9,4.9-1.4,6.8-4"/>
		<path class="st6" d="M726.8,228.4c0,0,3-0.4,4.1-2.7"/>
		<path class="st6" d="M768,195.7c0,0,3.9,0.5,1.7,7.5"/>
		<path class="st6" d="M772.4,193.7c0,0,3,2.8,1.3,8.2"/>
		<path class="st7" d="M691.1,163.8c-2.8-0.1-5.2,0.6-7.4,1.8c3.9,4.6,12.3,13.7,18.6,14c4.2,0.2,7.4-1,9.4-2.4
			C710.4,170.7,702,164.1,691.1,163.8z"/>
		<path class="st2" d="M704.4,188.9c0,2.9-6.9,3.7-15.4,3.7s-15.4-0.8-15.4-3.7s6.9-5.3,15.4-5.3S704.4,186,704.4,188.9z"/>
		<path class="st4" d="M703.5,169.6c-0.4-0.3-0.7-0.6-1-1c-0.5-0.6-1.4-0.5-1.9,0c-0.6,0.5-0.5,1.3,0,1.9c0.3,0.4,0.6,0.7,1,1
			c0.6,0.5,1.3,0.6,1.9,0C704,171,704.1,170.1,703.5,169.6z"/>
		<path class="st4" d="M705.7,173c-1.7,0-1.7,2.7,0,2.7S707.4,173,705.7,173z"/>
		<polygon class="st8" points="684.2,196.3 684.7,169.7 697.2,169.7 697.2,195.1 	"/>
		<path class="st6" d="M685,178.5c0,0,6.4,2.7,12.1,0"/>
		<path class="st2" d="M729.7,202.5l-6-1.7c-1.5,4.8-7.9,6.1-11.3,2.4c-1.3-1.3-3.5-3.4-6.2-5.4c-2.2,2.8-6.8,7.6-14,9
			c-10.5,2-17.4-2.4-17.4-2.4c4.5,6.7,2,14.3,0,18.3c13.8,3.5,40.3,2,47.2-0.7C730.2,218.6,729.7,202.5,729.7,202.5z"/>
		<path class="st2" d="M682.6,219.5c-2.1-0.3-2.8-3.1-1.1-4.4c3.1-2.4,8.3-5.3,15.7-4.9c7.8,0.4,12.7,3.5,15.3,5.7
			c1.1,1,0.6,2.8-0.9,3.1C705.7,219.9,693.1,221.2,682.6,219.5z"/>
		<path class="st4" d="M669.7,215.2c0.6-3.5,4.8-6.1,4.8-6.1l-2.2-3.6c-3.5,2-7.4,5.4-7.5,8.9C666.7,215.9,669.7,215.2,669.7,215.2z"
			/>
		<line class="st6" x1="668" y1="209.2" x2="671" y2="212.2"/>
		<ellipse class="st9" cx="690.9" cy="169.7" rx="6.2" ry="2"/>
		<line class="st6" x1="691.6" y1="153.6" x2="691.6" y2="195.6"/>
		<path class="st1" d="M711.8,177.6c0,0-4.9,10.1,0.1,17.2c3.7-1.3,7.3-3.5,7.9-7.3C721,179.6,711.8,177.6,711.8,177.6z"/>
		<path class="st4" d="M715,178.8l-2,3c0,0,4.4,0.3,3.8,5.1h3.2C720.1,186.9,720.4,181.2,715,178.8z"/>
		<line class="st6" x1="716.6" y1="183.4" x2="718.5" y2="182.1"/>
		<path class="st6" d="M642.4,185.6c0,0,7.1-23.8,26.5-25.9c19.4-2.1,22.7,7.9,22.7,7.9s10.3-9.4,23.5-7.7s19.5,9.7,19.9,20.8"/>
		<path class="st0" d="M656.7,198.6c0,0,13.1,0.2,12.7,3.4c-0.3,3.2-13.5,5.4-13.5,5.4L656.7,198.6z"/>
		<path class="st0" d="M628.8,199.7c0,0-14.7,1.2-14.6,5.8c0.1,4.6,17.2,3.6,17.2,3.6L628.8,199.7z"/>
		<path class="st0" d="M731.9,186.2c0,0,0.2-6.6,3.1-6.8c2.9-0.2,3.2,5.7,3.2,5.7L731.9,186.2z"/>
		<path class="st7" d="M751.8,192.2c-3-5-8.5-8.5-14.9-8.5c-7.3,0-13.5,4.6-16.1,10.9C726.2,198,739.1,203.7,751.8,192.2z"/>
		<path class="st4" d="M734.4,188.5c-0.2-0.6-0.9-1.2-1.7-0.9c-1.4,0.6-2.7,1.3-3.9,2.3c-0.6,0.5-0.5,1.4,0,1.9
			c0.6,0.5,1.3,0.5,1.9,0c0.8-0.7,1.7-1.2,2.7-1.6C734.1,190,734.5,189.3,734.4,188.5z"/>
		<path class="st4" d="M726.9,193c-1.7,0-1.7,2.7,0,2.7C728.6,195.7,728.6,193,726.9,193z"/>
		<path class="st7" d="M692.2,206.9c7.2-1.4,11.8-6.1,14-9c-4.8-3.4-11.3-6.5-17.5-5.6c-9.8,1.6-13.8,12.1-13.8,12.1
			S681.8,208.8,692.2,206.9z"/>
		<path class="st4" d="M685.2,196.8c-0.6,0.5-1.3,0.9-2,1.3c-1.4,0.9-0.1,3.3,1.3,2.4c0.6-0.5,1.3-0.9,2-1.3
			C688,198.1,686.6,195.8,685.2,196.8z"/>
		<path class="st4" d="M680.2,201.4c-1.7,0-1.7,2.7,0,2.7C682,204,682,201.4,680.2,201.4z"/>
		<path class="st7" d="M657.8,192.3c-2.5-5.1-7.3-8.6-13.8-8.6c-6.4,0-12,3.4-15.2,8.4C632.8,194.4,642.9,198.5,657.8,192.3z"/>
		<path class="st0" d="M628.8,192.2c-1.7,2.8-2.8,6.1-2.8,9.5c0,9.9,8,17.9,17.9,17.9s15.9-8,15.9-17.9c0-3.5-0.7-6.7-2.1-9.4
			C642.9,198.5,632.8,194.4,628.8,192.2z"/>
		<path class="st0" d="M644.3,189.6c0,0-6.1,12-6.1,16.3s5.1,3.3,5.1,3.3s2.6,0.2,3.6-3.7C648,201.6,647.1,189.3,644.3,189.6z"/>
		<path class="st4" d="M639,189c-0.2-0.6-0.9-1.2-1.7-0.9c-1,0.4-2,0.9-2.8,1.7c-1.3,1.3,0.7,3.1,1.9,1.9c0.5-0.5,0.9-0.9,1.6-1
			C638.8,190.4,639.2,189.8,639,189z"/>
		<path class="st4" d="M642.5,186.3c-0.6,0.2-1.3,0.3-1.9,0.5c-1.7,0.5-0.9,3.1,0.7,2.6c0.6-0.2,1.3-0.3,1.9-0.5
			C645,188.5,644.2,186,642.5,186.3z"/>
	</g>
	<g>
		<g>
			<path class="st10" d="M130,318.2c0,0,3.9,1.3,4.6,2.9c0,0-2,1.9-5.2,1.4C129.4,322.5,127.3,321.4,130,318.2z"/>
			<path class="st11" d="M125.8,316c0,0,1.3-2.7,2.3-2.6c1,0.2,4.3,3.7,4.2,5.3c-0.1,1.6-3.3,2-3.3,2s3.4,1.4,1.2,4
				c-2.1,2.6-6.1,2.2-6.1,2.2l0.9-1.9c0,0-1.9,4.3-4.6,1.9s-4-4-1.6-6.5C121.5,318,125.8,316,125.8,316z"/>
			<path class="st11" d="M120.6,321.1l-4.9-0.9c0,0-1.3-5.1,1.6-5.9c2.9-0.7,4.9-1.2,4.9-1.2s3.3,0,3,3
				C125,319.2,120.6,321.1,120.6,321.1z"/>
			<path class="st11" d="M124.4,316.3l-1.9-0.7l-2.8,2.8c0,0,0.3,4.8,1.4,4.6c1.2-0.2,2.5-1.9,2.5-1.9s-0.5,4.2,3.5,2.4
				c4-1.7,0.1-4.2,0.1-4.2s2.2,0.2,1.8-1.4C128.5,316.4,125.6,313.8,124.4,316.3z"/>
			<path class="st11" d="M124.3,318.3c0,0-0.7-0.6-1.7,0.4c-0.9,1,2,3,3.2,1.8c0,0,0.7-0.3-0.8-1.4"/>
		</g>
		<g>
			<path class="st10" d="M132.4,340.6c0,0,3.9,1.3,4.6,2.9c0,0-2,1.9-5.2,1.4C131.7,344.8,129.7,343.7,132.4,340.6z"/>
			<path class="st11" d="M128.1,338.3c0,0,1.3-2.7,2.3-2.6c1,0.2,4.3,3.7,4.2,5.3s-3.3,2-3.3,2s3.4,1.4,1.2,4
				c-2.1,2.6-6.1,2.2-6.1,2.2l0.9-1.9c0,0-1.9,4.3-4.6,1.9s-4-4-1.6-6.5C123.8,340.4,128.1,338.3,128.1,338.3z"/>
			<path class="st11" d="M123,343.4l-4.9-0.9c0,0-1.3-5.1,1.6-5.9c2.9-0.7,4.9-1.2,4.9-1.2s3.3,0,3,3
				C127.3,341.6,123,343.4,123,343.4z"/>
			<path class="st11" d="M126.8,338.7l-1.9-0.7l-2.8,2.8c0,0,0.3,4.8,1.4,4.6c1.2-0.2,2.5-1.9,2.5-1.9s-0.5,4.2,3.5,2.4
				c4-1.7,0.1-4.2,0.1-4.2s2.2,0.2,1.8-1.4C130.8,338.7,128,336.2,126.8,338.7z"/>
			<path class="st11" d="M126.7,340.6c0,0-0.7-0.6-1.7,0.4c-0.9,1,2,3.1,3.2,1.8c0,0,0.7-0.3-0.8-1.4"/>
		</g>
		<g>
			<path class="st10" d="M106.4,332.9c0,0,3.9,1.3,4.6,2.9c0,0-2,1.9-5.2,1.4C105.7,337.2,103.7,336,106.4,332.9z"/>
			<path class="st11" d="M102.2,330.8c0,0,1.3-2.7,2.3-2.6s4.3,3.7,4.2,5.3c-0.1,1.6-3.3,2-3.3,2s3.4,1.4,1.2,4
				c-2.1,2.6-6.1,2.2-6.1,2.2l0.9-1.9c0,0-1.9,4.3-4.6,1.9s-4-4-1.6-6.5C97.8,332.8,102.2,330.8,102.2,330.8z"/>
			<path class="st11" d="M96.9,335.9L92,335c0,0-1.3-5.1,1.6-5.9s4.9-1.2,4.9-1.2s3.3,0,3,3C101.3,333.9,96.9,335.9,96.9,335.9z"/>
			<path class="st11" d="M100.7,331.1l-1.9-0.7l-2.8,2.8c0,0,0.3,4.8,1.4,4.6c1.2-0.2,2.5-1.9,2.5-1.9s-0.5,4.2,3.5,2.4
				c4-1.7,0.1-4.2,0.1-4.2s2.2,0.2,1.8-1.4C104.9,331.1,102,328.5,100.7,331.1z"/>
			<path class="st11" d="M100.7,333c0,0-0.7-0.6-1.7,0.4s2,3.1,3.2,1.8c0,0,0.7-0.4-0.8-1.4"/>
		</g>
		<g>
			<path class="st10" d="M54.5,345.6c0,0,3.9,1.3,4.6,2.9c0,0-2,1.9-5.2,1.4C53.9,349.9,51.8,348.8,54.5,345.6z"/>
			<path class="st11" d="M50.3,343.4c0,0,1.3-2.7,2.3-2.6s4.3,3.7,4.2,5.3c-0.1,1.6-3.3,2-3.3,2s3.4,1.4,1.2,4
				c-2.1,2.6-6.1,2.2-6.1,2.2l0.9-1.9c0,0-1.9,4.3-4.6,1.9c-2.7-2.4-4-4-1.6-6.5C46,345.5,50.3,343.4,50.3,343.4z"/>
			<path class="st11" d="M45.1,348.5l-4.9-0.9c0,0-1.3-5.1,1.6-5.9c2.9-0.7,4.9-1.2,4.9-1.2s3.3,0,3,3
				C49.5,346.6,45.1,348.5,45.1,348.5z"/>
			<path class="st11" d="M48.9,343.8L47,343l-2.8,2.8c0,0,0.3,4.8,1.4,4.6c1.2-0.2,2.5-1.9,2.5-1.9s-0.5,4.2,3.5,2.4
				c4-1.7,0.1-4.2,0.1-4.2s2.2,0.2,1.8-1.4C53.1,343.8,50.1,341.2,48.9,343.8z"/>
			<path class="st11" d="M48.8,345.7c0,0-0.7-0.6-1.7,0.4c-0.9,1,2,3.1,3.2,1.8c0,0,0.7-0.3-0.8-1.4"/>
		</g>
		<g>
			<path class="st10" d="M78.1,331c0,0,3.9,1.3,4.6,2.9c0,0-2,1.9-5.2,1.4C77.3,335.2,75.4,334.1,78.1,331z"/>
			<path class="st11" d="M73.8,328.8c0,0,1.3-2.7,2.3-2.6c1,0.2,4.3,3.7,4.2,5.3c-0.1,1.6-3.3,2-3.3,2s3.4,1.4,1.2,4
				c-2.1,2.6-6.1,2.2-6.1,2.2l0.9-1.9c0,0-1.9,4.3-4.6,1.9s-4-4-1.6-6.5C69.5,330.8,73.8,328.8,73.8,328.8z"/>
			<path class="st11" d="M68.6,333.9l-4.9-0.9c0,0-1.3-5.1,1.6-5.9c2.9-0.7,4.9-1.2,4.9-1.2s3.3,0,3,3
				C72.9,332,68.6,333.9,68.6,333.9z"/>
			<path class="st11" d="M72.4,329.1l-1.9-0.7l-2.8,2.8c0,0,0.3,4.8,1.4,4.6c1.2-0.2,2.5-1.9,2.5-1.9s-0.5,4.2,3.5,2.4
				c4-1.7,0.1-4.2,0.1-4.2s2.2,0.2,1.8-1.4C76.5,329.1,73.6,326.6,72.4,329.1z"/>
			<path class="st11" d="M72.3,331c0,0-0.7-0.6-1.7,0.4c-0.9,1,2,3.1,3.2,1.8c0,0,0.7-0.4-0.8-1.4"/>
		</g>
		<g>
			<path class="st10" d="M64.9,351.3c0,0,3.9,1.3,4.6,2.9c0,0-2,1.9-5.2,1.4C64.2,355.5,62.2,354.4,64.9,351.3z"/>
			<path class="st11" d="M60.7,349.1c0,0,1.3-2.7,2.3-2.6c1,0.2,4.3,3.7,4.2,5.3c0,1.6-3.3,2-3.3,2s3.4,1.4,1.2,4
				C63,360.4,59,360,59,360l0.9-1.9c0,0-1.9,4.3-4.6,1.9c-2.7-2.4-4-4-1.6-6.5C56.3,351,60.7,349.1,60.7,349.1z"/>
			<path class="st11" d="M55.4,354.1l-4.9-0.9c0,0-1.3-5.1,1.6-5.9c2.9-0.7,4.9-1.2,4.9-1.2s3.3,0,3,3
				C59.8,352.2,55.4,354.1,55.4,354.1z"/>
			<path class="st11" d="M59.2,349.4l-1.9-0.7l-2.8,2.8c0,0,0.3,4.8,1.4,4.6c1.2-0.2,2.5-1.9,2.5-1.9s-0.5,4.2,3.5,2.4
				c4-1.7,0.1-4.2,0.1-4.2s2.2,0.2,1.8-1.4C63.4,349.4,60.5,346.9,59.2,349.4z"/>
			<path class="st11" d="M59.2,351.3c0,0-0.7-0.6-1.7,0.4c-0.9,1,2,3,3.2,1.8c0,0,0.7-0.3-0.8-1.4"/>
		</g>
		<g>
			<path class="st10" d="M47.4,374.4c0,0,3.9,1.3,4.6,2.9c0,0-2,1.9-5.2,1.4C46.8,378.6,44.7,377.5,47.4,374.4z"/>
			<path class="st11" d="M43.2,372.2c0,0,1.3-2.7,2.3-2.6c1,0.2,4.3,3.7,4.2,5.3c0,1.6-3.3,2-3.3,2s3.4,1.4,1.2,4
				c-2.1,2.6-6.1,2.2-6.1,2.2l0.9-1.9c0,0-1.9,4.3-4.6,1.9c-2.7-2.4-4-4-1.6-6.5C38.9,374.2,43.2,372.2,43.2,372.2z"/>
			<path class="st11" d="M38,377.3l-4.9-0.9c0,0-1.3-5.1,1.6-5.9c2.9-0.8,4.9-1.2,4.9-1.2s3.3,0,3,3C42.4,375.3,38,377.3,38,377.3z"
				/>
			<path class="st11" d="M41.8,372.5l-1.9-0.7l-2.8,2.8c0,0,0.3,4.8,1.4,4.6c1.2-0.2,2.5-1.9,2.5-1.9s-0.5,4.2,3.5,2.4
				c4-1.7,0.1-4.2,0.1-4.2s2.2,0.2,1.8-1.4C46,372.5,43,370,41.8,372.5z"/>
			<path class="st11" d="M41.7,374.4c0,0-0.7-0.6-1.7,0.4c-0.9,1,2,3.1,3.2,1.8c0,0,0.7-0.3-0.8-1.4"/>
		</g>
		<g>
			<path class="st10" d="M67.6,381.7c0,0,3.9,1.3,4.6,2.9c0,0-2,1.9-5.2,1.4C67,386,64.9,384.9,67.6,381.7z"/>
			<path class="st12" d="M63.4,379.6c0,0,1.3-2.7,2.3-2.6c1,0.2,4.3,3.7,4.2,5.3c0,1.6-3.3,2-3.3,2s3.4,1.4,1.2,4
				c-2.1,2.6-6.1,2.2-6.1,2.2l0.9-1.9c0,0-1.9,4.3-4.6,1.9s-4-4-1.6-6.5C59,381.5,63.4,379.6,63.4,379.6z"/>
			<path class="st12" d="M58.1,384.6l-4.9-0.9c0,0-1.3-5.1,1.6-5.9c2.9-0.7,4.9-1.2,4.9-1.2s3.3,0,3,3
				C62.5,382.7,58.1,384.6,58.1,384.6z"/>
			<path class="st12" d="M61.9,379.9l-1.9-0.7l-2.8,2.8c0,0,0.3,4.8,1.4,4.6c1.2-0.2,2.5-1.9,2.5-1.9s-0.5,4.2,3.5,2.4
				c4-1.7,0.1-4.2,0.1-4.2s2.2,0.2,1.8-1.4C66.1,379.8,63.2,377.4,61.9,379.9z"/>
			<path class="st12" d="M61.9,381.8c0,0-0.7-0.6-1.7,0.4c-0.9,1,2,3.1,3.2,1.8c0,0,0.7-0.4-0.8-1.4"/>
		</g>
		<g>
			<path class="st10" d="M57.3,361.8c0,0,3.9,1.3,4.6,2.9c0,0-2,1.9-5.2,1.4C56.7,366,54.6,364.9,57.3,361.8z"/>
			<path class="st12" d="M53.1,359.6c0,0,1.3-2.7,2.3-2.6c1,0.2,4.3,3.7,4.2,5.3c-0.1,1.6-3.3,2-3.3,2s3.4,1.4,1.2,4
				c-2.1,2.6-6.1,2.2-6.1,2.2l0.8-1.9c0,0-1.9,4.3-4.6,1.9c-2.7-2.4-4-4-1.6-6.5C48.8,361.6,53.1,359.6,53.1,359.6z"/>
			<path class="st12" d="M47.9,364.7l-4.9-0.9c0,0-1.3-5.1,1.6-5.9c2.9-0.7,4.9-1.2,4.9-1.2s3.3,0,3,3
				C52.3,362.8,47.9,364.7,47.9,364.7z"/>
			<path class="st12" d="M51.7,359.9l-1.9-0.7L47,362c0,0,0.3,4.8,1.4,4.6c1.2-0.2,2.5-1.9,2.5-1.9s-0.5,4.2,3.5,2.4
				c4-1.7,0.1-4.2,0.1-4.2s2.2,0.2,1.8-1.4C55.8,360,52.9,357.4,51.7,359.9z"/>
			<path class="st12" d="M51.6,361.9c0,0-0.7-0.6-1.7,0.4c-0.9,1,2,3,3.2,1.8c0,0,0.7-0.3-0.8-1.4"/>
		</g>
		<g>
			<path class="st10" d="M40.7,359c0,0,3.9,1.3,4.6,2.9c0,0-2,1.9-5.2,1.4C40,363.2,38,362.1,40.7,359z"/>
			<path class="st12" d="M36.5,356.7c0,0,1.3-2.7,2.3-2.6c1,0.2,4.3,3.7,4.2,5.3c0,1.6-3.3,2-3.3,2s3.4,1.4,1.2,4
				c-2.1,2.6-6.1,2.2-6.1,2.2l0.9-1.9c0,0-1.9,4.3-4.6,1.9s-4-4-1.6-6.5C32.2,358.7,36.5,356.7,36.5,356.7z"/>
			<path class="st12" d="M31.3,361.8l-4.9-0.9c0,0-1.3-5.1,1.6-5.9c2.9-0.7,4.9-1.2,4.9-1.2s3.3,0,3,3
				C35.7,359.9,31.3,361.8,31.3,361.8z"/>
			<path class="st12" d="M35.1,357.1l-1.9-0.7l-2.8,2.8c0,0,0.3,4.8,1.4,4.6c1.2-0.2,2.5-1.9,2.5-1.9s-0.5,4.2,3.5,2.4
				c4-1.7,0.1-4.2,0.1-4.2s2.2,0.2,1.8-1.4C39.2,357.1,36.3,354.6,35.1,357.1z"/>
			<path class="st12" d="M35,359c0,0-0.7-0.6-1.7,0.4c-0.9,1,2,3,3.2,1.8c0,0,0.7-0.3-0.8-1.4"/>
		</g>
		<g>
			<path class="st10" d="M65.3,331.9c0,0,3.9,1.3,4.6,2.9c0,0-2,1.9-5.2,1.4C64.7,336.1,62.7,335,65.3,331.9z"/>
			<path class="st12" d="M61.2,329.7c0,0,1.3-2.7,2.3-2.6c1,0.2,4.3,3.7,4.2,5.3c0,1.6-3.3,2-3.3,2s3.4,1.4,1.2,4
				c-2.1,2.6-6.1,2.2-6.1,2.2l0.9-1.9c0,0-1.9,4.3-4.6,1.9c-2.7-2.4-4-4-1.6-6.5C56.8,331.7,61.2,329.7,61.2,329.7z"/>
			<path class="st12" d="M55.9,334.8l-4.9-0.9c0,0-1.3-5.1,1.6-5.9c2.9-0.7,4.9-1.2,4.9-1.2s3.3,0,3,3
				C60.3,332.9,55.9,334.8,55.9,334.8z"/>
			<path class="st12" d="M59.7,330.1l-1.9-0.7l-2.8,2.8c0,0,0.3,4.8,1.4,4.6c1.2-0.2,2.5-1.9,2.5-1.9s-0.5,4.2,3.5,2.4
				c4-1.7,0.1-4.2,0.1-4.2s2.2,0.2,1.8-1.4C63.8,330.1,60.9,327.5,59.7,330.1z"/>
			<path class="st12" d="M59.6,331.9c0,0-0.7-0.6-1.7,0.4c-0.9,1,2,3.1,3.2,1.8c0,0,0.7-0.3-0.8-1.4"/>
		</g>
		<g>
			<path class="st10" d="M106.7,355.5c0,0,3.9,1.3,4.6,2.9c0,0-2,1.9-5.2,1.4C106,359.7,104,358.6,106.7,355.5z"/>
			<path class="st12" d="M102.5,353.3c0,0,1.3-2.7,2.3-2.6c1,0.2,4.3,3.7,4.2,5.3s-3.3,2-3.3,2s3.4,1.4,1.2,4
				c-2.1,2.6-6.1,2.2-6.1,2.2l0.9-1.9c0,0-1.9,4.3-4.6,1.9s-4-4-1.6-6.5C98.1,355.3,102.5,353.3,102.5,353.3z"/>
			<path class="st12" d="M97.3,358.4l-4.9-0.9c0,0-1.3-5.1,1.6-5.9c2.9-0.7,4.9-1.2,4.9-1.2s3.3,0,3,3
				C101.6,356.5,97.3,358.4,97.3,358.4z"/>
			<path class="st12" d="M101.1,353.6l-1.9-0.7l-2.8,2.8c0,0,0.3,4.8,1.4,4.6c1.2-0.2,2.5-1.9,2.5-1.9s-0.5,4.2,3.5,2.4
				c4-1.7,0.1-4.2,0.1-4.2s2.2,0.2,1.8-1.4C105.2,353.7,102.3,351,101.1,353.6z"/>
			<path class="st12" d="M101,355.5c0,0-0.7-0.6-1.7,0.4c-0.9,1,2,3,3.2,1.8c0,0,0.7-0.3-0.8-1.4"/>
		</g>
		<g>
			<path class="st10" d="M111.2,321.5c0,0,3.9,1.3,4.6,2.9c0,0-2,1.9-5.2,1.4C110.5,325.8,108.5,324.7,111.2,321.5z"/>
			<path class="st12" d="M107,319.3c0,0,1.3-2.7,2.3-2.6c1,0.2,4.3,3.7,4.2,5.3c0,1.6-3.3,2-3.3,2s3.4,1.4,1.2,4
				c-2.2,2.6-6.1,2.2-6.1,2.2l0.9-1.9c0,0-1.9,4.3-4.6,1.9s-4-4-1.6-6.5C102.7,321.3,107,319.3,107,319.3z"/>
			<path class="st12" d="M101.7,324.4l-4.9-0.9c0,0-1.3-5.1,1.6-5.9c2.9-0.7,4.9-1.2,4.9-1.2s3.3,0,3,3
				C106.2,322.5,101.7,324.4,101.7,324.4z"/>
			<path class="st12" d="M105.6,319.7l-1.9-0.7l-2.8,2.8c0,0,0.3,4.8,1.4,4.6c1.2-0.2,2.5-1.9,2.5-1.9s-0.5,4.2,3.5,2.4
				c4-1.7,0.1-4.2,0.1-4.2s2.2,0.2,1.8-1.4C109.7,319.6,106.7,317.1,105.6,319.7z"/>
			<path class="st12" d="M105.5,321.6c0,0-0.7-0.6-1.7,0.4s2,3.1,3.2,1.8c0,0,0.7-0.3-0.8-1.4"/>
		</g>
		<g>
			<path class="st10" d="M126.2,326.7c0,0,3.9,1.3,4.6,2.9c0,0-2,1.9-5.2,1.4C125.5,331,123.5,329.9,126.2,326.7z"/>
			<path class="st12" d="M122,324.6c0,0,1.3-2.7,2.3-2.6c1,0.2,4.3,3.7,4.2,5.3c-0.1,1.6-3.3,2-3.3,2s3.4,1.4,1.2,4
				c-2.1,2.6-6.1,2.2-6.1,2.2l0.9-1.9c0,0-1.9,4.3-4.6,1.9s-4-4-1.6-6.5C117.6,326.6,122,324.6,122,324.6z"/>
			<path class="st12" d="M116.7,329.7l-4.9-0.9c0,0-1.3-5.1,1.6-5.9c2.9-0.7,4.9-1.2,4.9-1.2s3.3,0,3,3
				C121.1,327.8,116.7,329.7,116.7,329.7z"/>
			<path class="st12" d="M120.5,324.9l-1.9-0.7l-2.8,2.8c0,0,0.3,4.8,1.4,4.6c1.2-0.2,2.5-1.9,2.5-1.9s-0.5,4.2,3.5,2.4
				c4-1.7,0.1-4.2,0.1-4.2s2.2,0.2,1.8-1.4C124.6,325,121.8,322.3,120.5,324.9z"/>
			<path class="st12" d="M120.5,326.9c0,0-0.7-0.6-1.7,0.4c-0.9,1,2,3.1,3.2,1.8c0,0,0.7-0.3-0.8-1.4"/>
		</g>
		<g>
			<path class="st10" d="M159.6,324.9c0,0,3.9,1.3,4.6,2.9c0,0-2,1.9-5.2,1.4C158.9,329.2,156.9,328,159.6,324.9z"/>
			<path class="st12" d="M155.4,322.7c0,0,1.3-2.7,2.3-2.6c1,0.2,4.3,3.7,4.2,5.3c-0.1,1.6-3.3,2-3.3,2s3.4,1.4,1.2,4
				c-2.1,2.6-6.1,2.2-6.1,2.2l0.9-1.9c0,0-1.9,4.3-4.6,1.9c-2.7-2.4-4-4-1.6-6.5C151,324.7,155.4,322.7,155.4,322.7z"/>
			<path class="st12" d="M150.1,327.8l-4.9-0.9c0,0-1.3-5.1,1.6-5.9c2.9-0.8,4.9-1.2,4.9-1.2s3.3,0,3,3
				C154.4,325.9,150.1,327.8,150.1,327.8z"/>
			<path class="st12" d="M153.9,323l-1.9-0.7l-2.8,2.8c0,0,0.3,4.8,1.4,4.6c1.2-0.2,2.5-1.9,2.5-1.9s-0.5,4.2,3.5,2.4
				c4-1.7,0.1-4.2,0.1-4.2s2.2,0.2,1.8-1.4C158,323.1,155.1,320.5,153.9,323z"/>
			<path class="st12" d="M153.8,325c0,0-0.7-0.6-1.7,0.4c-0.9,1,2,3.1,3.2,1.8c0,0,0.7-0.3-0.8-1.4"/>
		</g>
		<g>
			<path class="st10" d="M92.2,324.5c0,0,3.9,1.3,4.6,2.9c0,0-2,1.9-5.2,1.4C91.5,328.7,89.5,327.6,92.2,324.5z"/>
			<path class="st13" d="M88,322.3c0,0,1.3-2.7,2.3-2.6c1,0.2,4.3,3.7,4.2,5.3s-3.3,2-3.3,2s3.4,1.4,1.2,4c-2.1,2.6-6.1,2.2-6.1,2.2
				l0.9-1.9c0,0-1.9,4.3-4.6,1.9s-4-4-1.6-6.5C83.6,324.3,88,322.3,88,322.3z"/>
			<path class="st13" d="M82.8,327.4l-4.9-0.9c0,0-1.3-5.1,1.6-5.9c2.9-0.7,4.9-1.2,4.9-1.2s3.3,0,3,3
				C87.2,325.4,82.8,327.4,82.8,327.4z"/>
			<path class="st13" d="M86.6,322.6l-1.9-0.7l-2.8,2.8c0,0,0.3,4.8,1.4,4.6c1.2-0.2,2.5-1.9,2.5-1.9s-0.5,4.2,3.5,2.4
				c4-1.7,0.1-4.2,0.1-4.2s2.2,0.2,1.8-1.4C90.7,322.7,87.8,320.1,86.6,322.6z"/>
			<path class="st13" d="M86.5,324.6c0,0-0.7-0.6-1.7,0.4c-0.9,1,2,3.1,3.2,1.8c0,0,0.7-0.3-0.8-1.4"/>
		</g>
		<g>
			<path class="st10" d="M72.2,326.2c0,0,3.9,1.3,4.6,2.9c0,0-2,1.9-5.2,1.4C71.5,330.4,69.5,329.3,72.2,326.2z"/>
			<path class="st13" d="M68,324c0,0,1.3-2.7,2.3-2.6s4.3,3.7,4.2,5.3c0,1.6-3.3,2-3.3,2s3.4,1.4,1.2,4c-2.1,2.6-6.1,2.2-6.1,2.2
				l0.9-1.9c0,0-1.9,4.3-4.6,1.9c-2.7-2.4-4-4-1.6-6.5C63.6,325.9,68,324,68,324z"/>
			<path class="st13" d="M62.7,329.1l-4.9-0.9c0,0-1.3-5.1,1.6-5.9c2.9-0.7,4.9-1.2,4.9-1.2s3.3,0,3,3
				C67,327.2,62.7,329.1,62.7,329.1z"/>
			<path class="st13" d="M66.5,324.3l-1.9-0.7l-2.8,2.8c0,0,0.3,4.8,1.4,4.6c1.2-0.2,2.5-1.9,2.5-1.9s-0.5,4.2,3.5,2.4
				s0.1-4.2,0.1-4.2s2.2,0.2,1.8-1.4C70.6,324.4,67.8,321.8,66.5,324.3z"/>
			<path class="st13" d="M66.5,326.3c0,0-0.7-0.6-1.7,0.4c-0.9,1,2,3,3.2,1.8c0,0,0.7-0.4-0.8-1.4"/>
		</g>
		<g>
			<path class="st10" d="M53.7,333.1c0,0,3.9,1.3,4.6,2.9c0,0-2,1.9-5.2,1.4C53,337.4,51,336.2,53.7,333.1z"/>
			<path class="st13" d="M49.5,331c0,0,1.3-2.7,2.3-2.6c1,0.2,4.3,3.7,4.2,5.3c-0.1,1.6-3.3,2-3.3,2s3.4,1.4,1.2,4
				c-2.1,2.6-6.1,2.2-6.1,2.2l0.9-1.9c0,0-1.9,4.3-4.6,1.9c-2.7-2.4-4-4-1.6-6.5C45.2,333,49.5,331,49.5,331z"/>
			<path class="st13" d="M44.3,336.1l-4.9-0.9c0,0-1.3-5.1,1.6-5.9c2.9-0.7,4.9-1.2,4.9-1.2s3.3,0,3,3S44.3,336.1,44.3,336.1z"/>
			<path class="st13" d="M48.1,331.3l-1.9-0.7l-2.8,2.8c0,0,0.3,4.8,1.4,4.6c1.2-0.2,2.5-1.9,2.5-1.9s-0.5,4.2,3.5,2.4
				c4-1.7,0.1-4.2,0.1-4.2s2.2,0.2,1.8-1.4C52.2,331.4,49.3,328.7,48.1,331.3z"/>
			<path class="st13" d="M48,333.2c0,0-0.7-0.6-1.7,0.4c-0.9,1,2,3.1,3.2,1.9c0,0,0.7-0.3-0.8-1.4"/>
		</g>
		<g>
			<path class="st10" d="M72.4,342c0,0,3.9,1.3,4.6,2.9c0,0-2,1.9-5.2,1.4C71.7,346.2,69.7,345.1,72.4,342z"/>
			<path class="st13" d="M68.1,339.8c0,0,1.3-2.7,2.3-2.6c1,0.2,4.3,3.7,4.2,5.3s-3.3,2-3.3,2s3.4,1.4,1.2,4
				c-2.1,2.6-6.1,2.2-6.1,2.2l0.9-1.9c0,0-1.9,4.3-4.6,1.9c-2.7-2.4-4-4-1.6-6.5C63.8,341.8,68.1,339.8,68.1,339.8z"/>
			<path class="st13" d="M63,344.8l-4.9-0.9c0,0-1.3-5.1,1.6-5.9c2.9-0.7,4.9-1.2,4.9-1.2s3.3,0,3,3C67.3,343,63,344.8,63,344.8z"/>
			<path class="st13" d="M66.8,340.1l-1.9-0.7l-2.8,2.8c0,0,0.3,4.8,1.4,4.6c1.2-0.2,2.5-1.9,2.5-1.9s-0.5,4.2,3.5,2.4
				c4-1.7,0.1-4.2,0.1-4.2s2.2,0.2,1.8-1.4C70.9,340.1,68,337.6,66.8,340.1z"/>
			<path class="st13" d="M66.7,342c0,0-0.7-0.6-1.7,0.4c-0.9,1,2,3,3.2,1.8c0,0,0.7-0.4-0.8-1.4"/>
		</g>
		<g>
			<path class="st10" d="M48.7,350.5c0,0,3.9,1.3,4.6,2.9c0,0-2,1.9-5.2,1.4C48.1,354.7,46,353.6,48.7,350.5z"/>
			<path class="st13" d="M44.5,348.2c0,0,1.3-2.7,2.3-2.6c1,0.2,4.3,3.7,4.2,5.3c-0.1,1.6-3.3,2-3.3,2s3.4,1.4,1.2,4
				c-2.1,2.6-6.1,2.2-6.1,2.2l0.9-1.9c0,0-1.9,4.3-4.6,1.9c-2.7-2.4-4-4-1.6-6.5C40.2,350.2,44.5,348.2,44.5,348.2z"/>
			<path class="st13" d="M39.3,353.3l-4.9-0.9c0,0-1.3-5.1,1.6-5.9c2.9-0.7,4.9-1.2,4.9-1.2s3.3,0,3,3
				C43.6,351.5,39.3,353.3,39.3,353.3z"/>
			<path class="st13" d="M43.1,348.6l-1.9-0.7l-2.8,2.8c0,0,0.3,4.8,1.4,4.6c1.2-0.2,2.5-1.9,2.5-1.9s-0.5,4.2,3.5,2.4
				c4-1.7,0.1-4.2,0.1-4.2s2.2,0.2,1.8-1.4C47.2,348.6,44.3,346.1,43.1,348.6z"/>
			<path class="st13" d="M43,350.5c0,0-0.7-0.6-1.7,0.4c-0.9,1,2,3,3.2,1.8c0,0,0.7-0.3-0.8-1.4"/>
		</g>
		<g>
			<path class="st10" d="M38.8,366.7c0,0,3.9,1.3,4.6,2.9c0,0-2,1.9-5.2,1.4C38.1,370.9,36.1,369.8,38.8,366.7z"/>
			<path class="st13" d="M34.6,364.6c0,0,1.3-2.7,2.3-2.6c1,0.2,4.3,3.7,4.2,5.3c-0.1,1.6-3.3,2-3.3,2s3.4,1.4,1.2,4
				c-2.1,2.6-6.1,2.2-6.1,2.2l0.9-1.9c0,0-1.9,4.3-4.6,1.9s-4-4-1.6-6.5C30.2,366.5,34.6,364.6,34.6,364.6z"/>
			<path class="st13" d="M29.3,369.6l-4.9-0.9c0,0-1.3-5.1,1.6-5.9s4.9-1.2,4.9-1.2s3.3,0,3,3C33.6,367.7,29.3,369.6,29.3,369.6z"/>
			<path class="st13" d="M33.1,364.8l-1.9-0.7l-2.8,2.8c0,0,0.3,4.8,1.4,4.6c1.2-0.2,2.5-1.9,2.5-1.9s-0.5,4.2,3.5,2.4
				c4-1.7,0.1-4.2,0.1-4.2s2.2,0.2,1.8-1.4C37.2,364.9,34.3,362.3,33.1,364.8z"/>
			<path class="st13" d="M33,366.8c0,0-0.7-0.6-1.7,0.4c-0.9,1,2,3.1,3.2,1.8c0,0,0.7-0.3-0.8-1.4"/>
		</g>
		<g>
			<path class="st10" d="M59.6,371.8c0,0,3.9,1.3,4.6,2.9c0,0-2,1.9-5.2,1.4C59,376,56.9,374.9,59.6,371.8z"/>
			<path class="st11" d="M55.4,369.6c0,0,1.3-2.7,2.3-2.6c1,0.2,4.3,3.7,4.2,5.3c-0.1,1.6-3.3,2-3.3,2s3.4,1.4,1.2,4
				c-2.1,2.6-6.1,2.2-6.1,2.2l0.9-1.9c0,0-1.9,4.3-4.6,1.9s-4-4-1.6-6.5C51.1,371.6,55.4,369.6,55.4,369.6z"/>
			<path class="st11" d="M50.2,374.7l-4.9-0.9c0,0-1.3-5.1,1.6-5.9c2.9-0.7,4.9-1.2,4.9-1.2s3.3,0,3,3
				C54.6,372.8,50.2,374.7,50.2,374.7z"/>
			<path class="st11" d="M54,370l-1.9-0.7l-2.8,2.8c0,0,0.3,4.8,1.4,4.6c1.2-0.2,2.5-1.9,2.5-1.9s-0.5,4.2,3.5,2.4
				c4-1.7,0.1-4.2,0.1-4.2s2.2,0.2,1.8-1.4C58.2,369.9,55.2,367.4,54,370z"/>
			<path class="st11" d="M53.9,371.8c0,0-0.7-0.6-1.7,0.4c-0.9,1,2,3.1,3.2,1.8c0,0,0.7-0.4-0.8-1.4"/>
		</g>
		<g>
			<path class="st10" d="M89.2,337.1c0,0,3.9,1.3,4.6,2.9c0,0-2,1.9-5.2,1.4C88.5,341.4,86.5,340.2,89.2,337.1z"/>
			<path class="st13" d="M85,335c0,0,1.3-2.7,2.3-2.6c1,0.2,4.3,3.7,4.2,5.3c-0.1,1.6-3.3,2-3.3,2s3.4,1.4,1.2,4
				c-2.1,2.6-6.1,2.2-6.1,2.2l0.9-1.9c0,0-1.9,4.3-4.6,1.9s-4-4-1.6-6.5C80.6,337,85,335,85,335z"/>
			<path class="st13" d="M79.7,340.1l-4.9-0.9c0,0-1.3-5.1,1.6-5.9c2.9-0.7,4.9-1.2,4.9-1.2s3.3,0,3,3
				C84.1,338.1,79.7,340.1,79.7,340.1z"/>
			<path class="st13" d="M83.5,335.3l-1.9-0.7l-2.8,2.8c0,0,0.3,4.8,1.4,4.6c1.2-0.2,2.5-1.9,2.5-1.9s-0.5,4.2,3.5,2.4
				c4-1.7,0.1-4.2,0.1-4.2s2.2,0.2,1.8-1.4C87.6,335.4,84.7,332.7,83.5,335.3z"/>
			<path class="st13" d="M83.4,337.2c0,0-0.7-0.6-1.7,0.4c-0.9,1,2,3,3.2,1.8c0,0,0.7-0.4-0.8-1.4"/>
		</g>
		<g>
			<path class="st10" d="M94.8,352.5c0,0,3.9,1.3,4.6,2.9c0,0-2,1.9-5.2,1.4C94.1,356.8,92.1,355.6,94.8,352.5z"/>
			<path class="st13" d="M90.6,350.4c0,0,1.3-2.7,2.3-2.6c1,0.2,4.3,3.7,4.2,5.3c-0.1,1.6-3.3,2-3.3,2s3.4,1.4,1.2,4
				c-2.1,2.6-6.1,2.2-6.1,2.2l0.9-1.9c0,0-1.9,4.3-4.6,1.9s-4-4-1.6-6.5C86.2,352.4,90.6,350.4,90.6,350.4z"/>
			<path class="st13" d="M85.4,355.5l-4.9-0.9c0,0-1.3-5.1,1.6-5.9c2.9-0.7,4.9-1.2,4.9-1.2s3.3,0,3,3
				C89.8,353.5,85.4,355.5,85.4,355.5z"/>
			<path class="st13" d="M89.2,350.7l-1.9-0.7l-2.8,2.8c0,0,0.3,4.8,1.4,4.6c1.2-0.2,2.5-1.9,2.5-1.9s-0.5,4.2,3.5,2.4
				c4-1.7,0.1-4.2,0.1-4.2s2.2,0.2,1.8-1.4C93.4,350.7,90.4,348.1,89.2,350.7z"/>
			<path class="st13" d="M89.1,352.6c0,0-0.7-0.6-1.7,0.4c-0.9,1,2,3.1,3.2,1.8c0,0,0.7-0.4-0.8-1.4"/>
		</g>
		<g>
			<path class="st10" d="M79.9,372c0,0,3.9,1.3,4.6,2.9c0,0-2,1.9-5.2,1.4C79.3,376.2,77.2,375.1,79.9,372z"/>
			<path class="st13" d="M75.7,369.8c0,0,1.3-2.7,2.3-2.6c1,0.2,4.3,3.7,4.2,5.3c0,1.6-3.3,2-3.3,2s3.4,1.4,1.2,4
				c-2.1,2.6-6.1,2.2-6.1,2.2l0.9-1.9c0,0-1.9,4.3-4.6,1.9s-4-4-1.6-6.5C71.3,371.8,75.7,369.8,75.7,369.8z"/>
			<path class="st13" d="M70.4,374.9l-4.9-0.9c0,0-1.3-5.1,1.6-5.9c2.9-0.7,4.9-1.2,4.9-1.2s3.3,0,3,3
				C74.8,372.9,70.4,374.9,70.4,374.9z"/>
			<path class="st13" d="M74.2,370.1l-1.9-0.7l-2.8,2.8c0,0,0.3,4.8,1.4,4.6c1.2-0.2,2.5-1.9,2.5-1.9s-0.5,4.2,3.5,2.4
				c4-1.7,0.1-4.2,0.1-4.2s2.2,0.2,1.8-1.4C78.3,370.2,75.4,367.6,74.2,370.1z"/>
			<path class="st13" d="M74.1,372c0,0-0.7-0.6-1.7,0.4c-0.9,1,2,3.1,3.2,1.8c0,0,0.7-0.3-0.8-1.4"/>
		</g>
		<g>
			<path class="st10" d="M94.5,364c0,0,3.9,1.3,4.6,2.9c0,0-2,1.9-5.2,1.4C93.8,368.2,91.8,367.1,94.5,364z"/>
			<path class="st13" d="M90.3,361.9c0,0,1.3-2.7,2.3-2.6c1,0.2,4.3,3.7,4.2,5.3c-0.1,1.6-3.3,2-3.3,2s3.4,1.4,1.2,4
				c-2.1,2.6-6.1,2.2-6.1,2.2l0.9-1.9c0,0-1.9,4.3-4.6,1.9s-4-4-1.6-6.5C85.7,363.8,90.3,361.9,90.3,361.9z"/>
			<path class="st13" d="M85,366.9l-4.9-0.9c0,0-1.3-5.1,1.6-5.9c2.9-0.7,4.9-1.2,4.9-1.2s3.3,0,3,3C89.3,365,85,366.9,85,366.9z"/>
			<path class="st13" d="M88.8,362.1l-1.9-0.7l-2.8,2.8c0,0,0.3,4.8,1.4,4.6c1.2-0.2,2.5-1.9,2.5-1.9s-0.5,4.2,3.5,2.4
				c4-1.7,0.1-4.2,0.1-4.2s2.2,0.2,1.8-1.4C93,362.1,90.1,359.6,88.8,362.1z"/>
			<path class="st13" d="M88.8,364.1c0,0-0.7-0.6-1.7,0.4c-0.9,1,2,3,3.2,1.8c0,0,0.7-0.3-0.8-1.4"/>
		</g>
		<g>
			<path class="st10" d="M110.2,344.1c0,0,3.9,1.3,4.6,2.9c0,0-2,1.9-5.2,1.4C109.5,348.3,107.4,347.2,110.2,344.1z"/>
			<path class="st13" d="M105.9,342c0,0,1.3-2.7,2.3-2.6c1,0.2,4.3,3.7,4.2,5.3c-0.1,1.6-3.3,2-3.3,2s3.4,1.4,1.2,4
				c-2.1,2.6-6.1,2.1-6.1,2.1l0.9-1.9c0,0-1.9,4.3-4.6,1.9s-4-4-1.6-6.5C101.6,343.9,105.9,342,105.9,342z"/>
			<path class="st13" d="M100.7,347l-4.9-0.9c0,0-1.3-5.1,1.6-5.9c2.9-0.7,4.9-1.2,4.9-1.2s3.3,0,3,3
				C105.1,345.1,100.7,347,100.7,347z"/>
			<path class="st13" d="M104.5,342.2l-1.9-0.7l-2.8,2.8c0,0,0.3,4.7,1.4,4.6c1.2-0.2,2.5-1.9,2.5-1.9s-0.5,4.2,3.5,2.4
				c4-1.7,0.1-4.2,0.1-4.2s2.2,0.2,1.8-1.4C108.7,342.2,105.8,339.7,104.5,342.2z"/>
			<path class="st13" d="M104.5,344.2c0,0-0.7-0.6-1.7,0.4c-0.9,1,2,3.1,3.2,1.8c0,0,0.7-0.4-0.8-1.4"/>
		</g>
		<g>
			<path class="st10" d="M128.5,335.7c0,0,3.9,1.3,4.6,2.9c0,0-2,1.9-5.2,1.4C127.8,340,125.8,338.9,128.5,335.7z"/>
			<path class="st13" d="M124.3,333.5c0,0,1.3-2.7,2.3-2.6c1,0.2,4.3,3.7,4.2,5.3c0,1.6-3.3,2-3.3,2s3.4,1.4,1.2,4
				c-2.1,2.6-6.1,2.2-6.1,2.2l0.9-1.9c0,0-1.9,4.3-4.6,1.9s-4-4-1.6-6.5C119.9,335.6,124.3,333.5,124.3,333.5z"/>
			<path class="st13" d="M119,338.6l-4.9-0.9c0,0-1.3-5.1,1.6-5.9c2.9-0.7,4.9-1.2,4.9-1.2s3.3,0,3,3
				C123.3,336.6,119,338.6,119,338.6z"/>
			<path class="st13" d="M122.8,333.9l-1.9-0.7l-2.8,2.8c0,0,0.3,4.8,1.4,4.6c1.2-0.2,2.5-1.9,2.5-1.9s-0.5,4.2,3.5,2.4
				c4-1.7,0.1-4.2,0.1-4.2s2.2,0.2,1.8-1.4S124.1,331.3,122.8,333.9z"/>
			<path class="st13" d="M122.8,335.8c0,0-0.7-0.6-1.7,0.4c-0.9,1,2,3,3.2,1.8c0,0,0.7-0.4-0.8-1.4"/>
		</g>
		<g>
			<path class="st10" d="M151.3,316.3c0,0,3.9,1.3,4.6,2.9c0,0-2,1.9-5.2,1.4C150.6,320.5,148.6,319.4,151.3,316.3z"/>
			<path class="st13" d="M147.1,314.2c0,0,1.3-2.7,2.3-2.6c1,0.2,4.3,3.7,4.2,5.3c0,1.6-3.3,2-3.3,2s3.4,1.4,1.2,4
				c-2.1,2.6-6.1,2.2-6.1,2.2l0.9-1.9c0,0-1.9,4.3-4.6,1.9c-2.7-2.4-4-4-1.6-6.5C142.8,316.1,147.1,314.2,147.1,314.2z"/>
			<path class="st13" d="M141.9,319.3l-4.9-0.9c0,0-1.3-5.1,1.6-5.9c2.9-0.7,4.9-1.2,4.9-1.2s3.3,0,3,3S141.9,319.3,141.9,319.3z"/>
			<path class="st13" d="M145.7,314.5l-1.9-0.7l-2.8,2.8c0,0,0.3,4.8,1.4,4.6c1.2-0.2,2.5-1.9,2.5-1.9s-0.5,4.2,3.5,2.4
				c4-1.7,0.1-4.2,0.1-4.2s2.2,0.2,1.8-1.4C149.8,314.6,146.9,311.9,145.7,314.5z"/>
			<path class="st13" d="M145.6,316.4c0,0-0.7-0.6-1.7,0.4c-0.9,1,2,3.1,3.2,1.8c0,0,0.7-0.4-0.8-1.4"/>
		</g>
		<g>
			<path class="st10" d="M141.1,326.2c0,0,3.9,1.3,4.6,2.9c0,0-2,1.9-5.2,1.4C140.3,330.5,138.4,329.4,141.1,326.2z"/>
			<path class="st13" d="M136.8,324.1c0,0,1.3-2.7,2.3-2.6c1,0.2,4.3,3.7,4.2,5.3c-0.1,1.6-3.3,2-3.3,2s3.4,1.4,1.2,4
				c-2.1,2.6-6.1,2.2-6.1,2.2l0.9-1.9c0,0-1.9,4.3-4.6,1.9c-2.7-2.4-4-4-1.6-6.5C132.5,326,136.8,324.1,136.8,324.1z"/>
			<path class="st13" d="M131.6,329.2l-4.9-0.9c0,0-1.3-5.1,1.6-5.9c2.9-0.8,4.9-1.2,4.9-1.2s3.3,0,3,3
				C136,327.2,131.6,329.2,131.6,329.2z"/>
			<path class="st13" d="M135.4,324.4l-1.9-0.7l-2.8,2.8c0,0,0.3,4.8,1.4,4.6c1.2-0.2,2.5-1.9,2.5-1.9s-0.5,4.2,3.5,2.4
				c4-1.7,0.1-4.2,0.1-4.2s2.2,0.2,1.8-1.4C139.5,324.5,136.6,321.8,135.4,324.4z"/>
			<path class="st13" d="M135.3,326.4c0,0-0.7-0.6-1.7,0.4c-0.9,1,2,3.1,3.2,1.8c0,0,0.7-0.4-0.8-1.4"/>
		</g>
		<g>
			<path class="st10" d="M120.9,346.6c0,0,3.9,1.3,4.6,2.9c0,0-2,1.9-5.2,1.4C120.3,350.9,118.2,349.8,120.9,346.6z"/>
			<path class="st13" d="M116.7,344.4c0,0,1.3-2.7,2.3-2.6c1,0.2,4.3,3.7,4.2,5.3c-0.1,1.6-3.3,2-3.3,2s3.4,1.4,1.2,4
				c-2.1,2.6-6.1,2.2-6.1,2.2l0.9-1.9c0,0-1.9,4.3-4.6,1.9s-4-4-1.6-6.5C112.3,346.4,116.7,344.4,116.7,344.4z"/>
			<path class="st13" d="M111.4,349.5l-4.9-0.9c0,0-1.3-5.1,1.6-5.9c2.9-0.7,4.9-1.2,4.9-1.2s3.3,0,3,3
				C115.9,347.6,111.4,349.5,111.4,349.5z"/>
			<path class="st13" d="M115.3,344.8l-1.9-0.7l-2.8,2.8c0,0,0.3,4.8,1.4,4.6c1.2-0.2,2.5-1.9,2.5-1.9s-0.5,4.2,3.5,2.4
				c4-1.7,0.1-4.2,0.1-4.2s2.2,0.2,1.8-1.4C119.3,344.8,116.5,342.2,115.3,344.8z"/>
			<path class="st13" d="M115.2,346.7c0,0-0.7-0.6-1.7,0.4c-0.9,1,2,3.1,3.2,1.8c0,0,0.7-0.4-0.8-1.4"/>
		</g>
		<g>
			<path class="st10" d="M116.5,331c0,0,3.9,1.3,4.6,2.9c0,0-2,1.9-5.2,1.4C115.8,335.3,113.8,334.2,116.5,331z"/>
			<path class="st13" d="M112.3,328.9c0,0,1.3-2.7,2.3-2.6c1,0.2,4.3,3.7,4.2,5.3c-0.1,1.6-3.3,2-3.3,2s3.4,1.4,1.2,4
				c-2.2,2.6-6.1,2.2-6.1,2.2l0.9-1.9c0,0-1.9,4.3-4.6,1.9s-4-4-1.6-6.5C107.8,330.9,112.3,328.9,112.3,328.9z"/>
			<path class="st13" d="M107,334l-4.9-0.9c0,0-1.3-5.1,1.6-5.9c2.9-0.7,4.9-1.2,4.9-1.2s3.3,0,3,3C111.3,332.1,107,334,107,334z"/>
			<path class="st13" d="M110.8,329.2l-1.9-0.7l-2.8,2.8c0,0,0.3,4.8,1.4,4.6c1.2-0.2,2.5-1.9,2.5-1.9s-0.5,4.2,3.5,2.4
				c4-1.7,0.1-4.2,0.1-4.2s2.2,0.2,1.8-1.4C114.9,329.3,112,326.7,110.8,329.2z"/>
			<path class="st13" d="M110.7,331.2c0,0-0.7-0.6-1.7,0.4c-0.9,1,2,3.1,3.2,1.8c0,0,0.7-0.3-0.8-1.4"/>
		</g>
		<path class="st14" d="M12.7,342.1c0,0-5.3,1.6-4.4,3c1,1.5,4,0.1,4.9,1.3c0.9,1.2,2.1,0.3,2-2.1C15.1,341.8,12.7,342.1,12.7,342.1z
			"/>
		<path class="st14" d="M20.3,341.3c0,0,0.2,4.9-1.5,6.2c-1.7,1.4-1.2-3.4-4.3-4.2C11.5,342.6,20.3,341.3,20.3,341.3z"/>
		<path class="st15" d="M29.9,311.8c-3.7-0.8-6.5,0.3-8.5,2.2c-1.9-1.5-4.5-2.1-8-1.6c0,0-9,2.4-9.3,13c-0.4,10.6,14.3,12.2,18.6,5.8
			c0,0,0.1-0.1,0.2-0.1c1.1,0.2,1.9,0.2,1.9,0.2s10.3-4.6,11.9-6.9C38.4,322,40,313.9,29.9,311.8z"/>
		<path class="st14" d="M6.5,326.2l1.6,5.6c0,0,2.7-0.8,2.8-2.8L6.5,326.2z"/>
		<path class="st16" d="M26.1,322c-0.9-3.4-2.4-6.2-4.6-8c-3.4,3.3-4.6,9.1-4.4,12.3c0.2,3.4,3.7,4.4,5.9,4.8
			C23.8,330.5,27.5,327.6,26.1,322z"/>
		<path class="st17" d="M26.3,331.9c0,0-7.9-1.7-9.3-3.8c-1.4-2.1-7-1.5-9.2,2.9s-1.7,10.8,5.9,12.3c7.5,1.5,12.6-3.2,12.6-3.2
			L26.3,331.9L26.3,331.9z"/>
		<path class="st18" d="M17.2,329c0,0-8.9,3.7-7.4,12.8c0,0,2.9,1.8,5.6,1.7c0,0-2.8-7.2,5-13.4L17.2,329z"/>
		<g>
			<path class="st10" d="M83.2,346.9c0,0,3.9,1.3,4.6,2.9c0,0-2,1.9-5.2,1.4C82.6,351.1,80.5,350,83.2,346.9z"/>
			<path class="st13" d="M79,344.7c0,0,1.3-2.7,2.3-2.6c1,0.2,4.3,3.7,4.2,5.3c0,1.6-3.3,2-3.3,2s3.4,1.4,1.2,4
				c-2.1,2.6-6.1,2.2-6.1,2.2l0.9-1.9c0,0-1.9,4.3-4.6,1.9s-4-4-1.6-6.5C74.7,346.7,79,344.7,79,344.7z"/>
			<path class="st13" d="M73.8,349.8l-4.9-0.9c0,0-1.3-5.1,1.6-5.9c2.9-0.7,4.9-1.2,4.9-1.2s3.3,0,3,3
				C78.2,347.9,73.8,349.8,73.8,349.8z"/>
			<path class="st13" d="M77.6,345l-1.9-0.7l-2.8,2.8c0,0,0.3,4.8,1.4,4.6c1.2-0.2,2.5-1.9,2.5-1.9s-0.5,4.2,3.5,2.4
				c4-1.7,0.1-4.2,0.1-4.2s2.2,0.2,1.8-1.4C81.7,345,78.8,342.5,77.6,345z"/>
			<path class="st13" d="M77.5,346.9c0,0-0.7-0.6-1.7,0.4c-0.9,1,2,3.1,3.2,1.8c0,0,0.7-0.3-0.8-1.4"/>
		</g>
		<g>
			<path class="st10" d="M76.5,356.7c0,0,3.9,1.3,4.6,2.9c0,0-2,1.9-5.2,1.4C75.7,360.9,73.7,359.8,76.5,356.7z"/>
			<path class="st13" d="M72.2,354.5c0,0,1.3-2.7,2.3-2.6c1,0.2,4.3,3.7,4.2,5.3c0,1.6-3.3,2-3.3,2s3.4,1.4,1.2,4
				c-2.1,2.6-6.1,2.2-6.1,2.2l0.9-1.9c0,0-1.9,4.3-4.6,1.9s-4-4-1.6-6.5C67.8,356.5,72.2,354.5,72.2,354.5z"/>
			<path class="st13" d="M67,359.6l-4.9-0.9c0,0-1.3-5.1,1.6-5.9c2.9-0.8,4.9-1.2,4.9-1.2s3.3,0,3,3C71.3,357.7,67,359.6,67,359.6z"
				/>
			<path class="st13" d="M70.8,354.8l-1.9-0.7l-2.8,2.8c0,0,0.3,4.8,1.4,4.6c1.2-0.2,2.5-1.9,2.5-1.9s-0.5,4.2,3.5,2.4
				c4-1.7,0.1-4.2,0.1-4.2s2.2,0.2,1.8-1.4C75,354.8,72,352.3,70.8,354.8z"/>
			<path class="st13" d="M70.7,356.8c0,0-0.7-0.6-1.7,0.4c-0.9,1,2,3,3.2,1.8c0,0,0.7-0.4-0.8-1.4"/>
		</g>
		<g>
			<path class="st10" d="M99.5,342.5c0,0,3.9,1.3,4.6,2.9c0,0-2,1.9-5.2,1.4C98.8,346.8,96.8,345.7,99.5,342.5z"/>
			<path class="st13" d="M95.3,340.4c0,0,1.3-2.7,2.3-2.6c1,0.2,4.3,3.7,4.2,5.3c-0.1,1.6-3.3,2-3.3,2s3.4,1.4,1.2,4
				c-2.1,2.6-6.1,2.2-6.1,2.2l0.9-1.9c0,0-1.9,4.3-4.6,1.9s-4-4-1.6-6.5C90.9,342.4,95.3,340.4,95.3,340.4z"/>
			<path class="st13" d="M90.1,345.5l-4.9-0.9c0,0-1.3-5.1,1.6-5.9c2.9-0.7,4.9-1.2,4.9-1.2s3.3,0,3,3
				C94.4,343.6,90.1,345.5,90.1,345.5z"/>
			<path class="st13" d="M93.9,340.7L92,340l-2.8,2.8c0,0,0.3,4.8,1.4,4.6c1.2-0.2,2.5-1.9,2.5-1.9s-0.5,4.2,3.5,2.4
				c4-1.7,0.1-4.2,0.1-4.2s2.2,0.2,1.8-1.4C98.1,340.7,95.1,338.1,93.9,340.7z"/>
			<path class="st13" d="M93.8,342.6c0,0-0.7-0.6-1.7,0.4c-0.9,1,2,3.1,3.2,1.8c0,0,0.7-0.3-0.8-1.4"/>
		</g>
		<g>
			<path class="st10" d="M117.5,337.6c0,0,3.9,1.3,4.6,2.9c0,0-2,1.9-5.2,1.4C116.9,341.9,114.8,340.7,117.5,337.6z"/>
			<path class="st13" d="M113.3,335.5c0,0,1.3-2.7,2.3-2.6c1,0.2,4.3,3.7,4.2,5.3c0,1.6-3.3,2-3.3,2s3.4,1.4,1.2,4
				c-2.2,2.6-6.1,2.2-6.1,2.2l0.9-1.9c0,0-1.9,4.3-4.6,1.9s-4-4-1.6-6.5C109,337.4,113.3,335.5,113.3,335.5z"/>
			<path class="st13" d="M108.1,340.6l-4.9-0.9c0,0-1.3-5.1,1.6-5.9c2.9-0.7,4.9-1.2,4.9-1.2s3.3,0,3,3
				C112.5,338.6,108.1,340.6,108.1,340.6z"/>
			<path class="st13" d="M111.9,335.8l-1.9-0.7l-2.8,2.8c0,0,0.3,4.8,1.4,4.6c1.2-0.2,2.5-1.9,2.5-1.9s-0.5,4.2,3.5,2.4
				c4-1.7,0.1-4.2,0.1-4.2s2.2,0.2,1.8-1.4C116,335.8,113.1,333.2,111.9,335.8z"/>
			<path class="st13" d="M111.8,337.7c0,0-0.7-0.6-1.7,0.4s2,3.1,3.2,1.8c0,0,0.7-0.4-0.8-1.4"/>
		</g>
		<g>
			<path class="st10" d="M148.7,334.5c0,0,3.9,1.3,4.6,2.9c0,0-2,1.9-5.2,1.4C148.1,338.8,146,337.7,148.7,334.5z"/>
			<path class="st13" d="M144.5,332.4c0,0,1.3-2.7,2.3-2.6s4.3,3.7,4.2,5.3c0,1.6-3.3,2-3.3,2s3.4,1.4,1.2,4
				c-2.1,2.6-6.1,2.2-6.1,2.2l0.9-1.9c0,0-1.9,4.3-4.6,1.9c-2.7-2.4-4-4-1.6-6.5C140.1,334.4,144.5,332.4,144.5,332.4z"/>
			<path class="st13" d="M139.2,337.5l-4.9-0.9c0,0-1.3-5.1,1.6-5.9c2.9-0.7,4.9-1.2,4.9-1.2s3.3,0,3,3
				C143.7,335.5,139.2,337.5,139.2,337.5z"/>
			<path class="st13" d="M143,332.7l-1.9-0.7l-2.8,2.8c0,0,0.3,4.8,1.4,4.6c1.2-0.2,2.5-1.9,2.5-1.9s-0.5,4.2,3.5,2.4
				c4-1.7,0.1-4.2,0.1-4.2s2.2,0.2,1.8-1.4C147.1,332.8,144.3,330.2,143,332.7z"/>
			<path class="st13" d="M143,334.7c0,0-0.7-0.6-1.7,0.4c-0.9,1,2,3,3.2,1.8c0,0,0.7-0.3-0.8-1.4"/>
		</g>
		<path class="st17" d="M29.8,324.4c0,0-0.7-5,2-8.2s5.6-5.8,7-3.3c1.5,2.5-5.6,5.2-5.5,10.1c0,0,3.8-1.1,8.3,0.6
			c0,0,7.4-10.7,12-7.2s-7.3,6-8.6,9.7c0,0,8.7,10.1-2.4,18.9c-11.1,8.9-23.1-2-21.7-9.4C22.5,328.3,29.8,324.4,29.8,324.4z"/>
		<path class="st6" d="M33.5,342.5c0,0-0.7,4,4,5.4"/>
		<line class="st6" x1="42.9" y1="327.4" x2="45.1" y2="326.1"/>
		<line class="st6" x1="39.2" y1="326" x2="38.6" y2="322.8"/>
		
			<ellipse transform="matrix(0.2503 -0.9682 0.9682 0.2503 -297.5436 283.3468)" class="st14" cx="34.2" cy="333.8" rx="6" ry="4.7"/>
		
			<ellipse transform="matrix(0.2561 -0.9666 0.9666 0.2561 -297.4417 283.8749)" class="st19" cx="35.7" cy="335.2" rx="3.1" ry="2.6"/>
		<ellipse transform="matrix(0.25 -0.9682 0.9682 0.25 -291.0651 292.8551)" class="st14" cx="43.5" cy="334.3" rx="5.5" ry="4.1"/>
		
			<ellipse transform="matrix(0.2562 -0.9666 0.9666 0.2562 -291.1225 292.6262)" class="st19" cx="44.6" cy="335.5" rx="3.1" ry="2.6"/>
		<g>
			<path class="st10" d="M66.7,364.5c0,0,3.9,1.3,4.6,2.9c0,0-2,1.9-5.2,1.4C66.1,368.8,64,367.7,66.7,364.5z"/>
			<path class="st13" d="M62.5,362.4c0,0,1.3-2.7,2.3-2.6c1,0.2,4.3,3.7,4.2,5.3c0,1.6-3.3,2-3.3,2s3.4,1.4,1.2,4
				c-2.1,2.6-6.1,2.2-6.1,2.2l0.9-1.9c0,0-1.9,4.3-4.6,1.9c-2.7-2.4-4-4-1.6-6.5C58.1,364.3,62.5,362.4,62.5,362.4z"/>
			<path class="st13" d="M57.2,367.4l-4.9-0.9c0,0-1.3-5.1,1.6-5.9c2.9-0.7,4.9-1.2,4.9-1.2s3.3,0,3,3
				C61.7,365.5,57.2,367.4,57.2,367.4z"/>
			<path class="st13" d="M61,362.6l-1.9-0.7l-2.8,2.8c0,0,0.3,4.7,1.4,4.6c1.2-0.2,2.5-1.9,2.5-1.9s-0.5,4.2,3.5,2.4
				c4-1.7,0.1-4.2,0.1-4.2s2.2,0.2,1.8-1.4C65.2,362.6,62.2,360.1,61,362.6z"/>
			<path class="st13" d="M60.9,364.6c0,0-0.7-0.6-1.7,0.4c-0.9,1,2,3.1,3.2,1.8c0,0,0.7-0.4-0.8-1.4"/>
		</g>
		<g>
			<path class="st10" d="M52.9,380.8c0,0,3.9,1.3,4.6,2.9c0,0-2,1.9-5.2,1.4C52.2,385,50.2,383.9,52.9,380.8z"/>
			<path class="st13" d="M48.7,378.6c0,0,1.3-2.7,2.3-2.6c1,0.2,4.3,3.7,4.2,5.3c-0.1,1.6-3.3,2-3.3,2s3.4,1.4,1.2,4
				c-2.1,2.6-6.1,2.2-6.1,2.2l0.9-1.9c0,0-1.9,4.3-4.6,1.9c-2.7-2.4-4-4-1.6-6.5C44.3,380.6,48.7,378.6,48.7,378.6z"/>
			<path class="st13" d="M43.4,383.7l-4.9-0.9c0,0-1.3-5.1,1.6-5.9c2.9-0.7,4.9-1.2,4.9-1.2s3.3,0,3,3
				C47.7,381.8,43.4,383.7,43.4,383.7z"/>
			<path class="st13" d="M47.2,378.9l-1.9-0.7l-2.8,2.8c0,0,0.3,4.8,1.4,4.6c1.2-0.2,2.5-1.9,2.5-1.9s-0.5,4.2,3.5,2.4
				c4-1.7,0.1-4.2,0.1-4.2s2.2,0.2,1.8-1.4C51.3,379,48.5,376.4,47.2,378.9z"/>
			<path class="st13" d="M47.1,380.9c0,0-0.7-0.6-1.7,0.4c-0.9,1,2,3.1,3.2,1.8c0,0,0.7-0.3-0.8-1.4"/>
		</g>
	</g>
	<g>
		<path class="st20" d="M612.5,393c-24.9-19.7-60.3-47.8-68.5-54.5c-15.7-12.7-32.5-24.9-78-21.4c-43.7,3.3-109.3,68.7-150.3,25.7
			c0,0,48.7,3,48.3-54c0,0,14-42,81.3-40c61,1.8,92.3-0.9,120.5-25c40.4-34.5,26.3-87-10.8-107.9c44.7-47.4,102.9-13.1,126.3-5.1
			l3.4-36.1c0,0-109.7-66.7-185,37.6c-12.8,17.7-53.3,47-96.2,47s-50.8-29.6-17-42.4c21.8-8.3,47.8-11.2,75.5-11.5
			c67,0.9,68-49.7,56-72C498-5.3,431.3,0,395.3,21C301,67.7,222.7,62,211,62.3c0,0-24.5-24.9-100.7-26.4C63,38,46.8,55.7,44.7,69.4
			c-0.7,5.8-9.5,42.3,65.8,48c0,0,90.4,7,103.8-19.4c65.7,3.7,101.7-5.8,147.3-20.3C417,60,455.7,31,474,45.7c6.8,5.5,8.3,22-20,22
			c-33.7,0.3-121.3,9.3-132,65c0,0-5.7,18-37.8,10.7c-12.7-2.8-29.3-6.7-52.6-13c-59-16.1-126.7-4.3-133.9,35.8
			c-2.3,16.8,2.6,26.8,10.6,29.8c-58-8-84.7,21.5-81.3,55.3c4.8,47.3,88.8,64.3,155.5,40.1c39.7-14.4,111.8-33.5,130.2-12.3
			c12.3,16.3-7.3,37.3-38.3,29.6c-72.5-13.1-125.5,32.4-151.1,88.6l57.9-1.7c0,0,12.2-44.8,85.3-51.9c43.3,78.5,137.8,42.3,178.5,19
			c38-21.8,63,2.3,78.2,30.7L612.5,393z M543.8,189.2c-20.1,25.5-56.9,23.1-104.3,22.3c-73.3-1.3-92.8,44.8-92.8,44.8
			c-54.8-53.8-162.4-1.5-199.1,5.5c-24.3,4.7-80.3,6.3-77.3-16.3c1.5-11.4,26.1-22.5,59.7-13.9C202.3,250,256.3,219,256.3,219
			l-17.7-36.3c-32.7,10.3-50.9,14.4-73.9,9.7c-9.3-1.9-29.3-8.2-21.1-21.7c10.7-14,54-10,93-1c17.8,4.3,78,27.3,96.2,1.4
			c16.4,22.5,56.9,30.5,79.4,29.8c62.6-2,106.5-45,115.4-60.5C540.7,146.4,560.5,167.9,543.8,189.2z"/>
	</g>
	<g>
		<path class="st24" d="M546.1,290.6c0,0-1.9,32.4-1,64.2c0,0,0.4,9.2,11.7,10.2s15.4-1.1,16.5-7.2c1.2-6.1-1.5-60.7,1.9-66.5
			L546.1,290.6z"/>
		<path class="st25" d="M581,359.3c0,0,2.8,5.4,0.7,14.3c0,0,4.7,9.2,12.4,2.6c0,0,8.6,4.9,10.8-0.2l0.5-16.1L581,359.3z"/>
		<path class="st26" d="M537,309.6c0,0,7.9,2.9,7.9,15.3s-0.7,16.6-0.7,16.6s4.6,1.7,5.7,1.1c1.1-0.6,1.4-21.9,0.8-24.6
			C550,315.2,545.2,309,537,309.6z"/>
		<path class="st27" d="M559.2,286.3c0,0-12.3-0.3-13.2,4.4s16.6,2.8,16.6,2.8s12-0.3,12.6-2.2C575.8,289.4,570.7,284.2,559.2,286.3z
			"/>
		<path class="st28" d="M551.3,281.9v6.4c0,0,0.7,2.1,3.8,2.3c3.2,0.1,15,0,15,0l-2.7-7.9L551.3,281.9z"/>
		<path class="st6" d="M560.1,293.7c0,0-4.5,63.4-3.2,71.4"/>
		<line class="st6" x1="565.7" y1="293.3" x2="563.5" y2="365"/>
		<line class="st6" x1="551.8" y1="293.7" x2="550.1" y2="362.9"/>
		<path class="st6" d="M544.9,311c0,0,15.3,8.9,28.6,2.1"/>
		<path class="st6" d="M544.9,341.4c0,0,17.6,5.2,28.6,0"/>
		<path class="st29" d="M504.8,303.3l48.9-3.3v42.5h-3.9c0,0,0.5-27.9-7.3-30.4s-27.4,1.2-27.4,1.2s-10.4,0.4-12,9.5
			C503.1,322.9,498.4,308.7,504.8,303.3z"/>
		<path class="st30" d="M503.1,296.6h4.8v3.4h5v-3.4h6.2v2.6l5.3-0.5v-3.4h5.2l0.4,2.5h5.9l1-3.3l5.1-0.8l0.8,3.7l5.1-0.6v-3.1l6.6,1
			l-0.5,5.2l-48.9,3.3C504.8,303.3,502.9,300.7,503.1,296.6z"/>
		<path class="st31" d="M513.1,305.8c1,0,1.9,0.7,1.9,1.6s-0.9,1.6-1.9,1.6s-1.9-0.7-1.9-1.6S512.1,305.8,513.1,305.8z"/>
		<circle class="st31" cx="527.5" cy="306.8" r="1.9"/>
		<circle class="st31" cx="541.5" cy="306.6" r="1.7"/>
		<path class="st6" d="M593.2,357.2"/>
		<path class="st32" d="M594.3,376.2c0,0-11.8-0.5-14.2-2.3l-10.9,8c0,0-1.7,3.1,2.6,3.6c4.4,0.5,17.5-0.2,17.5-0.2s4.2-0.3,4.9-2.7
			C595,380.2,594.3,376.2,594.3,376.2z"/>
		<path class="st32" d="M594.4,374.7c0,0,6.9,2.4,10.5-0.7l5.1,1.9c0,0,8.6,4,8.5,7.2c0,3.2-13.2,1.8-13.2,1.8s-9.7,0.3-10.8-2.6
			C593.5,379.5,594.4,374.7,594.4,374.7z"/>
		<path class="st32" d="M601.2,375.2c0,0,1.9-3.2,6.1-2.4l2.7,3l-5.8,3.2C604.3,379,601.4,378.2,601.2,375.2z"/>
		<path class="st32" d="M577.4,375.5c0,0,0.8-3.5,3.6-4c0,0,5.3,1,6.8,4.6l-2.5,3.2L577.4,375.5z"/>
		<line class="st6" x1="593.4" y1="358.7" x2="594.2" y2="375.5"/>
		<polygon class="st33" points="569.6,320.9 564.6,334.5 569.2,333 572.1,322 	"/>
		<path class="st34" d="M476.7,296.9v77c0,0,6,11.5,24.8,0c0,0,4.7-59.1,3.4-77.3L476.7,296.9z"/>
		<path class="st6" d="M476.6,321.8c0,0.2,7,7.5,28.2-1"/>
		<path class="st6" d="M476.7,350.8c0,0,10.8,8.7,26.5,0"/>
		<path class="st6" d="M497.8,302.3c0,0-2.8,66.8-2.6,74.8"/>
		<path class="st6" d="M490.5,302.3c0,0-2.8,56.4-2.6,76.7"/>
		<line class="st6" x1="482.4" y1="301.5" x2="480.9" y2="377.7"/>
		<path class="st35" d="M561,248.7c0,0-2.8,3.1-5.5,4.5c-2.6,1.5-10.9,7.1-12.3,18.5c-1.4,11.4,13.5,14.8,17.7,14.8
			c9.4,0,21.7-12.8,14.3-24.7C569.5,252.4,565.2,256.3,561,248.7z"/>
		<path class="st6" d="M543.9,268.6c0,0,11.7,7.5,33.7,1.3"/>
		<path class="st6" d="M551.8,255.8c0,0,5.9,4.1,17.7-0.2"/>
		<path class="st6" d="M546.7,261.8c0,0,14.9,6.2,28.7,0"/>
		<path class="st36" d="M625.9,270.4l6.3,3.1c0,0,6.2-16.5-2.3-24.9s-19.6-3.1-19.6-3.1s-12.1-3.3-20,3.1c-7.9,6.4-8.8,12-8.8,12
			s-2.9-1.9-8,1.9s-2,9.8-2,9.8s-6.6,1.5-7.1,7.6s1.5,14.6,9.1,13.4c0,0-0.1,3.5,6.6,3.3C586.9,296.4,625.9,270.4,625.9,270.4z"/>
		<path class="st6" d="M582,269.8c0,0-1.8-6.1-0.6-9.2"/>
		<path class="st6" d="M609.4,250.3c0,0,4.8,4.9,4.4,13.7"/>
		<path class="st6" d="M618.4,250.3c0,0,6.8,7.4,5.4,14.9"/>
		<path class="st6" d="M543.8,276.7c0,0,4.8,4.5,20.5,3.3"/>
		<path class="st37" d="M594.9,292.8c0,0-13.5-0.6-15.8,1.5c-2.2,2.1-9.8,10.5-9.8,10.5l12.2,8.5c0,0-2.8,14.7-6.2,21.7
			s-7.4,25.2-7.4,25.2l25,2.7c0,0,24.4,3.3,35.2-4.2c0,0-13.1-24.8-9.6-45.4c0,0,11-12.6,13.1-13.3c0,0-2.1-7.2-11.2-6.7
			C611.5,293.8,594.9,292.8,594.9,292.8z"/>
		<path class="st38" d="M591.7,296.6c0,0,4.8,8.5,8.5,10.2c0,0,4.4-1.5,9.2-8.8C614.2,290.6,591.7,296.6,591.7,296.6z"/>
		<path class="st25" d="M617.1,307.7c0,0-13.6,6.4-14.3,10.5c-0.8,4,5.1,4.8,5.1,4.8s-0.5,2.5,2.8,1.8s2.9-5.2,2.9-5.2
			s3.1-1.8,3.6-4.5c0,0,4.1,1.2,9.3-2.4c5.2-3.7,8.5-9.8,3-12.2C624,298.2,620,307.2,617.1,307.7z"/>
		<line class="st6" x1="616.2" y1="302.5" x2="618.7" y2="306.8"/>
		<line class="st6" x1="584.3" y1="306.1" x2="580.9" y2="311.8"/>
		<path class="st39" d="M614.5,310.8c0,0,2,3.5,1.7,6.5c0,0,3.3,0.2,3.7-1.6c0,0-0.5-5.1-2.7-6S614.5,310.8,614.5,310.8z"/>
		<path class="st33" d="M585.7,292.7c0,0,6.5,19-3.1,43c0,0,1.1,1.2,2.7,0c0,0,9.5-14.3,3.2-42.4L585.7,292.7z"/>
		<path class="st40" d="M563.5,338.2c0,0-7.8,12-3.4,16.7l18.7,2.7v-20.5L563.5,338.2z"/>
		<path class="st41" d="M571.1,344c-0.2,1.4-1.8,2.3-3.6,2.1c-1.8-0.2-3.1-1.6-2.9-2.9c0.2-1.3,1.7-1.6,3.5-1.4
			C569.9,342,571.3,342.6,571.1,344z"/>
		<path class="st42" d="M575.7,340l0.2,17.2c0,0,4.5,1.7,8.9-0.8c4.5-2.5,3-20.5,1.4-21.9C584.6,333.1,575.6,332.5,575.7,340z"/>
		<path class="st41" d="M585.3,335.7c0,0,0.5,5-1.6,5.3s-3.8-1.7-1.1-5.3C585.3,332.2,585.3,335.7,585.3,335.7z"/>
		<path class="st40" d="M562,337.7c0,0-0.8,2.5,3,3.1s10.3,1.8,10.3,1.8s2.5,0.7,3.1-2s3.5-5.8,6.1-6.1c2.7-0.2-3.2-4.6-8.9-4.5
			C570,330.1,566.6,328.7,562,337.7z"/>
		<path class="st25" d="M571.8,306.6c0,0-7.9,11.7-3.8,15.6c4,3.8,12.3-0.9,12.3-0.9s5.4,3.1,8.6,0.9c3.2-2.2,1.4-7,1.4-7
			s5.7,0.3,6.1-2.6c0.4-2.8-10-3.6-18.8-2L571.8,306.6z"/>
		<line class="st6" x1="574.6" y1="311.4" x2="577.6" y2="310.6"/>
		<path class="st43" d="M611.6,311.8c0,0,4.8,1.4,8.5-2.4l-0.6-3.3l-8.4,2.5L611.6,311.8z"/>
		<path class="st44" d="M619.5,306.1c0.3,1.3-1,3-3.6,3.7s-4.5,0.1-4.8-1.2c-0.3-1.3,1-2.8,3.6-3.5S619.1,304.8,619.5,306.1z"/>
		<path class="st25" d="M585.7,278.3c0,0,10.6-7.1,9.4-15.4l7.3,3.5c0,0,14.2-0.9,23.5,4.1l-3.8,10.9c0,0,4.8,16-9.4,20.2
			c-14.2,4.1-27.1-5.1-28.5-12.5c0,0-6.2-1.1-6.6-6.3C577.2,277.5,581.3,274,585.7,278.3z"/>
		<path class="st6" d="M596.4,275.6c0,0,1.8-3.1,5.7-2.4c3.8,0.7,3.8,4,3.8,4"/>
		<path class="st6" d="M617.5,278.3c0,0,1.5-2.6,4.3-2.4c2.7,0.2,3.1,3,3.1,3"/>
		<path class="st6" d="M613.4,287.1c0,0,5.4,3.9,0.4,6.2"/>
		<ellipse transform="matrix(0.12 -0.9928 0.9928 0.12 248.4789 842.9386)" class="st6" cx="599.7" cy="281.3" rx="1.4" ry="0.7"/>
		<ellipse transform="matrix(0.1207 -0.9927 0.9927 0.1207 264.4341 862.3665)" class="st6" cx="619" cy="281.9" rx="1.4" ry="0.7"/>
		<path class="st45" d="M611.1,300c0,0-0.9-1.6-0.7-2.7s-3.5,0.5-3.5,2.2C606.8,301.4,611.1,300,611.1,300z"/>
		<polyline class="st6" points="616.2,306.1 614,307.9 617.1,307.7 	"/>
		<path class="st27" d="M491.1,292.8c0,0-13.8,0.1-14.5,4.1s9,5.8,13.8,5.3c4.8-0.4,14.6-1.3,14.4-5.6
			C504.5,292.3,491.1,292.8,491.1,292.8z"/>
		<path class="st28" d="M483.2,289v6.9c0,0,5.9,4.6,15.9,0V289H483.2z"/>
		<path class="st35" d="M490.9,254.3c0,0-2,4.8-9,8.3c-8.7,4.3-19.2,28.3,7.7,30.2c26.9,1.9,17.9-26.3,11.9-30.6
			S490.9,254.3,490.9,254.3z"/>
		<path class="st6" d="M483.2,261.8c0,0,3.4,4.7,18.3,0.3"/>
		<path class="st6" d="M475.5,269c0,0,10,6.7,30-1.1"/>
		<path class="st6" d="M472.6,276.7c0,0,12.3,10.6,35,0.1"/>
		<path class="st6" d="M473.6,284.8c0,0,17.2,7.6,33.1,0.5"/>
	</g>
	<g>
		<path class="st46" d="M668.7,79.4c0.5,0.1-3.2-1.6-1.9-5.2c1.3-3.7,4.4,0,4.4,0s-4.6-6.9-1.7-8c2.9-1.1,3.4,1.7,3.4,1.7
			s0.6-6.7,3.9-6.5c3.4,0.2,2.4,3.8,2.4,3.8s4.7-5,5.8-2.7c1.3,2.4-2.3,6.3-2.3,6.3s5-3.6,5,1.6c0,0,0.7-5.1,4-1.6c0,0-0.6-4.4,1-5
			s2.1,2.1,2.1,2.1s0.8-3.3,3.1-3.2s2,5.1,2,5.1s2.9,0.1,2.9,1.7s5.8,4.9,9,4.3s-41.9,28-41.9,28s-5.1,2.8-5.8-2.1
			c0,0-0.7,4.1-3.1,2.9c-2.4-1.2-2.2-3.3-2.2-3.3s-4.3,1.6-4.2-1s4.3-2.4,4.3-2.4s-4.1-1.2-3.3-3.9c0.8-2.6,3.3-1.3,3.3-1.3
			s-6.4-2.8-4.7-7.4s4.8-0.6,4.8-0.6s0.6-4.4,2.7-3.9c2.1,0.6,1.7,3.4,1.7,3.4S665.6,78.7,668.7,79.4z"/>
		<path class="st46" d="M755.4,79.6c0,0-1.1-4.2,0-6s3.2,0,3.2,0s0.2-6.9,2.8-6.9s1.9,2.7,1.9,2.7s1.9-4.8,4.8-2.7
			c2.9,2.1,0,4.9,0,4.9s2.3-3.5,4.5-0.6c0,0,2-4.7,5.2-4.3c3.2,0.4,1,4.4,1,4.4s3.4-3.2,5.3-1c1.9,2.3-2.4,4.9-2.4,4.9s5,0.6,0.9,4.6
			c0,0,4.2-1.3,2.4,4.5c0,0,3.5-4.7,5.7-2.1c2.1,2.5-1.6,5.8-1.6,5.8s3.7-2.4,4.8,0s-3.2,5.6-3.2,5.6s3.1-1.8,3.5,0s-3.7,4.8-3.7,4.8
			s3.4,0.8,1.1,3.1c0,0,0.1,3.2-2.4,4.4c-2.5,1.3-5.2-0.8-5.2-0.8s-2.7,5-5,3.1C776.8,106,755.4,79.6,755.4,79.6z"/>
		<path class="st47" d="M671.4,97.1c0,0-0.8,8.4,2.4,16.6c0,0,61.2,26.2,105.5-5.8l0.7-13.2L671.4,97.1z"/>
		<path class="st48" d="M676.7,107.2c-6.4-4.7-7.3-14-2-19.8c5.4-6.1,16.3-12.8,38.3-13.2c40.6-0.8,63.5,10.5,66.1,16.3
			c2.5,5.8,1.7,25.5-57.2,25.9C721.9,116.5,691.3,117.8,676.7,107.2z"/>
		<path class="st49" d="M680.3,102.1c-2.8-2.4-3.2-6.5-0.9-9.5c4.7-6.1,16-16.1,40-14.9c34.1,1.7,51.1,11.7,51.5,16.9
			c0.5,5.3-9.9,17.3-50.4,17C696,111.6,685.1,106.2,680.3,102.1z"/>
		<path class="st50" d="M690.8,99.6c0,0,20.7,13.2,64.2,0.8c0,0,4.4-5.3,3.6-9.8l-68.2-2C690.4,88.5,688.1,92.8,690.8,99.6z"/>
		<path class="st6" d="M710.5,81.3c0,0-9,1.7-9.6,6.5c-0.6,4.9,12.5,6.8,21,6.9s25.2-2.3,25.6-6C748,85,727.3,79,710.5,81.3z"/>
		<path class="st51" d="M709.8,77.9c0,0-18.7,2.9-19.5,10.6c-0.8,7.6,18.2,11,30.1,11c11.8,0.1,35.2-1.6,38.2-9
			C761.5,83.1,733,76.4,709.8,77.9z"/>
		<path class="st52" d="M723.2,90.6c10.1,0,21.2-1.6,22.5-13.3l-40.4-1.5C705.3,75.8,703.8,90.6,723.2,90.6z"/>
		<path class="st53" d="M713.1,70.4c0,0-7.7,1.7-7.7,5.4c0,3.8,9.7,5.6,17.8,5.5s22,0,22.5-4C746.3,73.3,734.6,65.4,713.1,70.4z"/>
		<path class="st54" d="M731.8,52.8c-2.4-2.9-3.9-7.3-4.7-11.9l-13.2-1.2c0,0-7.6,5.4-9.6,14.2C710.1,57.8,720.6,61.6,731.8,52.8z"/>
		<path class="st55" d="M736.3,45c0,0,2.5,5.3,6.1,6.9c0,0-2.4,5.7-7.1,3.8c-1.4-0.6-2.6-1.6-3.6-2.8c-11.3,8.8-21.6,5-27.6,1.1
			c-0.9,3.8-0.6,8.2,1.7,13.1c8,15.8,35.2,10.7,40.8-11.2c0,0,4.3-2,5.6-12.8C752.3,43.1,742.1,47.8,736.3,45z"/>
		<path class="st45" d="M721.5,39.8c0,0,0.9-3,3.2-2.7s2.4,3.2,2.4,3.2s-2.8,5.9-8.4,5.3c-5.6-0.6-7.1-5.3-7.1-5.3s-0.7-3.8,3.4-4.2
			s4.7,3.3,4.7,3.3L721.5,39.8z"/>
		<path class="st6" d="M717.7,49.7c0,0-2.7-1.6-4.2,0s1.1,4.3,1.1,4.3"/>
		<path class="st6" d="M708.3,61.7c0,0,0.5,4.3,3.7,4.3c3.2-0.1,3.4-2.8,3.4-2.8"/>
		<path class="st6" d="M718,63c0,0,0.8,2.1,3.1,1.7s1.7-3.1,1.7-3.1"/>
		<path class="st6" d="M726,60.2c0,0,0.9,2.4,3.2,1.5s1.8-3.5,1.8-3.5"/>
		<path class="st6" d="M725.7,67.3c0,0,2.5,1.1,3.2,0s0.5-2.8,0.5-2.8"/>
		<path class="st6" d="M736.6,65.2c0,0,3.2-1.3,2.2-3.8"/>
		<path class="st6" d="M733.8,66.7c0,0,1.9,3.9-0.6,5.4"/>
		<path class="st6" d="M716.2,70c0,0,2,2,4.4,1.6c2.4-0.5,2.4-4.3,2.4-4.3"/>
		<line class="st6" x1="742.9" y1="45.7" x2="743.9" y2="49.3"/>
		<line class="st6" x1="746.8" y1="44.6" x2="746.8" y2="51.1"/>
		<path class="st6" d="M691.8,25.8c0,0,7.6-8.3,14.4-5.9c6.7,2.4,11.8,16.9,11.8,16.9s6.6-25.9,27.1-9.1"/>
		<path class="st4" d="M691.8,30.6c0,0-3.8,10.5,1.5,10.2C698.6,40.7,691.8,30.6,691.8,30.6z"/>
		<path class="st4" d="M688.7,27.1c0,0-13.3,4.4-9.4,8.1C683.3,38.9,688.7,27.1,688.7,27.1z"/>
		<path class="st4" d="M748.3,30.6c0,0,5.4-6.9,8.4-4.5C759.8,28.4,756.4,30.5,748.3,30.6z"/>
		<path class="st4" d="M748.3,31.4c0,0,6.3,8.7,9.1,5.8C761.8,32.8,748.3,31.4,748.3,31.4z"/>
	</g>
	<path class="st29" d="M63.3,80.3c0.7-2.4-2.7-5.5-8.1-2.8c0,0-0.3-5.8-3.8-5.9s-5,4.5-5,4.5S42.9,74,40,77.6c-3,3.6,1,5.5,1,5.5
		s-2.8-1.8-4.7,1.2s2.6,4.6,2.6,4.6s-5.2,0.9-4.1,5.3c1.2,4.6,5.4,2.2,5.4,2.2s2.2,4.8,6.4,0.6c0,0,3.4,3.4,11.1,0
		c9.6,3.3,14.6-3.3,10.6-11.2C71.3,81.8,66,78.8,63.3,80.3z"/>
	<path class="st29" d="M173.1,45.5c0.1-0.3,1.2-8.6,7.1-5.4c0,0,6.4-6.5,11.2,3c0,0,7-2,5.1,4.2c0,0,2.5-0.9,2,1.7
		c0,0,1.8,4.3-3.1,4.9c-5,0.7-6.4-0.9-6.4-0.9s-5.6,5-9.1-0.1C180,52.7,171.8,52.5,173.1,45.5z"/>
	<path class="st56" d="M122,109.6c0,0-3.7-4.6-1.3-7.5c2.4-3.1,5.2-0.6,5.2-0.6s0.3-6.4,5-0.9c0,0,2.4-5.7,4.6-2.2c0,0,4.5-5.4,7-3.3
		c2.6,2.2-0.3,4.8-0.3,4.8s2.4-2.6,4.2-0.8c1.8,1.8-1.4,5.9-1.4,5.9s4.6-2.8,4,3.2c0,0,4.4-3.4,6.4-1.1c2.1,2.3-0.1,5.8-2.9,6.8
		c0,0,6,2.5-3.3,6.8c0,0,2.4,2.3-1.2,4.7s-5.6,0.3-5.6,0.3s-1.8,3.3-4.8,2.8s-3.3-2.6-3.3-2.6s-2,4.1-3.5-0.7c0,0-5.3,3-6.8,0.8
		C122.5,123.7,110.9,107.7,122,109.6z"/>
	<path class="st57" d="M89.5,112.8c0,0-2-6.5,2.4-8.4s4.9,3,4.9,3s1.6-3.5,4.5-3.4c2.9,0,3.9,3.3,3.9,3.3s4.1-6.6,9.5-4.9
		c5.4,1.9,3.1,6.8,3.1,6.8s3.6-3.5,5.8-0.8c2.3,2.7,0.4,7.2-2.4,8.5c0,0,6.4-1.4,2.4,4.5c0,0,6.3-3.4,2.6,3.4c0,0-1.9,7.1-7.3,1.6
		c0,0-3.9,7-9.6,0.4c0,0-4.7,6.1-9.8-0.5c0,0-5.3,4.9-8.6-0.8c0,0-7.3,3.6-7.8-0.6c-0.5-4.2,4.4-3.9,4.4-3.9s-5.4-5-2.9-8
		C86.7,110.1,89.5,112.8,89.5,112.8z"/>
	
	<g>
		<path class="hiddenPath" d="M215.8,78.6C272.8,85.89999999999999,352.70000000000005,65.1,393.70000000000005,45.099999999999994C432.1,26.39999999999999,480.20000000000005,9.199999999999989,494.8,40.8C510,73.6,483.40000000000003,88.6,429.20000000000005,88.6C386.8,88.5,352.70000000000005,103.8,341.40000000000003,133.2"/>
		<path class="hiddenPath" d="M341.5,133C328.5,166.4,312.4,172.9,239.4,151.3C167.4,130,86.5,147.4,130.1,200C133,203.5,135.3,211.7,123.4,212C111.5,212.3,49.900000000000006,202.3,47.19999999999999,245.3C44.49999999999997,288.3,119.19999999999999,296.3,177.7,273.3C236.2,250.3,297.7,238.8,324.6,265.3"/>
		<path class="hiddenPath" d="M324,265C348.7,289.4,335,321.3,303.9,327C287.8,330,286.9,341.9,293.9,349.3"/>
		<!-- <path class="hiddenPath" d="M294,350C378.5,459.4,469.6,255.3,543.2,378.2"/> -->
		<path class="hiddenPath" d="M293.5,349C383,439,469,255,543,378"/>

	</g>
</g>
</svg>
