<?xml version="1.0" encoding="utf-8"?>
<!-- Generator: Adobe Illustrator 25.4.1, SVG Export Plug-In . SVG Version: 6.00 Build 0)  -->
<svg version="1.0" id="레이어_1" xmlns="http://www.w3.org/2000/svg" xmlns:xlink="http://www.w3.org/1999/xlink" x="0px"
	 y="0px" width="30px" height="30px" viewBox="0 0 30 30" style="enable-background:new 0 0 30 30;" xml:space="preserve">
<style type="text/css">
	.st0{fill:#FF8B23;}
	.st1{fill:#FFFFFF;}
</style>
<g>
	<g id="그룹_344_00000170977696742006339060000018010637248969931170_" transform="translate(-152.828 -346.483)">
		<g id="그룹_343_00000000189072364933868070000007783604145283247244_">
			<path id="사각형_176_00000165916178142184675260000006700701624775508148_" class="st0" d="M162.8,346.5h10
				c5.5,0,10,4.5,10,10v10c0,5.5-4.5,10-10,10h-10c-5.5,0-10-4.5-10-10v-10C152.8,351,157.3,346.5,162.8,346.5z"/>
		</g>
	</g>
	<g>
		<g>
			<g>
				<path class="st1" d="M11.5,22.5h-0.7c-0.6,0-1-0.4-1-1v-13c0-0.6,0.4-1,1-1h0.7c0.6,0,1,0.4,1,1v13C12.5,22.1,12,22.5,11.5,22.5
					z"/>
			</g>
		</g>
		<g>
			<g>
				<path class="st1" d="M19.2,22.5h-0.7c-0.6,0-1-0.4-1-1v-13c0-0.6,0.4-1,1-1h0.7c0.6,0,1,0.4,1,1v13
					C20.2,22.1,19.8,22.5,19.2,22.5z"/>
			</g>
		</g>
	</g>
</g>
</svg>
