<svg xmlns="http://www.w3.org/2000/svg" width="60" height="30" viewBox="0 0 60 30">
    <defs>
        <style>
            .cls-2{fill:#de8200}
        </style>
    </defs>
    <g id="그룹_407" transform="translate(-291.197 -56.013)">
        <g id="그룹_404">
            <path id="사각형_194" fill="#a3e387" d="M10 0h40a10 10 0 0 1 10 10v10a10 10 0 0 1-10 10H10A10 10 0 0 1 0 20V10A10 10 0 0 1 10 0z" transform="translate(291.197 56.013)"/>
            <path id="패스_440" d="M303.035 79.425a3.481 3.481 0 0 1-2.7-1.28v.2a2.7 2.7 0 0 0 5.4 0v-.2a3.485 3.485 0 0 1-2.7 1.28z" class="cls-2"/>
            <path id="패스_441" fill="#ffab24" d="M297.738 69.425s2.034-3.758 5.186-3.678 5.5 2.228 5.511 5.122-2.592 4.746-2.812 4.881-1.295 1.912-2.537 1.957-2.86-2.172-2.86-2.172-3.212-.789-2.488-6.11z"/>
            <path id="패스_442" d="M303.035 78.393a3.117 3.117 0 0 1-2.939-2.017 6.072 6.072 0 0 1-3.256-5.333 6.195 6.195 0 0 1 12.387 0 6.073 6.073 0 0 1-3.257 5.333 3.107 3.107 0 0 1-2.935 2.017zm0-11.915a4.637 4.637 0 0 0-4.7 4.565 4.577 4.577 0 0 0 2.69 4.123.75.75 0 0 1 .416.5 1.641 1.641 0 0 0 3.172 0 .75.75 0 0 1 .416-.508 4.577 4.577 0 0 0 2.693-4.123 4.635 4.635 0 0 0-4.687-4.557z" class="cls-2"/>
            <path id="패스_443" d="M299.994 64.333a.748.748 0 0 1-.53-.22l-1.4-1.4a.75.75 0 0 1 1.061-1.06l1.4 1.4a.751.751 0 0 1-.53 1.281z" class="cls-2"/>
            <path id="패스_444" d="M306.072 64.333a.751.751 0 0 1-.53-1.281l1.4-1.4a.75.75 0 0 1 1.06 1.06l-1.4 1.4a.751.751 0 0 1-.53.221z" class="cls-2"/>
            <path id="패스_445" d="M303.033 63.894a.75.75 0 0 1-.75-.75v-1.809a.75.75 0 1 1 1.5 0v1.809a.75.75 0 0 1-.75.75z" class="cls-2"/>
        </g>
        <g id="그룹_406">
            <g id="그룹_405">
                <path id="패스_446" d="M320.68 67.033c0 .26-.091.351-.364.351L314 67.5l.052 4.043 6.084-.117c.273 0 .364.091.364.352v.806c0 .259-.091.35-.364.35l-2.769.053v1.287l3.068-.053c.247 0 .325.066.325.338v.807c0 .3-.091.364-.312.364l-7.8.13c-.221 0-.312-.066-.312-.364v-.806c0-.273.078-.339.325-.339l3.068-.052v-1.286l-2.925.053c-.274 0-.364-.092-.364-.352l-.091-6.357c0-.26.091-.351.364-.351l7.605-.13c.273 0 .364.091.364.351z" class="cls-2"/>
                <path id="패스_447" d="M323.578 77.707c-.272 0-.35-.091-.363-.351l-.117-3.081c-.013-.261.091-.352.364-.352l2.729-.051V73.1l-3.21.053c-.221 0-.312-.066-.312-.364v-.806c0-.274.077-.339.324-.339l8.035-.13c.247 0 .325.066.325.338v.807c0 .3-.091.364-.312.364l-3.211.052v.766l2.743-.052c.273 0 .377.091.364.351l-.117 3.082c-.013.26-.091.351-.364.351zm-.181-9.738c0-1.833 1.443-2.9 3.614-2.9s3.614 1.066 3.614 2.9-1.43 2.9-3.614 2.9-3.611-1.069-3.611-2.9zm1.417 8.333l4.407-.078.039-1.026-4.486.078zm4.056-8.333c0-.884-.624-1.456-1.859-1.456s-1.86.572-1.86 1.456.624 1.456 1.86 1.456 1.859-.572 1.859-1.456z" class="cls-2"/>
                <path id="패스_448" d="M333.472 72.1c-.274.014-.365-.091-.365-.351l-.09-5.525c0-.26.09-.351.364-.351l5.668-.129c.272 0 .377.09.364.35l-.182 5.526c-.013.259-.091.337-.365.35zm1.248-1.533l2.912-.078.1-3.2-3.067.065zm1.936 5.3l.014.481 5-.1c.247 0 .325.065.325.337v.651c0 .272-.078.338-.325.338l-6.279.13c-.248 0-.312-.065-.326-.338l-.078-2.249c-.012-.274.078-.326.325-.338l5.291-.286.027-.5-5.577.1c-.247 0-.326-.064-.326-.338v-.649c0-.274.079-.338.326-.338l6.928-.13c.247 0 .339.064.326.338l-.118 2.288c-.012.272-.077.324-.324.338zm5.785-6.228v1.938c0 .259-.09.35-.363.35h-.91c-.273 0-.364-.091-.364-.35v-5.35c0-.26.091-.351.364-.351h.91c.273 0 .363.091.363.351v1.911l.976-.039c.247-.013.325.066.325.338v.832c0 .274-.078.325-.325.338z" class="cls-2"/>
            </g>
        </g>
    </g>
</svg>
