<svg xmlns="http://www.w3.org/2000/svg" width="48.67" height="22.723" viewBox="0 0 48.67 22.723">
    <defs>
        <style>
            .speedUp_cls-2{fill:#fff}
        </style>
    </defs>
    <g id="그룹_127" transform="translate(-75.5 -265.5)">
        <g id="그룹_69" transform="translate(-636.198 170.207)">
            <path id="패스_129" fill="#ff8b23" stroke="#fff" stroke-miterlimit="10" d="M759.868 106.652a10.862 10.862 0 0 1-10.86 10.864h-25.947a10.863 10.863 0 0 1-10.861-10.864 10.861 10.861 0 0 1 10.863-10.859h25.947a10.86 10.86 0 0 1 10.86 10.859z"/>
            <g id="그룹_68">
                <g id="그룹_66">
                    <path id="패스_130" d="M720.127 108.188h-1.107c-.522 0-.612-.082-.612-.563v-4.4c0-.106.049-.155.147-.155h.627c.1 0 .164.049.164.155v1.654h.455v-1.662c0-.106.049-.164.156-.164h.619a.146.146 0 0 1 .162.164v4.431c0 .416-.123.54-.611.54zm-.326-2.42h-.455v1.432c0 .09.008.1.1.1h.26c.09 0 .1-.008.1-.1zm2.967 2.42h-1.1c-.531 0-.619-.082-.619-.563v-4.4a.135.135 0 0 1 .154-.155h.619c.106 0 .162.049.162.155v1.654h.457v-1.662c0-.106.049-.164.155-.164h.627c.107 0 .156.058.156.164v4.431c0 .424-.115.54-.611.54zm-.327-2.42h-.457v1.432c0 .09.008.1.1.1h.262c.09 0 .1-.008.1-.1zm3.26.7h-.881v3.8c0 .131-.023.156-.146.156h-.742c-.121 0-.155-.025-.155-.156v-7.5c0-.121.034-.154.155-.154h.742c.123 0 .146.033.146.154v2.779h.881c.1 0 .162 0 .162.154v.62c0 .122-.063.146-.163.146z" class="speedUp_cls-2"/>
                    <path id="패스_131" d="M733.238 109.092h-7c-.136 0-.162-.074-.162-.172v-.586c0-.123.026-.172.162-.172h7a.151.151 0 0 1 .172.172v.586a.151.151 0 0 1-.172.172zm-.92-1.858h-4.554c-.483 0-.6-.156-.6-.57v-1.459c0-.416.1-.547.57-.547h3.35c.072 0 .1-.031.1-.1v-.53c0-.066-.033-.1-.1-.1h-3.717c-.121 0-.162-.033-.162-.164v-.612c0-.105.057-.154.162-.154h4.336c.488 0 .586.115.586.547V105c0 .449-.1.555-.586.555h-3.334c-.064 0-.1.033-.1.09v.562c0 .065.034.1.108.1h3.928c.121 0 .169.015.169.154v.611a.146.146 0 0 1-.156.162z" class="speedUp_cls-2"/>
                    <path id="패스_132" d="M734.486 108.578c-.131.09-.179.065-.252-.033l-.375-.522c-.089-.121-.107-.179.016-.251a4.989 4.989 0 0 0 2.33-3.407c.016-.138-.041-.211-.162-.211h-1.672c-.1 0-.162-.048-.162-.156v-.6a.147.147 0 0 1 .162-.165h2.348c.513 0 .627.165.627.653a4.718 4.718 0 0 1-.188 1.295h.807V102.9a.146.146 0 0 1 .164-.162h.748c.107 0 .156.057.156.162v7.1c0 .131-.033.154-.156.154h-.748c-.123 0-.164-.015-.164-.154v-3.9H736.8a6.238 6.238 0 0 1-2.314 2.478zm6.037 1.858h-.806c-.121 0-.154-.034-.154-.155v-7.521c0-.121.041-.154.162-.154h.8c.124 0 .155.033.155.154v7.521c-.002.119-.033.155-.157.155z" class="speedUp_cls-2"/>
                </g>
                <g id="그룹_67">
                    <path id="패스_133" d="M747.823 112.488c-.884.744-1.606.409-1.606-.746v-10.176c0-1.156.722-1.49 1.606-.748l5.321 4.483a1.715 1.715 0 0 1 0 2.707z" class="speedUp_cls-2"/>
                </g>
            </g>
        </g>
        <path id="사각형_69" fill="none" d="M0 0H48V22H0z" transform="translate(76 266)"/>
    </g>
</svg>
