<svg xmlns="http://www.w3.org/2000/svg" width="48.67" height="22.723" viewBox="0 0 48.67 22.723">
    <defs>
        <style>
            .speedDown_cls-2{fill:#fff}
        </style>
    </defs>
    <g id="그룹_126" transform="translate(-53.5 -231.5)">
        <g id="그룹_65" transform="translate(-585.128 136.207)">
            <path id="패스_124" fill="#ff8b23" stroke="#fff" stroke-miterlimit="10" d="M686.8 106.652a10.862 10.862 0 0 1-10.86 10.864h-25.951a10.862 10.862 0 0 1-10.861-10.864 10.86 10.86 0 0 1 10.861-10.859h25.949a10.86 10.86 0 0 1 10.86 10.859z"/>
            <g id="그룹_64">
                <g id="그룹_62">
                    <path id="패스_125" d="M657.139 107.723c-.188.066-.229.049-.285-.049l-.286-.563c-.056-.105-.023-.177.09-.226a6.309 6.309 0 0 0 2.412-1.819c.106-.154.09-.21-.048-.21H657.1c-.106 0-.155-.057-.155-.172v-.545c0-.116.057-.172.162-.172h2.813c.66 0 .781.334.562.889a3.68 3.68 0 0 1-.708 1.058 7.275 7.275 0 0 0 1.269.742c.123.057.115.131.059.229l-.3.57c-.057.09-.113.1-.236.041a6.545 6.545 0 0 1-1.5-.922 7.248 7.248 0 0 1-1.927 1.149zm2.6-4.114h-1.972a.15.15 0 0 1-.17-.171v-.506a.149.149 0 0 1 .17-.17h1.972c.121 0 .18.056.18.177v.491a.158.158 0 0 1-.181.179zm3.219 6.682h-4.393c-.455 0-.562-.131-.562-.588v-1.654a.15.15 0 0 1 .164-.17h.807a.148.148 0 0 1 .162.17v1.189c0 .082.041.123.131.123h3.691c.09 0 .162.024.162.147v.635c-.001.157-.073.148-.163.148zm-2.176-4.2c-.1 0-.164-.033-.164-.155v-.6c0-.139.067-.155.164-.155h.93v-2.427c0-.108.049-.156.146-.156h.823c.1 0 .154.048.154.156v5.385c0 .123-.031.156-.154.156h-.823c-.123 0-.146-.033-.146-.156v-2.053z" class="speedDown_cls-2"/>
                    <path id="패스_126" d="M664.8 107.723c-.188.066-.229.049-.285-.049l-.285-.563c-.057-.105-.024-.177.089-.226a6.308 6.308 0 0 0 2.412-1.819c.106-.154.09-.21-.048-.21h-1.924c-.106 0-.154-.057-.154-.172v-.545c0-.116.056-.172.162-.172h2.812c.66 0 .781.334.563.889a3.706 3.706 0 0 1-.709 1.058 7.274 7.274 0 0 0 1.269.742c.123.057.115.131.059.229l-.3.57c-.057.09-.113.1-.236.041a6.564 6.564 0 0 1-1.5-.922 7.249 7.249 0 0 1-1.925 1.149zm2.6-4.114h-1.972a.15.15 0 0 1-.17-.171v-.506a.149.149 0 0 1 .17-.17h1.972c.122 0 .18.056.18.177v.491a.157.157 0 0 1-.18.179zm3.219 6.682h-4.392c-.455 0-.563-.131-.563-.588v-1.654a.15.15 0 0 1 .164-.17h.807a.148.148 0 0 1 .162.17v1.189c0 .082.041.123.131.123h3.691c.09 0 .162.024.162.147v.635c-.002.157-.074.148-.164.148zm-2.176-4.2c-.1 0-.164-.033-.164-.155v-.6c0-.139.067-.155.164-.155h.93v-2.427c0-.108.049-.156.147-.156h.822c.1 0 .154.048.154.156v5.385c0 .123-.031.156-.154.156h-.822c-.123 0-.147-.033-.147-.156v-2.053z" class="speedDown_cls-2"/>
                    <path id="패스_127" d="M676.33 105.156h-4.31c-.123 0-.18-.056-.18-.179v-.561c0-.115.057-.172.18-.172h4.31a.151.151 0 0 1 .17.172v.57a.15.15 0 0 1-.17.17zm-2.07 3.627a1.679 1.679 0 1 1 1.84-1.683 1.748 1.748 0 0 1-1.84 1.683zm1.058-4.922h-2.232c-.1 0-.17-.015-.17-.172v-.57c0-.138.072-.17.17-.17h2.232c.116 0 .172.057.172.178v.555c0 .123-.056.179-.172.179zm-1.05 2.526a.736.736 0 0 0-.766.724.762.762 0 0 0 1.523 0 .734.734 0 0 0-.757-.724zm3.748 4.033h-.83c-.123 0-.155-.023-.155-.154v-7.5c0-.123.032-.156.155-.156h.83c.123 0 .146.033.146.156v7.5c0 .134-.023.154-.146.154z" class="speedDown_cls-2"/>
                </g>
                <g id="그룹_63">
                    <path id="패스_128" d="M650.569 100.82c.885-.744 1.607-.408 1.607.746v10.176c0 1.156-.722 1.49-1.607.748l-5.32-4.482a1.713 1.713 0 0 1 0-2.707z" class="speedDown_cls-2"/>
                </g>
            </g>
        </g>
        <path id="사각형_68" fill="none" d="M0 0H48V22H0z" transform="translate(54 232)"/>
    </g>
</svg>
