<svg xmlns="http://www.w3.org/2000/svg" width="644" height="400" viewBox="0 0 644 400">
    <defs>
        <style>
            .memoNote_cls-1{fill:#c1c1c1}.memoNote_cls-2{fill:#71c14c}
        </style>
    </defs>
    <g id="그룹_131" transform="translate(-759 -491)">
        <g id="그룹_91" transform="translate(697.112 376.174)">
            <path id="사각형_33" fill="#9ae07d" d="M8.892 0h617.973a8.893 8.893 0 0 1 8.893 8.893v362.664a8.892 8.892 0 0 1-8.892 8.892H8.892A8.892 8.892 0 0 1 0 371.557V8.892A8.892 8.892 0 0 1 8.892 0z" transform="translate(70.084 124.826)"/>
            <path id="사각형_34" fill="#fff" d="M0 0H611.269V359.719H0z" transform="translate(82.328 135.19)"/>
            <g id="그룹_90">
                <g id="그룹_80">
                    <g id="그룹_78">
                        <path id="패스_155" d="M86.011 177.939a7.365 7.365 0 1 0 7.367-7.367 7.366 7.366 0 0 0-7.367 7.367z" class="memoNote_cls-1"/>
                    </g>
                    <g id="그룹_79">
                        <path id="패스_156" d="M91.561 173.755h-25.49a4.184 4.184 0 0 0 0 8.368h25.49a4.184 4.184 0 1 0 0-8.368z" class="memoNote_cls-2"/>
                    </g>
                </g>
                <g id="그룹_83">
                    <g id="그룹_81">
                        <path id="패스_157" d="M86.011 270a7.365 7.365 0 1 0 7.367-7.367A7.366 7.366 0 0 0 86.011 270z" class="memoNote_cls-1"/>
                    </g>
                    <g id="그룹_82">
                        <path id="패스_158" d="M91.561 265.818h-25.49a4.184 4.184 0 0 0 0 8.368h25.49a4.184 4.184 0 1 0 0-8.368z" class="memoNote_cls-2"/>
                    </g>
                </g>
                <g id="그룹_86">
                    <g id="그룹_84">
                        <path id="패스_159" d="M86.011 362.067a7.365 7.365 0 1 0 7.367-7.367 7.366 7.366 0 0 0-7.367 7.367z" class="memoNote_cls-1"/>
                    </g>
                    <g id="그룹_85">
                        <path id="패스_160" d="M91.561 357.883h-25.49a4.184 4.184 0 0 0 0 8.368h25.49a4.184 4.184 0 1 0 0-8.368z" class="memoNote_cls-2"/>
                    </g>
                </g>
                <g id="그룹_89">
                    <g id="그룹_87">
                        <path id="패스_161" d="M86.011 454.131a7.365 7.365 0 1 0 7.367-7.367 7.366 7.366 0 0 0-7.367 7.367z" class="memoNote_cls-1"/>
                    </g>
                    <g id="그룹_88">
                        <path id="패스_162" d="M91.561 449.946h-25.49a4.184 4.184 0 0 0 0 8.368h25.49a4.184 4.184 0 1 0 0-8.368z" class="memoNote_cls-2"/>
                    </g>
                </g>
            </g>
        </g>
        <path id="사각형_73" fill="none" d="M0 0H644V400H0z" transform="translate(759 491)"/>
    </g>
</svg>
