<?xml version="1.0" encoding="utf-8"?>
<!-- Generator: Adobe Illustrator 25.3.1, SVG Export Plug-In . SVG Version: 6.00 Build 0)  -->
<svg version="1.0" id="레이어_1" xmlns="http://www.w3.org/2000/svg" xmlns:xlink="http://www.w3.org/1999/xlink" x="0px"
	 y="0px" width="83px" height="97.7px" viewBox="0 0 83 97.7" style="enable-background:new 0 0 83 97.7;" xml:space="preserve">
<style type="text/css">
	<!-- .st0{fill:#C9C9C9;} -->
</style>
<!-- <g>
	<path class="st0" d="M41.5,97.7c-8.2,0-15-6.6-15.2-14.7H9.7C4.4,83,0,78.6,0,73.3V9.7C0,4.4,4.4,0,9.7,0h63.5
		C78.6,0,83,4.4,83,9.7v63.5c0,5.4-4.4,9.7-9.7,9.7H56.7C56.5,91.2,49.7,97.7,41.5,97.7z M9.7,1C4.9,1,1,4.9,1,9.7v63.5
		C1,78.1,4.9,82,9.7,82h17.5v0.5c0,7.9,6.4,14.2,14.2,14.2c7.9,0,14.3-6.4,14.3-14.2V82h17.5c4.8,0,8.7-3.9,8.7-8.7V9.7
		C82,4.9,78.1,1,73.3,1H9.7z"/>
</g> -->
<g>
	<path d="M9.7,1C4.9,1,1,4.9,1,9.7v63.5
		C1,78.1,4.9,82,9.7,82h17.5v0.5c0,7.9,6.4,14.2,14.2,14.2c7.9,0,14.3-6.4,14.3-14.2V82h17.5c4.8,0,8.7-3.9,8.7-8.7V9.7
		C82,4.9,78.1,1,73.3,1H9.7z"/>
</g>
</svg>
