<?xml version="1.0" encoding="utf-8"?>
<!-- Generator: Adobe Illustrator 25.4.1, SVG Export Plug-In . SVG Version: 6.00 Build 0)  -->
<svg version="1.0" id="레이어_1" xmlns="http://www.w3.org/2000/svg" xmlns:xlink="http://www.w3.org/1999/xlink" x="0px"
	 y="0px" width="38px" height="40px" viewBox="0 0 38 40" style="enable-background:new 0 0 38 40;" xml:space="preserve">
<style type="text/css">
	.st0{fill:#E56D00;}
	.st1{fill:#FF9527;}
	.st2{fill:#FFFFFF;}
</style>
<g>
	<g>
		<g>
			<path class="st0" d="M38,32.4c0,4.2-3.4,7.6-7.6,7.6H7.6C3.4,40,0,36.6,0,32.4V9.6C0,5.4,3.4,2,7.6,2h22.8C34.6,2,38,5.4,38,9.6
				V32.4z"/>
			<path class="st1" d="M38,30.4c0,4.2-3.4,7.6-7.6,7.6H7.6C3.4,38,0,34.6,0,30.4V7.6C0,3.4,3.4,0,7.6,0h22.8C34.6,0,38,3.4,38,7.6
				V30.4z"/>
		</g>
		<g>
			<g>
				<path class="st2" d="M12.6,29.8c0.1,0,0.2,0,0.2,0.2v0.4c0,0.2,0,0.2-0.2,0.2l-4.3,0.1c-0.1,0-0.2,0-0.2-0.2v-0.4
					c0-0.1,0-0.2,0.2-0.2L12.6,29.8z M12.8,27.9c0,0.1,0,0.2-0.2,0.2L9,28.1l0,0.6l3.4-0.1c0.1,0,0.2,0,0.2,0.2v0.4
					c0,0.1,0,0.2-0.2,0.2l-4.1,0.1c-0.1,0-0.2,0-0.2-0.2l-0.1-1.8c0-0.1,0-0.2,0.2-0.2l4.2-0.1c0.1,0,0.2,0,0.2,0.2V27.9z M8.6,33.8
					c-0.1,0-0.2,0-0.2-0.2l0-1.3c0-0.1,0-0.2,0.2-0.2l3.1-0.1l0-0.3l-3.3,0.1c-0.1,0-0.2,0-0.2-0.2v-0.4c0-0.1,0-0.2,0.2-0.2l4-0.1
					c0.1,0,0.2,0,0.2,0.2l-0.1,1.3c0,0.2,0,0.2-0.2,0.2l-3.1,0.1l0,0.3l3-0.1c0.1,0,0.2,0,0.2,0.2v0.4c0,0.2,0,0.2-0.2,0.2L8.6,33.8
					z"/>
				<path class="st2" d="M13.6,29.8c0-1.1,0.7-2,2-2c1.2,0,1.9,0.7,2,1.7l0.9,0v-1.7c0-0.1,0-0.2,0.2-0.2h0.5c0.1,0,0.2,0,0.2,0.2
					v4.5c0,0.1,0,0.2-0.2,0.2h-0.5c-0.1,0-0.2,0-0.2-0.2v-1.9l-1,0c-0.2,0.8-0.9,1.4-2,1.4C14.4,31.8,13.6,30.9,13.6,29.8z
					 M16.8,29.8c0-0.7-0.4-1.2-1.1-1.2c-0.7,0-1.1,0.5-1.1,1.2c0,0.7,0.4,1.1,1.1,1.1C16.4,30.9,16.8,30.5,16.8,29.8z"/>
				<path class="st2" d="M23.1,31.2v0.7l1.7,0c0.1,0,0.2,0,0.2,0.2v0.4c0,0.2,0,0.2-0.2,0.2l-4.2,0.1c-0.1,0-0.2,0-0.2-0.2v-0.4
					c0-0.1,0-0.2,0.2-0.2l1.7,0v-0.7l-1.6,0c-0.1,0-0.2,0-0.2-0.2l0-3.4c0-0.1,0-0.2,0.2-0.2h0.5c0.1,0,0.2,0,0.2,0.2l0,1l2.7,0l0-1
					c0-0.1,0-0.2,0.2-0.2h0.5c0.1,0,0.2,0,0.2,0.2L24.8,31c0,0.1,0,0.2-0.2,0.2L23.1,31.2z M21.4,30.5l2.6,0l0-1l-2.6,0L21.4,30.5z"
					/>
				<path class="st2" d="M25.9,27.7c0-0.1,0-0.2,0.2-0.2l3.3-0.1c0.1,0,0.2,0,0.2,0.2L29,32.4c0,0.1-0.1,0.2-0.2,0.2h-0.5
					c-0.1,0-0.2,0-0.2-0.2l0.5-4.1l-2.5,0c-0.1,0-0.2,0-0.2-0.2V27.7z M30.4,27.7c0-0.1,0-0.2,0.2-0.2h0.5c0.1,0,0.2,0,0.2,0.2v4.5
					c0,0.1,0,0.2-0.2,0.2h-0.5c-0.1,0-0.2,0-0.2-0.2V27.7z"/>
			</g>
		</g>
	</g>
	<g>
		<path class="st2" d="M13.7,23.1h0.8v-8.8h-0.8V23.1z M24.8,23.1h0.8v-8.8h-0.8V23.1z M28,14.7v-2.4c0-4.6-3.8-8.4-8.4-8.4
			s-8.4,3.8-8.4,8.4v2.4c-1.1,0.5-2.4,1.6-2.4,4c0,4.3,4,4.4,4,4.4v-1.6h0c0-0.1,0-0.3,0-0.4v-8.8c0-3.7,3-6.8,6.8-6.8
			c3.7,0,6.8,3,6.8,6.8v8.8c0,0.1,0,0.3,0,0.4h0v1.6c0,0,4-0.1,4-4.4C30.4,16.2,29.2,15.2,28,14.7z"/>
	</g>
</g>
</svg>
