<?xml version="1.0" encoding="utf-8"?>
<!-- Generator: Adobe Illustrator 25.4.1, SVG Export Plug-In . SVG Version: 6.00 Build 0)  -->
<svg version="1.0" id="레이어_1" xmlns="http://www.w3.org/2000/svg" xmlns:xlink="http://www.w3.org/1999/xlink" x="0px"
	 y="0px" width="38px" height="38px" viewBox="0 0 38 38" style="enable-background:new 0 0 38 38;" xml:space="preserve">
<style type="text/css">
	.st0{fill:#E56D00;}
	.st1{fill:#AA430B;}
</style>
<g>
	<g>
		<g>
			<path class="st0" d="M38,30.4c0,4.2-3.4,7.6-7.6,7.6H7.6C3.4,38,0,34.6,0,30.4V7.6C0,3.4,3.4,0,7.6,0h22.8C34.6,0,38,3.4,38,7.6
				V30.4z"/>
		</g>
		<g>
			<g>
				<g>
					<path class="st1" d="M14.9,29.9l-1.1,0l0,1.2c0,0.1,0,0.2-0.2,0.2l-2.9,0.1c-0.1,0-0.2,0-0.2-0.2l0-3.1c0-0.1,0-0.2,0.2-0.2
						l3.1-0.1c0.1,0,0.2,0,0.2,0.2l0,1.1l1.1,0v-1c0-0.1,0-0.2,0.2-0.2h0.5c0.1,0,0.2,0,0.2,0.2v3c0,0.1,0,0.2-0.2,0.2h-0.5
						c-0.1,0-0.2,0-0.2-0.2V29.9z M11.3,30.6l1.6,0l0.1-1.9l-1.7,0L11.3,30.6z M11.9,34.3c-0.1,0-0.2,0-0.2-0.2L11.7,32
						c0-0.1,0-0.2,0.2-0.2l3.4-0.1c0.1,0,0.2,0,0.2,0.2L15.4,34c0,0.1,0,0.2-0.2,0.2L11.9,34.3z M12.6,33.4l2,0l0-0.8l-2,0
						L12.6,33.4z"/>
					<path class="st1" d="M18.4,29.6c0.1-0.1,0.1-0.1,0.1-0.3v-0.5l-1.7,0c-0.1,0-0.2,0-0.2-0.2v-0.4c0-0.1,0-0.2,0.2-0.2l1.7,0
						v-0.4c0-0.1,0-0.2,0.2-0.2h0.5c0.1,0,0.2,0,0.2,0.2v0.4l1.7,0c0.1,0,0.2,0,0.2,0.2v0.4c0,0.2,0,0.2-0.2,0.2l-1.7,0v0.5
						c0,0.2,0,0.2,0.1,0.3l1.8,0.8c0.1,0,0.1,0.1,0.1,0.3L21.1,31c-0.1,0.1-0.1,0.1-0.3,0L19,30.2l-1.8,0.9
						c-0.1,0.1-0.2,0.1-0.3-0.1l-0.2-0.4c-0.1-0.1-0.1-0.2,0.1-0.3L18.4,29.6z M21.1,31.5c0.1,0,0.2,0,0.2,0.2v0.4
						c0,0.2,0,0.2-0.2,0.2l-1.7,0v1.3c0,0.1,0,0.2-0.2,0.2h-0.5c-0.1,0-0.2,0-0.2-0.2v-1.3l-1.7,0c-0.1,0-0.2,0-0.2-0.2v-0.4
						c0-0.1,0-0.2,0.2-0.2L21.1,31.5z"/>
					<path class="st1" d="M22.1,28.1c0-0.1,0-0.2,0.2-0.2l3.3-0.1c0.1,0,0.2,0,0.2,0.2l-0.6,4.8c0,0.1-0.1,0.2-0.2,0.2h-0.5
						c-0.1,0-0.2,0-0.2-0.2l0.5-4.1l-2.5,0c-0.1,0-0.2,0-0.2-0.2V28.1z M26.7,28.2c0-0.1,0-0.2,0.2-0.2h0.5c0.1,0,0.2,0,0.2,0.2v4.5
						c0,0.1,0,0.2-0.2,0.2h-0.5c-0.1,0-0.2,0-0.2-0.2V28.2z"/>
				</g>
			</g>
		</g>
	</g>
	<g>
		<g>
			<g>
				<g>
					<path class="st1" d="M23.7,20.4h-2c-0.3,0-0.5-0.2-0.5-0.5V8c0-0.3,0.2-0.5,0.5-0.5h2c0.3,0,0.5,0.2,0.5,0.5v11.9
						C24.3,20.2,24,20.4,23.7,20.4z"/>
				</g>
			</g>
		</g>
		<g>
			<g>
				<g>
					<path class="st1" d="M16.3,20.4h-2c-0.3,0-0.5-0.2-0.5-0.5V8c0-0.3,0.2-0.5,0.5-0.5h2c0.3,0,0.5,0.2,0.5,0.5v11.9
						C16.9,20.2,16.6,20.4,16.3,20.4z"/>
				</g>
			</g>
		</g>
	</g>
</g>
</svg>
