<?xml version="1.0" encoding="utf-8"?>
<!-- Generator: Adobe Illustrator 25.4.1, SVG Export Plug-In . SVG Version: 6.00 Build 0)  -->
<svg version="1.0" id="레이어_1" xmlns="http://www.w3.org/2000/svg" xmlns:xlink="http://www.w3.org/1999/xlink" x="0px"
	 y="0px" width="126.5px" height="52px" viewBox="0 0 126.5 52" style="enable-background:new 0 0 126.5 52;" xml:space="preserve">
<style type="text/css">
	.st0{fill:#E56D00;}
	.st1{fill:#FF9527;}
	.st2{fill:#FFFFFF;}
</style>
<g>
	<g>
		<path class="st0" d="M126.5,42c0,5.5-4.5,10-10,10H10C4.5,52,0,47.5,0,42V12C0,6.5,4.5,2,10,2h106.5c5.5,0,10,4.5,10,10V42z"/>
		<path class="st1" d="M126.5,40c0,5.5-4.5,10-10,10H10C4.5,50,0,45.5,0,40V10C0,4.5,4.5,0,10,0h106.5c5.5,0,10,4.5,10,10V40z"/>
		<g>
			<path class="st2" d="M30.1,25.1c0,2.8-2.3,5.1-5.1,5.1l0,0c-2.8,0-5.1-2.3-5.1-5.1V14.6c0-2.8,2.3-5.1,5.1-5.1l0,0
				c2.8,0,5.1,2.3,5.1,5.1V25.1z"/>
			<path class="st2" d="M25,34.6c-5.2,0-9.4-4.2-9.4-9.4v-2.3c0-0.6,0.4-1,1-1s1,0.4,1,1v2.3c0,4.1,3.3,7.4,7.4,7.4s7.4-3.3,7.4-7.4
				v-2.3c0-0.6,0.4-1,1-1s1,0.4,1,1v2.3C34.4,30.4,30.2,34.6,25,34.6z"/>
			<rect x="24" y="33.8" class="st2" width="2" height="3.8"/>
			<path class="st2" d="M32.9,38.8H17.1c-0.6,0-1-0.4-1-1s0.4-1,1-1h15.8c0.6,0,1,0.4,1,1S33.4,38.8,32.9,38.8z"/>
		</g>
	</g>
	<g>
		<g>
			<path class="st2" d="M53,18.6c0.4,0,0.5,0.1,0.5,0.5l0.1,3.7l8.8-0.2c0.4,0,0.5,0.1,0.5,0.5v1.1c0,0.4-0.1,0.5-0.5,0.5l-4.1,0.1
				V26l4.4-0.1c0.3,0,0.5,0.1,0.5,0.5v1.1c0,0.4-0.1,0.5-0.4,0.5l-11.2,0.2c-0.3,0-0.4-0.1-0.4-0.5v-1.1c0-0.4,0.1-0.5,0.5-0.5
				L56,26v-1.3l-4.1,0.1c-0.4,0-0.5-0.1-0.5-0.5l-0.2-5.3c0-0.4,0.1-0.5,0.5-0.5H53z M60.9,35.1c-0.4,0-0.5-0.1-0.5-0.5l0.1-3.2
				l-8.3,0.1c-0.3,0-0.5-0.1-0.5-0.5V30c0-0.4,0.1-0.5,0.5-0.5l10.2-0.2c0.3,0,0.5,0.1,0.5,0.5l-0.2,4.8c0,0.4-0.1,0.5-0.5,0.5H60.9
				z"/>
			<path class="st2" d="M77.2,26.6c0.3,0,0.5,0.1,0.5,0.5v1.1c0,0.4-0.1,0.5-0.4,0.5l-11.2,0.2c-0.3,0-0.4-0.1-0.4-0.5v-1.1
				c0-0.4,0.1-0.5,0.5-0.5L77.2,26.6z M66.9,35.1c-0.4,0-0.5-0.1-0.5-0.5l-0.2-4.3c0-0.4,0.1-0.5,0.5-0.5l9.8-0.2
				c0.4,0,0.5,0.1,0.5,0.5l-0.2,4.3c0,0.4-0.1,0.5-0.5,0.5L66.9,35.1z M66.7,21.6c0-2.5,2-4,5-4c3,0,5,1.5,5,4s-2,4-5,4
				C68.7,25.7,66.7,24.2,66.7,21.6z M68.6,33.2l6.1-0.1l0.1-1.4l-6.2,0.1L68.6,33.2z M74.2,21.6c0-1.2-0.9-2-2.6-2s-2.6,0.8-2.6,2
				s0.9,2,2.6,2S74.2,22.9,74.2,21.6z"/>
			<path class="st2" d="M83.3,19.3v-1.1c0-0.4,0.1-0.5,0.5-0.5h1.3c0.4,0,0.5,0.1,0.5,0.5v1l3.2-0.1c0.3,0,0.5,0.1,0.5,0.5v1.1
				c0,0.4-0.1,0.5-0.4,0.5l-8.7,0.2c-0.3,0-0.4-0.1-0.4-0.5v-1.1c0-0.4,0.1-0.5,0.5-0.5L83.3,19.3z M80.1,26.9
				c0-2.6,1.7-4.3,4.6-4.3c2.8,0,4.6,1.7,4.6,4.3c0,2.6-1.7,4.3-4.6,4.3C81.8,31.2,80.1,29.5,80.1,26.9z M86.9,26.9
				c0-1.4-0.9-2.3-2.3-2.3c-1.5,0-2.3,0.9-2.3,2.3c0,1.3,0.8,2.3,2.3,2.3C86.1,29.1,86.9,28.2,86.9,26.9z M93,26.4v4.8
				c0,0.4-0.1,0.5-0.5,0.5h-1.3c-0.4,0-0.5-0.1-0.5-0.5V19.6c0-0.4,0.1-0.5,0.5-0.5h1.3c0.4,0,0.5,0.1,0.5,0.5v4.7l1.4-0.1
				c0.3,0,0.5,0.1,0.5,0.5v1.2c0,0.4-0.1,0.5-0.5,0.5L93,26.4z"/>
			<path class="st2" d="M96.5,19.4c0-0.4,0.1-0.5,0.5-0.5l8.4-0.2c0.4,0,0.6,0.1,0.5,0.5l-1.5,12.3c-0.1,0.4-0.2,0.5-0.6,0.5h-1.3
				c-0.4,0-0.5-0.1-0.5-0.5l1.3-10.6L97,21c-0.4,0-0.5-0.1-0.5-0.5V19.4z M108.1,19.6c0-0.4,0.1-0.5,0.5-0.5h1.3
				c0.4,0,0.5,0.1,0.5,0.5v11.6c0,0.4-0.1,0.5-0.5,0.5h-1.3c-0.4,0-0.5-0.1-0.5-0.5V19.6z"/>
		</g>
	</g>
</g>
</svg>
