<?xml version="1.0" encoding="utf-8"?>
<!-- Generator: Adobe Illustrator 25.4.1, SVG Export Plug-In . SVG Version: 6.00 Build 0)  -->
<svg version="1.0" id="레이어_1" xmlns="http://www.w3.org/2000/svg" xmlns:xlink="http://www.w3.org/1999/xlink" x="0px"
	 y="0px" width="38px" height="40px" viewBox="0 0 38 40" style="enable-background:new 0 0 38 40;" xml:space="preserve">
<style type="text/css">
	.st0{fill:#E56D00;}
	.st1{fill:#FF9527;}
	.st2{fill:#FFFFFF;}
</style>
<g>
	<g>
		<g>
			<path class="st0" d="M38,32.4c0,4.2-3.4,7.6-7.6,7.6H7.6C3.4,40,0,36.6,0,32.4V9.6C0,5.4,3.4,2,7.6,2h22.8C34.6,2,38,5.4,38,9.6
				V32.4z"/>
			<path class="st1" d="M38,30.4c0,4.2-3.4,7.6-7.6,7.6H7.6C3.4,38,0,34.6,0,30.4V7.6C0,3.4,3.4,0,7.6,0h22.8C34.6,0,38,3.4,38,7.6
				V30.4z"/>
		</g>
		<g>
			<g>
				<g>
					<path class="st2" d="M10.1,28.2c0-0.1,0-0.2,0.2-0.2l1.7,0c0.1,0,0.2,0,0.2,0.2l-0.1,1.7c0,0.1-0.1,0.2-0.2,0.2h-0.5
						c-0.1,0-0.2,0-0.2-0.2l0-1l-1,0c-0.1,0-0.2,0-0.2-0.2V28.2z M14.6,30.3c0.1,0,0.2,0,0.2,0.2v0.4c0,0.2,0,0.2-0.2,0.2l-4.3,0.1
						c-0.1,0-0.2,0-0.2-0.2v-0.4c0-0.1,0-0.2,0.2-0.2L14.6,30.3z M14.5,31.5c0.1,0,0.2,0,0.2,0.2V32c0,0.1,0,0.2-0.2,0.2l-3.2,0.1
						l0,0.3l3.1,0c0.1,0,0.2,0,0.2,0.2V33c0,0.1,0,0.2-0.2,0.2l-3.1,0.1l0,0.3l3.1-0.1c0.1,0,0.2,0,0.2,0.2V34c0,0.1,0,0.2-0.2,0.2
						l-3.8,0.1c-0.1,0-0.2,0-0.2-0.2l-0.1-2.3c0-0.2,0-0.2,0.2-0.2L14.5,31.5z M12.5,28c0-0.1,0-0.2,0.2-0.2l1.9,0
						c0.1,0,0.2,0,0.2,0.2l-0.1,1.8c0,0.1-0.1,0.2-0.2,0.2H14c-0.1,0-0.2,0-0.2-0.2l0-1.2l-1.2,0c-0.1,0-0.2,0-0.2-0.2V28z"/>
					<path class="st2" d="M16.4,27.9c0.1,0,0.2,0,0.2,0.2l0.1,4.2l1.8,0c0.1,0,0.2,0,0.2,0.2v0.4c0,0.1,0,0.2-0.2,0.2L16,33.1
						c-0.1,0-0.2,0-0.2-0.2l-0.1-4.8c0-0.1,0-0.2,0.2-0.2H16.4z M20.9,30.8l-0.7,0v1.9c0,0.1,0,0.2-0.2,0.2h-0.5
						c-0.1,0-0.2,0-0.2-0.2v-4.5c0-0.1,0-0.2,0.2-0.2H20c0.1,0,0.2,0,0.2,0.2V30l0.7,0v-1.8c0-0.1,0-0.2,0.2-0.2h0.5
						c0.1,0,0.2,0,0.2,0.2v4.5c0,0.1,0,0.2-0.2,0.2h-0.5c-0.1,0-0.2,0-0.2-0.2V30.8z"/>
					<path class="st2" d="M22.5,28.2c0-0.1,0-0.2,0.2-0.2l3.3-0.1c0.1,0,0.2,0,0.2,0.2l-0.6,4.8c0,0.1-0.1,0.2-0.2,0.2h-0.5
						c-0.1,0-0.2,0-0.2-0.2l0.5-4.1l-2.5,0c-0.1,0-0.2,0-0.2-0.2V28.2z M27,28.2c0-0.1,0-0.2,0.2-0.2h0.5c0.1,0,0.2,0,0.2,0.2v4.5
						c0,0.1,0,0.2-0.2,0.2h-0.5c-0.1,0-0.2,0-0.2-0.2V28.2z"/>
				</g>
			</g>
		</g>
	</g>
	<path class="st2" d="M23.5,20.5h-9c-0.7,0-1.4-0.6-1.4-1.4v-9c0-0.7,0.6-1.4,1.4-1.4h9c0.7,0,1.4,0.6,1.4,1.4v9
		C24.9,19.9,24.2,20.5,23.5,20.5z"/>
</g>
</svg>
