<?xml version="1.0" encoding="utf-8"?>
<!-- Generator: Adobe Illustrator 25.4.1, SVG Export Plug-In . SVG Version: 6.00 Build 0)  -->
<svg version="1.0" id="레이어_1" xmlns="http://www.w3.org/2000/svg" xmlns:xlink="http://www.w3.org/1999/xlink" x="0px"
	 y="0px" width="38px" height="38px" viewBox="0 0 38 38" style="enable-background:new 0 0 38 38;" xml:space="preserve">
<style type="text/css">
	.st0{fill:#D1D1D1;}
	.st1{fill:#A2A2A2;}
</style>
<g>
	<path class="st0" d="M38,30.4c0,4.2-3.4,7.6-7.6,7.6H7.6C3.4,38,0,34.6,0,30.4V7.6C0,3.4,3.4,0,7.6,0h22.8C34.6,0,38,3.4,38,7.6
		V30.4z"/>
	<g>
		<path class="st1" d="M22.7,13.9c0,1.9-1.5,3.4-3.4,3.4l0,0c-1.9,0-3.4-1.5-3.4-3.4V7c0-1.9,1.5-3.4,3.4-3.4l0,0
			c1.9,0,3.4,1.5,3.4,3.4V13.9z"/>
		<path class="st1" d="M19.3,20.3c-3.5,0-6.3-2.8-6.3-6.3v-1.5c0-0.4,0.3-0.7,0.7-0.7s0.7,0.3,0.7,0.7V14c0,2.7,2.2,4.9,4.9,4.9
			s4.9-2.2,4.9-4.9v-1.5c0-0.4,0.3-0.7,0.7-0.7s0.7,0.3,0.7,0.7V14C25.6,17.5,22.8,20.3,19.3,20.3z"/>
		<rect x="18.6" y="19.7" class="st1" width="1.3" height="2.5"/>
		<path class="st1" d="M24.6,23.1H14c-0.4,0-0.7-0.3-0.7-0.7s0.3-0.7,0.7-0.7h10.5c0.4,0,0.7,0.3,0.7,0.7S24.9,23.1,24.6,23.1z"/>
	</g>
	<g>
		<g>
			<path class="st1" d="M8.9,27.8c0.1,0,0.2,0,0.2,0.2l0,1.4l3.4-0.1c0.1,0,0.2,0,0.2,0.2v0.4c0,0.1,0,0.2-0.2,0.2l-1.6,0v0.5l1.7,0
				c0.1,0,0.2,0,0.2,0.2v0.4c0,0.2,0,0.2-0.2,0.2l-4.3,0.1c-0.1,0-0.2,0-0.2-0.2v-0.4c0-0.1,0-0.2,0.2-0.2l1.7,0v-0.5l-1.6,0
				c-0.1,0-0.2,0-0.2-0.2l-0.1-2.1c0-0.1,0-0.2,0.2-0.2H8.9z M12,34.2c-0.1,0-0.2,0-0.2-0.2l0-1.2l-3.2,0.1c-0.1,0-0.2,0-0.2-0.2
				v-0.4c0-0.1,0-0.2,0.2-0.2l4-0.1c0.1,0,0.2,0,0.2,0.2L12.7,34c0,0.1,0,0.2-0.2,0.2H12z"/>
			<path class="st1" d="M18.3,30.9c0.1,0,0.2,0,0.2,0.2v0.4c0,0.2,0,0.2-0.2,0.2L14,31.7c-0.1,0-0.2,0-0.2-0.2v-0.4
				c0-0.1,0-0.2,0.2-0.2L18.3,30.9z M14.3,34.2c-0.1,0-0.2,0-0.2-0.2l-0.1-1.7c0-0.1,0-0.2,0.2-0.2l3.8-0.1c0.1,0,0.2,0,0.2,0.2
				l-0.1,1.7c0,0.1,0,0.2-0.2,0.2L14.3,34.2z M14.2,28.9c0-1,0.8-1.6,1.9-1.6c1.2,0,1.9,0.6,1.9,1.6c0,1-0.8,1.6-1.9,1.6
				C15,30.5,14.2,29.9,14.2,28.9z M15,33.4l2.4,0l0-0.6l-2.4,0L15,33.4z M17.2,28.9c0-0.5-0.3-0.8-1-0.8c-0.7,0-1,0.3-1,0.8
				c0,0.5,0.3,0.8,1,0.8C16.8,29.7,17.2,29.4,17.2,28.9z"/>
			<path class="st1" d="M20.7,28v-0.4c0-0.1,0-0.2,0.2-0.2h0.5c0.1,0,0.2,0,0.2,0.2V28l1.2,0c0.1,0,0.2,0,0.2,0.2v0.4
				c0,0.2,0,0.2-0.2,0.2l-3.4,0.1c-0.1,0-0.2,0-0.2-0.2v-0.4c0-0.1,0-0.2,0.2-0.2L20.7,28z M19.4,31c0-1,0.7-1.7,1.8-1.7
				S23,30,23,31c0,1-0.7,1.7-1.8,1.7S19.4,32,19.4,31z M22.1,31c0-0.5-0.3-0.9-0.9-0.9s-0.9,0.4-0.9,0.9c0,0.5,0.3,0.9,0.9,0.9
				C21.8,31.9,22.1,31.5,22.1,31z M24.5,30.8v1.9c0,0.1,0,0.2-0.2,0.2h-0.5c-0.1,0-0.2,0-0.2-0.2v-4.5c0-0.1,0-0.2,0.2-0.2h0.5
				c0.1,0,0.2,0,0.2,0.2V30l0.5,0c0.1,0,0.2,0,0.2,0.2v0.4c0,0.1,0,0.2-0.2,0.2L24.5,30.8z"/>
			<path class="st1" d="M25.8,28.1c0-0.1,0-0.2,0.2-0.2l3.3-0.1c0.1,0,0.2,0,0.2,0.2l-0.6,4.8c0,0.1-0.1,0.2-0.2,0.2h-0.5
				c-0.1,0-0.2,0-0.2-0.2l0.5-4.1l-2.5,0c-0.1,0-0.2,0-0.2-0.2V28.1z M30.4,28.1c0-0.1,0-0.2,0.2-0.2H31c0.1,0,0.2,0,0.2,0.2v4.5
				c0,0.1,0,0.2-0.2,0.2h-0.5c-0.1,0-0.2,0-0.2-0.2V28.1z"/>
		</g>
	</g>
</g>
</svg>
