<?xml version="1.0" encoding="utf-8"?>
<!-- Generator: Adobe Illustrator 25.4.1, SVG Export Plug-In . SVG Version: 6.00 Build 0)  -->
<svg version="1.0" id="레이어_1" xmlns="http://www.w3.org/2000/svg" xmlns:xlink="http://www.w3.org/1999/xlink" x="0px"
	 y="0px" width="126.5px" height="50px" viewBox="0 0 126.5 50" style="enable-background:new 0 0 126.5 50;" xml:space="preserve">
<style type="text/css">
	.st0{fill:#D1D1D1;}
	.st1{fill:#A2A2A2;}
</style>
<g>
	<g>
		<g>
			<path class="st0" d="M126.5,40c0,5.5-4.5,10-10,10H10C4.5,50,0,45.5,0,40V10C0,4.5,4.5,0,10,0h106.5c5.5,0,10,4.5,10,10V40z"/>
		</g>
		<path class="st1" d="M36.7,35.8H20.1c-1.4,0-2.5-1.1-2.5-2.5V16.7c0-1.4,1.1-2.5,2.5-2.5h16.6c1.4,0,2.5,1.1,2.5,2.5v16.6
			C39.2,34.7,38.1,35.8,36.7,35.8z"/>
	</g>
	<g>
		<g>
			<g>
				<path class="st1" d="M58.3,19.6c0-0.4,0.1-0.5,0.5-0.5l4.3-0.1c0.4,0,0.5,0.1,0.5,0.5l-0.2,4.3c0,0.4-0.2,0.5-0.5,0.5h-1.3
					c-0.4,0-0.5-0.1-0.5-0.5l0.1-2.7l-2.5,0.1c-0.4,0-0.5-0.1-0.5-0.5V19.6z M70,25c0.3,0,0.5,0.1,0.5,0.5v1c0,0.4-0.1,0.5-0.4,0.5
					l-11.2,0.2c-0.3,0-0.4-0.1-0.4-0.5v-1c0-0.4,0.1-0.5,0.5-0.5L70,25z M69.6,27.9c0.3,0,0.5,0.1,0.5,0.5v0.9
					c0,0.4-0.1,0.5-0.5,0.5l-8.2,0.1l0,0.8l8-0.1c0.3,0,0.5,0.1,0.5,0.5v0.9c0,0.4-0.1,0.5-0.5,0.5l-8,0.1l0,0.8l7.9-0.1
					c0.3,0,0.5,0.1,0.5,0.5v0.9c0,0.4-0.1,0.5-0.5,0.5l-9.7,0.2c-0.3,0-0.4-0.1-0.4-0.5l-0.2-6c0-0.4,0.1-0.5,0.4-0.5L69.6,27.9z
					 M64.6,19c0-0.4,0.1-0.5,0.5-0.5l4.8-0.1c0.4,0,0.5,0.1,0.5,0.5l-0.2,4.8c0,0.4-0.2,0.5-0.5,0.5h-1.3c-0.4,0-0.5-0.1-0.5-0.5
					l0.1-3.1l-3,0.1c-0.4,0-0.5-0.1-0.5-0.5V19z"/>
				<path class="st1" d="M74.5,18.7c0.4,0,0.5,0.1,0.5,0.5L75.2,30l4.6-0.1c0.4,0,0.5,0.1,0.5,0.5v1.1c0,0.4-0.1,0.5-0.5,0.5
					l-6.3,0.2c-0.4,0-0.5-0.1-0.5-0.5l-0.2-12.5c0-0.4,0.1-0.5,0.5-0.5H74.5z M86.1,26.1l-1.8,0v5c0,0.4-0.1,0.5-0.5,0.5h-1.3
					c-0.4,0-0.5-0.1-0.5-0.5V19.6c0-0.4,0.1-0.5,0.5-0.5h1.3c0.4,0,0.5,0.1,0.5,0.5v4.5l1.8,0v-4.6c0-0.4,0.1-0.5,0.5-0.5h1.3
					c0.4,0,0.5,0.1,0.5,0.5V31c0,0.4-0.1,0.5-0.5,0.5h-1.3c-0.4,0-0.5-0.1-0.5-0.5V26.1z"/>
				<path class="st1" d="M90.2,19.4c0-0.4,0.1-0.5,0.5-0.5l8.4-0.2c0.4,0,0.6,0.1,0.5,0.5l-1.5,12.3C98,31.9,97.9,32,97.5,32h-1.3
					c-0.4,0-0.5-0.1-0.5-0.5l1.3-10.6L90.7,21c-0.4,0-0.5-0.1-0.5-0.5V19.4z M101.8,19.6c0-0.4,0.1-0.5,0.5-0.5h1.3
					c0.4,0,0.5,0.1,0.5,0.5v11.6c0,0.4-0.1,0.5-0.5,0.5h-1.3c-0.4,0-0.5-0.1-0.5-0.5V19.6z"/>
			</g>
		</g>
	</g>
</g>
</svg>
