<?xml version="1.0" encoding="utf-8"?>
<!-- Generator: Adobe Illustrator 25.4.1, SVG Export Plug-In . SVG Version: 6.00 Build 0)  -->
<svg version="1.0" id="레이어_1" xmlns="http://www.w3.org/2000/svg" xmlns:xlink="http://www.w3.org/1999/xlink" x="0px"
	 y="0px" width="126.5px" height="50px" viewBox="0 0 126.5 50" style="enable-background:new 0 0 126.5 50;" xml:space="preserve">
<style type="text/css">
	.st0{fill:#D1D1D1;}
	.st1{fill:#A2A2A2;}
</style>
<g>
	<g>
		<path class="st0" d="M126.5,40c0,5.5-4.5,10-10,10H10C4.5,50,0,45.5,0,40V10C0,4.5,4.5,0,10,0h106.5c5.5,0,10,4.5,10,10V40z"/>
	</g>
	<g>
		<g>
			<path class="st1" d="M64,25c0.3,0,0.5,0.1,0.5,0.5v1c0,0.4-0.1,0.5-0.4,0.5l-11.2,0.2c-0.3,0-0.4-0.1-0.4-0.5v-1
				c0-0.4,0.1-0.5,0.5-0.5L64,25z M64.4,20c0,0.4-0.1,0.5-0.5,0.5l-9.1,0.2l0.1,1.5l8.8-0.2c0.4,0,0.5,0.1,0.5,0.5v1.1
				c0,0.4-0.1,0.5-0.5,0.5l-10.6,0.2c-0.4,0-0.5-0.1-0.5-0.5l-0.2-4.8c0-0.4,0.1-0.5,0.5-0.5l10.9-0.2c0.4,0,0.5,0.1,0.5,0.5V20z
				 M53.7,35.1c-0.3,0-0.4-0.1-0.4-0.5l-0.1-3.2c0-0.4,0.1-0.5,0.5-0.5l8-0.4l0-0.7L53.3,30c-0.3,0-0.4-0.1-0.4-0.5v-0.9
				c0-0.4,0.1-0.5,0.5-0.5l10.3-0.2c0.3,0,0.5,0.1,0.5,0.5l-0.2,3.2c0,0.4-0.1,0.5-0.4,0.5l-8,0.4l0,0.7l7.7-0.1
				c0.3,0,0.5,0.1,0.5,0.5v0.9c0,0.4-0.1,0.5-0.4,0.5L53.7,35.1z"/>
			<path class="st1" d="M66.6,24.9c0-2.9,1.9-5.1,5.2-5.1c3,0,4.9,1.8,5.2,4.3l2.4-0.1v-4.5c0-0.4,0.1-0.5,0.5-0.5h1.3
				c0.4,0,0.5,0.1,0.5,0.5v11.6c0,0.4-0.1,0.5-0.5,0.5h-1.3c-0.4,0-0.5-0.1-0.5-0.5v-5l-2.4,0.1c-0.5,2.2-2.3,3.7-5.1,3.7
				C68.5,29.9,66.6,27.7,66.6,24.9z M74.7,24.9c0-1.8-1-3-3-3c-1.9,0-2.9,1.2-2.9,3c0,1.7,1,3,2.9,3C73.7,27.8,74.7,26.6,74.7,24.9z
				"/>
			<path class="st1" d="M91.1,28.6v1.8l4.2-0.1c0.3,0,0.5,0.1,0.5,0.5v1.1c0,0.4-0.1,0.5-0.4,0.5l-10.8,0.2c-0.3,0-0.4-0.1-0.4-0.5
				V31c0-0.4,0.1-0.5,0.5-0.5l4.2-0.1v-1.8l-4.1,0.1c-0.4,0-0.5-0.1-0.5-0.5l-0.1-8.8c0-0.4,0.1-0.5,0.5-0.5h1.3
				c0.4,0,0.5,0.1,0.5,0.5l0,2.5l6.9-0.1l0.1-2.6c0-0.4,0.1-0.5,0.5-0.5h1.3c0.4,0,0.5,0.1,0.5,0.5L95.4,28c0,0.4-0.1,0.5-0.5,0.5
				L91.1,28.6z M86.5,26.6l6.7-0.1l0.1-2.6L86.4,24L86.5,26.6z"/>
			<path class="st1" d="M98.1,19.4c0-0.4,0.1-0.5,0.5-0.5l8.4-0.2c0.4,0,0.6,0.1,0.5,0.5L106,31.5c-0.1,0.4-0.2,0.5-0.6,0.5h-1.3
				c-0.4,0-0.5-0.1-0.5-0.5l1.3-10.6L98.6,21c-0.4,0-0.5-0.1-0.5-0.5V19.4z M109.7,19.6c0-0.4,0.1-0.5,0.5-0.5h1.3
				c0.4,0,0.5,0.1,0.5,0.5v11.6c0,0.4-0.1,0.5-0.5,0.5h-1.3c-0.4,0-0.5-0.1-0.5-0.5V19.6z"/>
		</g>
	</g>
	<g>
		<path class="st1" d="M17.5,36.5h1.1V24.1h-1.1V36.5z M33.3,36.5h1.1V24.1h-1.1V36.5z M37.8,24.6v-3.4c0-6.6-5.3-11.9-11.9-11.9
			c-6.6,0-11.9,5.3-11.9,11.9v3.4c-1.6,0.7-3.4,2.2-3.4,5.7c0,6.1,5.6,6.2,5.6,6.2v-2.3h0c0-0.2,0-0.4,0-0.6V21.3
			c0-5.3,4.3-9.6,9.6-9.6c5.3,0,9.6,4.3,9.6,9.6v12.4c0,0.2,0,0.4,0,0.6h0v2.3c0,0,5.7-0.1,5.7-6.2C41.2,26.8,39.4,25.3,37.8,24.6z"
			/>
	</g>
</g>
</svg>
