<?xml version="1.0" encoding="utf-8"?>
<!-- Generator: Adobe Illustrator 25.4.1, SVG Export Plug-In . SVG Version: 6.00 Build 0)  -->
<svg version="1.0" id="레이어_1" xmlns="http://www.w3.org/2000/svg" xmlns:xlink="http://www.w3.org/1999/xlink" x="0px"
	 y="0px" width="126.5px" height="50px" viewBox="0 0 126.5 50" style="enable-background:new 0 0 126.5 50;" xml:space="preserve">
<style type="text/css">
	.st0{fill:#D1D1D1;}
	.st1{fill:#A2A2A2;}
</style>
<g>
	<g>
		<g>
			<path class="st0" d="M126.5,40c0,5.5-4.5,10-10,10H10C4.5,50,0,45.5,0,40V10C0,4.5,4.5,0,10,0h106.5c5.5,0,10,4.5,10,10V40z"/>
		</g>
		<g>
			<g>
				<g>
					<g>
						<path class="st1" d="M37.5,36.3h-3.5c-0.5,0-0.9-0.4-0.9-0.9V14.6c0-0.5,0.4-0.9,0.9-0.9h3.5c0.5,0,0.9,0.4,0.9,0.9v20.7
							C38.4,35.9,38,36.3,37.5,36.3z"/>
					</g>
				</g>
			</g>
			<g>
				<g>
					<g>
						<path class="st1" d="M24.5,36.3h-3.5c-0.5,0-0.9-0.4-0.9-0.9V14.6c0-0.5,0.4-0.9,0.9-0.9h3.5c0.5,0,0.9,0.4,0.9,0.9v20.7
							C25.4,35.9,25,36.3,24.5,36.3z"/>
					</g>
				</g>
			</g>
		</g>
	</g>
	<g>
		<g>
			<g>
				<path class="st1" d="M69.8,24L67,24.1l-0.1,3c0,0.4-0.1,0.5-0.5,0.5l-7.5,0.2c-0.4,0-0.5-0.1-0.5-0.5l-0.1-8
					c0-0.4,0.1-0.5,0.5-0.5l7.9-0.2c0.4,0,0.5,0.1,0.5,0.5L67.1,22l2.7-0.1v-2.7c0-0.4,0.1-0.5,0.5-0.5h1.3c0.4,0,0.5,0.1,0.5,0.5
					V27c0,0.4-0.1,0.5-0.5,0.5h-1.3c-0.4,0-0.5-0.1-0.5-0.5V24z M60.7,25.6l4-0.1l0.2-4.8l-4.3,0.1L60.7,25.6z M62.3,35.1
					c-0.4,0-0.5-0.1-0.5-0.5l-0.2-5.3c0-0.4,0.1-0.5,0.5-0.5l8.8-0.2c0.4,0,0.5,0.1,0.5,0.5l-0.2,5.3c0,0.4-0.1,0.5-0.5,0.5
					L62.3,35.1z M64,33l5-0.1l0.1-2.1l-5.2,0.1L64,33z"/>
				<path class="st1" d="M78.9,23.1c0.4-0.2,0.4-0.2,0.4-0.6v-1.2l-4.4,0.1c-0.3,0-0.4-0.1-0.4-0.5v-1.1c0-0.4,0.1-0.5,0.5-0.5
					l4.4-0.1v-1.2c0-0.4,0.1-0.5,0.5-0.5H81c0.4,0,0.5,0.1,0.5,0.5v1.1l4.3-0.1c0.3,0,0.4,0.1,0.4,0.5v1.1c0,0.4-0.1,0.5-0.4,0.5
					l-4.3,0.1v1.2c0,0.4,0,0.5,0.4,0.6l4.5,1.9c0.3,0.1,0.4,0.3,0.2,0.6L86,26.8c-0.2,0.3-0.3,0.3-0.6,0.1l-5-2.2l-4.8,2.4
					c-0.4,0.2-0.5,0.2-0.7-0.2l-0.6-1c-0.2-0.3-0.2-0.5,0.2-0.7L78.9,23.1z M86,28.1c0.3,0,0.5,0.1,0.5,0.5v1.1
					c0,0.4-0.1,0.5-0.4,0.5l-4.4,0.1v3.4c0,0.4-0.1,0.5-0.5,0.5h-1.3c-0.4,0-0.5-0.1-0.5-0.5v-3.4l-4.4,0.1c-0.3,0-0.4-0.1-0.4-0.5
					v-1.1c0-0.4,0.1-0.5,0.5-0.5L86,28.1z"/>
				<path class="st1" d="M88.5,19.4c0-0.4,0.1-0.5,0.5-0.5l8.4-0.2c0.4,0,0.6,0.1,0.5,0.5l-1.5,12.3c-0.1,0.4-0.2,0.5-0.6,0.5h-1.3
					c-0.4,0-0.5-0.1-0.5-0.5l1.3-10.6L89,21c-0.4,0-0.5-0.1-0.5-0.5V19.4z M100.2,19.6c0-0.4,0.1-0.5,0.5-0.5h1.3
					c0.4,0,0.5,0.1,0.5,0.5v11.6c0,0.4-0.1,0.5-0.5,0.5h-1.3c-0.4,0-0.5-0.1-0.5-0.5V19.6z"/>
			</g>
		</g>
	</g>
</g>
</svg>
